NewsreaderCaption-SemiBold.ufo
<glyph name="exclam" format="2">
	<unicode hex="0021"/>
	<advance width="698.336"/>
	<outline>
		<contour>
			<point x="540.976" y="1354.744" type="line" smooth="yes"/>
			<point x="542.672" y="1404.976"/>
			<point x="515.552" y="1432.576"/>
			<point x="349.168" y="1432.576" type="curve" smooth="yes"/>
			<point x="183.632" y="1432.576"/>
			<point x="155.664" y="1404.976"/>
			<point x="157.36" y="1354.744" type="curve" smooth="yes"/>
			<point x="159.48" y="1276.232" type="line" smooth="yes"/>
			<point x="162.448" y="1199.496"/>
			<point x="232.072" y="685.4"/>
			<point x="252.4" y="485.88" type="curve"/>
			<point x="445.936" y="485.88" type="line"/>
			<point x="465.688" y="685.4"/>
			<point x="535.888" y="1199.496"/>
			<point x="538.856" y="1276.232" type="curve" smooth="yes"/>
		</contour>
		<contour>
			<point x="349.168" y="342.336" type="curve" smooth="yes"/>
			<point x="224.488" y="342.336"/>
			<point x="149.768" y="278.584"/>
			<point x="149.768" y="162.472" type="curve" smooth="yes"/>
			<point x="149.768" y="44.24"/>
			<point x="224.488" y="-20.784"/>
			<point x="349.168" y="-20.784" type="curve" smooth="yes"/>
			<point x="473.848" y="-20.784"/>
			<point x="548.568" y="44.24"/>
			<point x="548.568" y="162.472" type="curve" smooth="yes"/>
			<point x="548.568" y="278.584"/>
			<point x="473.848" y="342.336"/>
		</contour>
	</outline>
</glyph>
<glyph name="ampersand" format="2">
	<unicode hex="0026"/>
	<advance width="1715.48"/>
	<outline>
		<contour>
			<point x="762.776" y="818.728" type="line"/>
			<point x="1112.352" y="887.016"/>
			<point x="1201.448" y="991.056"/>
			<point x="1201.448" y="1169.088" type="curve" smooth="yes"/>
			<point x="1201.448" y="1337.08"/>
			<point x="1070.064" y="1438.24"/>
			<point x="770.328" y="1438.24" type="curve" smooth="yes"/>
			<point x="420.912" y="1438.24"/>
			<point x="288.008" y="1303.512"/>
			<point x="288.008" y="1108.312" type="curve" smooth="yes"/>
			<point x="288.008" y="986.4"/>
			<point x="323.552" y="901.88"/>
			<point x="461.768" y="754.848" type="curve" smooth="yes"/>
			<point x="1169.688" y="0" type="line"/>
			<point x="1638.656" y="0" type="line"/>
			<point x="1638.656" y="112.056" type="line"/>
			<point x="1448.824" y="162.384" type="line"/>
			<point x="756.856" y="894.312" type="line" smooth="yes"/>
			<point x="633.216" y="1024.92"/>
			<point x="606.728" y="1082.928"/>
			<point x="606.728" y="1156.936" type="curve" smooth="yes"/>
			<point x="606.728" y="1250"/>
			<point x="662.224" y="1292.4"/>
			<point x="769.208" y="1292.4" type="curve" smooth="yes"/>
			<point x="874.496" y="1292.4"/>
			<point x="921.536" y="1244.576"/>
			<point x="921.536" y="1153.36" type="curve" smooth="yes"/>
			<point x="921.536" y="1037.992"/>
			<point x="863.8" y="954.144"/>
			<point x="728.504" y="881.624" type="curve"/>
			<point x="523.576" y="783.864" type="line"/>
			<point x="217.2" y="711.792"/>
			<point x="95.536" y="574.936"/>
			<point x="95.536" y="354.304" type="curve" smooth="yes"/>
			<point x="95.536" y="114.792"/>
			<point x="226.232" y="-24.24"/>
			<point x="607.952" y="-24.24" type="curve" smooth="yes"/>
			<point x="831.248" y="-24.24"/>
			<point x="998.392" y="28.792"/>
			<point x="1155.592" y="178.608" type="curve"/>
			<point x="1216.128" y="237.48" type="line"/>
			<point x="1316.184" y="351.36"/>
			<point x="1412.904" y="508.272"/>
			<point x="1516.984" y="720.064" type="curve"/>
			<point x="1658.048" y="752.368" type="line"/>
			<point x="1658.048" y="864" type="line"/>
			<point x="1127.376" y="864" type="line"/>
			<point x="1127.376" y="752.368" type="line"/>
			<point x="1272.288" y="720.064" type="line"/>
			<point x="1250.096" y="535.368"/>
			<point x="1203.816" y="405.792"/>
			<point x="1133.816" y="319.184" type="curve"/>
			<point x="1075.944" y="264.096" type="line"/>
			<point x="991.088" y="191.536"/>
			<point x="888.536" y="157.256"/>
			<point x="756.952" y="157.256" type="curve" smooth="yes"/>
			<point x="508.896" y="157.256"/>
			<point x="420.56" y="252.656"/>
			<point x="420.56" y="464.272" type="curve" smooth="yes"/>
			<point x="420.56" y="567.528"/>
			<point x="451.328" y="655.352"/>
			<point x="550" y="723.296" type="curve"/>
		</contour>
	</outline>
</glyph>
<glyph name="quotesingle" format="2">
	<unicode hex="0027"/>
	<advance width="528.096"/>
	<outline>
		<contour>
			<point x="165.88" y="855.872" type="line"/>
			<point x="362.216" y="855.872" type="line"/>
			<point x="411.088" y="1357.888" type="line"/>
			<point x="411.088" y="1414" type="line"/>
			<point x="117.008" y="1414" type="line"/>
			<point x="117.008" y="1357.888" type="line"/>
		</contour>
	</outline>
</glyph>
<glyph name="parenleft" format="2">
	<unicode hex="0028"/>
	<advance width="742.104"/>
	<outline>
		<contour>
			<point x="373.784" y="621.848" type="curve" smooth="yes"/>
			<point x="373.784" y="934.392"/>
			<point x="454.88" y="1152.792"/>
			<point x="688.16" y="1372.648" type="curve"/>
			<point x="581.112" y="1488.24" type="line"/>
			<point x="209.608" y="1186.784"/>
			<point x="92.28" y="933.272"/>
			<point x="92.28" y="621.848" type="curve" smooth="yes"/>
			<point x="92.28" y="310.424"/>
			<point x="209.608" y="56.912"/>
			<point x="581.112" y="-244.544" type="curve"/>
			<point x="688.16" y="-128.952" type="line"/>
			<point x="454.88" y="90.904"/>
			<point x="373.784" y="309.304"/>
		</contour>
	</outline>
</glyph>
<glyph name="parenright" format="2">
	<unicode hex="0029"/>
	<advance width="742.528"/>
	<outline>
		<contour>
			<point x="368.744" y="622.424" type="curve" smooth="yes"/>
			<point x="368.744" y="309.88"/>
			<point x="287.648" y="91.48"/>
			<point x="54.368" y="-128.376" type="curve"/>
			<point x="161.416" y="-243.968" type="line"/>
			<point x="532.92" y="57.488"/>
			<point x="650.248" y="311"/>
			<point x="650.248" y="622.424" type="curve" smooth="yes"/>
			<point x="650.248" y="933.848"/>
			<point x="532.92" y="1187.36"/>
			<point x="161.416" y="1488.816" type="curve"/>
			<point x="54.368" y="1373.224" type="line"/>
			<point x="287.648" y="1153.368"/>
			<point x="368.744" y="934.968"/>
		</contour>
	</outline>
</glyph>
<glyph name="asterisk" format="2">
	<unicode hex="002A"/>
	<advance width="950.864"/>
	<outline>
		<contour>
			<point x="677.344" y="757.648" type="line"/>
			<point x="603.432" y="989.168" type="line"/>
			<point x="843.256" y="1021.256" type="line"/>
			<point x="833.288" y="1163.056" type="line"/>
			<point x="589.04" y="1163.752" type="line"/>
			<point x="632.984" y="1402.12" type="line"/>
			<point x="495.032" y="1436.48" type="line"/>
			<point x="420.304" y="1204.656" type="line"/>
			<point x="205.392" y="1319.48" type="line"/>
			<point x="131.28" y="1199.92" type="line"/>
			<point x="327.952" y="1056.16" type="line"/>
			<point x="152.4" y="888.28" type="line"/>
			<point x="243.176" y="780.112" type="line"/>
			<point x="441.24" y="922.48" type="line"/>
			<point x="546.512" y="703.352" type="line"/>
		</contour>
	</outline>
</glyph>
<glyph name="plus" format="2">
	<unicode hex="002B"/>
	<advance width="1140"/>
	<outline>
		<contour>
			<point x="467.392" y="963.568" type="line"/>
			<point x="467.392" y="74.096" type="line"/>
			<point x="672.608" y="74.096" type="line"/>
			<point x="672.608" y="963.568" type="line"/>
		</contour>
		<contour>
			<point x="1014.736" y="621.44" type="line"/>
			<point x="125.264" y="621.44" type="line"/>
			<point x="125.264" y="416.224" type="line"/>
			<point x="1014.736" y="416.224" type="line"/>
		</contour>
	</outline>
</glyph>
<glyph name="comma" format="2">
  <advance width="606.76"/>
  <unicode hex="002C"/>
  <outline>
    <contour>
      <point x="57.424" y="-278.488" type="curve"/>
      <point x="128.536" y="-375.62399999999997" type="line"/>
      <point x="418.59999999999997" y="-179.664"/>
      <point x="492.48" y="-39.816"/>
      <point x="492.48" y="150.44" type="curve" smooth="yes"/>
      <point x="492.48" y="286.67199999999997"/>
      <point x="425.608" y="354.632"/>
      <point x="295.168" y="354.632" type="curve" smooth="yes"/>
      <point x="175.12" y="354.632"/>
      <point x="102.464" y="283.792"/>
      <point x="102.464" y="172.44" type="curve" smooth="yes"/>
      <point x="102.464" y="123.23199999999999"/>
      <point x="250.904" y="81.232"/>
      <point x="250.904" y="-27.183999999999997" type="curve" smooth="yes"/>
      <point x="250.904" y="-110.544"/>
      <point x="200.272" y="-174.304"/>
    </contour>
  </outline>
</glyph>
<glyph name="hyphen" format="2">
	<unicode hex="002D"/>
	<advance width="865.336"/>
	<outline>
		<contour>
			<point x="139.552" y="635.408" type="line"/>
			<point x="139.552" y="408.592" type="line"/>
			<point x="725.784" y="408.592" type="line"/>
			<point x="725.784" y="635.408" type="line"/>
		</contour>
	</outline>
</glyph>
<glyph name="period" format="2">
	<unicode hex="002E"/>
	<advance width="606.336"/>
	<outline>
		<contour>
			<point x="303.168" y="364.384" type="curve" smooth="yes"/>
			<point x="184" y="364.384"/>
			<point x="107.584" y="293"/>
			<point x="107.584" y="171.8" type="curve" smooth="yes"/>
			<point x="107.584" y="50.6"/>
			<point x="184" y="-20.784"/>
			<point x="303.168" y="-20.784" type="curve" smooth="yes"/>
			<point x="422.336" y="-20.784"/>
			<point x="498.752" y="50.6"/>
			<point x="498.752" y="171.8" type="curve" smooth="yes"/>
			<point x="498.752" y="293"/>
			<point x="422.336" y="364.384"/>
		</contour>
	</outline>
</glyph>
<glyph name="slash" format="2">
	<unicode hex="002F"/>
	<advance width="946.968"/>
	<outline>
		<contour>
			<point x="55.64" y="0" type="line"/>
			<point x="302.904" y="0" type="line"/>
			<point x="893.904" y="1414" type="line"/>
			<point x="646.064" y="1414" type="line"/>
		</contour>
	</outline>
</glyph>
<glyph name="zero" format="2">
  <advance width="1406"/>
  <unicode hex="0030"/>
  <outline>
    <contour>
      <point x="706.152" y="188.696" type="curve" smooth="yes"/>
      <point x="527.2437577752751" y="188.696"/>
      <point x="442.50399999999996" y="326.27200000000005"/>
      <point x="442.50399999999996" y="749.5999999999999" type="curve" smooth="yes"/>
      <point x="442.50399999999996" y="1082.9840000000002"/>
      <point x="519.8734875477463" y="1225.3039999999999"/>
      <point x="699.152" y="1225.3039999999999" type="curve" smooth="yes"/>
      <point x="878.821155785391" y="1225.3039999999999"/>
      <point x="963.224" y="1087.728"/>
      <point x="963.224" y="664.4000000000001" type="curve" smooth="yes"/>
      <point x="963.224" y="331.016"/>
      <point x="886.5498261398176" y="188.696"/>
    </contour>
    <contour>
      <point x="715.3919999999999" y="1438.24" type="curve" smooth="yes"/>
      <point x="301.1773564013841" y="1438.24"/>
      <point x="93.792" y="1165.872"/>
      <point x="93.792" y="680.0" type="curve" smooth="yes"/>
      <point x="93.792" y="225.976"/>
      <point x="307.82066844919785" y="-24.240000000000002"/>
      <point x="691.184" y="-24.240000000000002" type="curve" smooth="yes"/>
      <point x="1104.5965434632978" y="-24.240000000000002"/>
      <point x="1313.2079999999999" y="248.12799999999996"/>
      <point x="1313.2079999999999" y="734.0" type="curve" smooth="yes"/>
      <point x="1313.2079999999999" y="1188.024"/>
      <point x="1097.9552058254637" y="1438.24"/>
    </contour>
  </outline>
</glyph>
<glyph name="one" format="2">
  <advance width="1406"/>
  <unicode hex="0031"/>
  <outline>
    <contour>
      <point x="618.28" y="181.536" type="line"/>
      <point x="282.544" y="120.568" type="line"/>
      <point x="282.544" y="0.0" type="line"/>
      <point x="1281.696" y="0.0" type="line"/>
      <point x="1281.696" y="120.568" type="line"/>
      <point x="960.688" y="181.536" type="line"/>
      <point x="960.688" y="1425.52" type="line"/>
      <point x="700.024" y="1425.52" type="line"/>
      <point x="158.33599999999998" y="1162.5600000000002" type="line"/>
      <point x="217.392" y="992.0" type="line"/>
      <point x="703.208" y="1159.1280000000002" type="line"/>
      <point x="618.28" y="1308.52" type="line"/>
    </contour>
  </outline>
</glyph>
<glyph name="colon" format="2">
	<unicode hex="003A"/>
	<advance width="655.552"/>
	<outline>
		<contour>
			<point x="327.776" y="354.632" type="curve" smooth="yes"/>
			<point x="208.608" y="354.632"/>
			<point x="132.192" y="285.368"/>
			<point x="132.192" y="167.136" type="curve" smooth="yes"/>
			<point x="132.192" y="48.48"/>
			<point x="208.608" y="-20.784"/>
			<point x="327.776" y="-20.784" type="curve" smooth="yes"/>
			<point x="446.944" y="-20.784"/>
			<point x="523.36" y="48.48"/>
			<point x="523.36" y="167.136" type="curve" smooth="yes"/>
			<point x="523.36" y="285.368"/>
			<point x="446.944" y="354.632"/>
		</contour>
		<contour>
			<point x="327.776" y="1053.264" type="curve" smooth="yes"/>
			<point x="208.608" y="1053.264"/>
			<point x="132.192" y="984"/>
			<point x="132.192" y="865.768" type="curve" smooth="yes"/>
			<point x="132.192" y="747.112"/>
			<point x="208.608" y="677.848"/>
			<point x="327.776" y="677.848" type="curve" smooth="yes"/>
			<point x="446.944" y="677.848"/>
			<point x="523.36" y="747.112"/>
			<point x="523.36" y="865.768" type="curve" smooth="yes"/>
			<point x="523.36" y="984"/>
			<point x="446.944" y="1053.264"/>
		</contour>
	</outline>
</glyph>
<glyph name="semicolon" format="2">
	<unicode hex="003B"/>
	<advance width="663.192"/>
	<outline>
		<contour>
			<point x="90.216" y="-278.488" type="curve"/>
			<point x="161.328" y="-375.624" type="line"/>
			<point x="451.392" y="-179.664"/>
			<point x="525.272" y="-39.816"/>
			<point x="525.272" y="150.44" type="curve" smooth="yes"/>
			<point x="525.272" y="286.672"/>
			<point x="458.4" y="354.632"/>
			<point x="327.96" y="354.632" type="curve" smooth="yes"/>
			<point x="207.912" y="354.632"/>
			<point x="135.256" y="283.792"/>
			<point x="135.256" y="172.44" type="curve" smooth="yes"/>
			<point x="135.256" y="123.232"/>
			<point x="283.696" y="81.232"/>
			<point x="283.696" y="-27.184" type="curve" smooth="yes"/>
			<point x="283.696" y="-110.544"/>
			<point x="233.064" y="-174.304"/>
		</contour>
		<contour>
			<point x="329.688" y="1053.264" type="curve" smooth="yes"/>
			<point x="210.52" y="1053.264"/>
			<point x="134.104" y="984"/>
			<point x="134.104" y="865.768" type="curve" smooth="yes"/>
			<point x="134.104" y="747.112"/>
			<point x="210.52" y="677.848"/>
			<point x="329.688" y="677.848" type="curve" smooth="yes"/>
			<point x="448.856" y="677.848"/>
			<point x="525.272" y="747.112"/>
			<point x="525.272" y="865.768" type="curve" smooth="yes"/>
			<point x="525.272" y="984"/>
			<point x="448.856" y="1053.264"/>
		</contour>
	</outline>
</glyph>
<glyph name="less" format="2">
	<unicode hex="003C"/>
	<advance width="1140"/>
	<outline>
		<contour>
			<point x="229.312" y="462.432" type="line"/>
			<point x="1014.856" y="803.4" type="line"/>
			<point x="1014.856" y="1022.736" type="line"/>
			<point x="103.84" y="616.744" type="line"/>
			<point x="103.84" y="420.496" type="line"/>
			<point x="1014.856" y="14.928" type="line"/>
			<point x="1014.856" y="238.96" type="line"/>
			<point x="229.312" y="581.232" type="line"/>
		</contour>
	</outline>
</glyph>
<glyph name="greater" format="2">
  <advance width="1140"/>
  <unicode hex="003E"/>
  <outline>
    <contour>
      <point x="910.688" y="462.432" type="line"/>
      <point x="910.688" y="581.232" type="line"/>
      <point x="125.14400000000002" y="238.95999999999998" type="line"/>
      <point x="125.14400000000002" y="14.927999999999997" type="line"/>
      <point x="1036.1599999999999" y="420.49600000000004" type="line"/>
      <point x="1036.1599999999999" y="616.744" type="line"/>
      <point x="125.14400000000002" y="1022.736" type="line"/>
      <point x="125.14400000000002" y="803.4000000000001" type="line"/>
    </contour>
  </outline>
</glyph>
<glyph name="question" format="2">
  <advance width="1334"/>
  <unicode hex="003F"/>
  <outline>
    <contour>
      <point x="613.9839999999999" y="1438.24" type="curve" smooth="yes"/>
      <point x="183.89600000000002" y="1438.24"/>
      <point x="58.879999999999995" y="1331.304"/>
      <point x="58.879999999999995" y="1206.6879999999999" type="curve" smooth="yes"/>
      <point x="58.879999999999995" y="1120.424"/>
      <point x="123.44800000000001" y="1065.704"/>
      <point x="220.8" y="1065.704" type="curve" smooth="yes"/>
      <point x="290.616" y="1065.704"/>
      <point x="370.84799999999996" y="1240.3919999999998"/>
      <point x="592.672" y="1240.3919999999998" type="curve" smooth="yes"/>
      <point x="804.832" y="1240.3919999999998"/>
      <point x="888.264" y="1143.624"/>
      <point x="888.264" y="1027.792" type="curve" smooth="yes"/>
      <point x="888.264" y="876.544"/>
      <point x="800.744" y="820.112"/>
      <point x="479.224" y="825.7439999999999" type="curve"/>
      <point x="523.672" y="472.736" type="line"/>
      <point x="736.6239999999999" y="472.736" type="line"/>
      <point x="774.4639999999999" y="724.336" type="line"/>
      <point x="694.5360000000001" y="635.52" type="line"/>
      <point x="1107.1280000000002" y="647.76"/>
      <point x="1246.0639999999999" y="787.552"/>
      <point x="1246.0639999999999" y="1035.032" type="curve" smooth="yes"/>
      <point x="1246.0639999999999" y="1259.912"/>
      <point x="1055.176" y="1438.24"/>
    </contour>
    <contour>
      <point x="624.56" y="342.336" type="curve" smooth="yes"/>
      <point x="499.88" y="342.336"/>
      <point x="425.15999999999997" y="278.584"/>
      <point x="425.15999999999997" y="162.47199999999998" type="curve" smooth="yes"/>
      <point x="425.15999999999997" y="44.239999999999995"/>
      <point x="499.88" y="-20.784"/>
      <point x="624.56" y="-20.784" type="curve" smooth="yes"/>
      <point x="749.24" y="-20.784"/>
      <point x="823.96" y="44.239999999999995"/>
      <point x="823.96" y="162.47199999999998" type="curve" smooth="yes"/>
      <point x="823.96" y="278.584"/>
      <point x="749.24" y="342.336"/>
    </contour>
  </outline>
</glyph>
<glyph name="at" format="2">
  <advance width="1922"/>
  <unicode hex="0040"/>
  <outline>
    <contour>
      <point x="1375.1439999999998" y="173.256" type="curve" smooth="yes"/>
      <point x="1665.224" y="173.256"/>
      <point x="1855.504" y="399.03999999999996"/>
      <point x="1855.504" y="780.736" type="curve" smooth="yes"/>
      <point x="1855.504" y="1209.736"/>
      <point x="1565.112" y="1438.24"/>
      <point x="1092.088" y="1438.24" type="curve" smooth="yes"/>
      <point x="473.912" y="1438.24"/>
      <point x="95.552" y="1069.4160000000002"/>
      <point x="95.552" y="497.91200000000003" type="curve" smooth="yes"/>
      <point x="95.552" y="-26.0"/>
      <point x="401.736" y="-254.72"/>
      <point x="958.4799999999999" y="-254.72" type="curve" smooth="yes"/>
      <point x="1221.512" y="-254.72"/>
      <point x="1434.752" y="-192.688"/>
      <point x="1638.0800000000002" y="-72.112" type="curve"/>
      <point x="1583.624" y="29.888" type="line"/>
      <point x="1391.264" y="-77.264"/>
      <point x="1187.3600000000001" y="-133.144"/>
      <point x="993.96" y="-133.144" type="curve" smooth="yes"/>
      <point x="493.456" y="-133.144"/>
      <point x="242.672" y="65.672"/>
      <point x="242.672" y="511.152" type="curve" smooth="yes"/>
      <point x="242.672" y="1005.872"/>
      <point x="560.848" y="1323.36"/>
      <point x="1083.088" y="1323.36" type="curve" smooth="yes"/>
      <point x="1491.896" y="1323.36"/>
      <point x="1717.232" y="1142.28"/>
      <point x="1717.232" y="748.2800000000001" type="curve" smooth="yes"/>
      <point x="1717.232" y="489.544"/>
      <point x="1587.224" y="308.76000000000005"/>
      <point x="1432.192" y="308.76000000000005" type="curve" smooth="yes"/>
      <point x="1360.344" y="308.76000000000005"/>
      <point x="1326.768" y="333.91200000000003"/>
      <point x="1325.4959999999999" y="399.52000000000004" type="curve" smooth="yes"/>
      <point x="1324.648" y="430.64000000000004"/>
      <point x="1329.648" y="466.184"/>
      <point x="1344.7679999999998" y="514.392" type="curve" smooth="yes"/>
      <point x="1494.224" y="1012.48" type="line"/>
      <point x="1274.92" y="1012.48" type="line"/>
      <point x="1180.2640000000001" y="856.184" type="line"/>
      <point x="1136.568" y="735.88" type="line" smooth="yes"/>
      <point x="1061.84" y="528.5120000000001"/>
      <point x="942.584" y="371.592"/>
      <point x="849.5120000000001" y="371.592" type="curve" smooth="yes"/>
      <point x="795.3199999999999" y="371.592"/>
      <point x="769.408" y="398.232"/>
      <point x="768.56" y="453.27200000000005" type="curve" smooth="yes"/>
      <point x="764.744" y="616.552"/>
      <point x="930.504" y="878.832"/>
      <point x="1071.944" y="878.832" type="curve" smooth="yes"/>
      <point x="1134.616" y="878.832"/>
      <point x="1167.048" y="850.496"/>
      <point x="1200.384" y="779.8879999999999" type="curve"/>
      <point x="1218.928" y="816.552" type="line"/>
      <point x="1173.08" y="958.9359999999999"/>
      <point x="1098.6879999999999" y="1033.176"/>
      <point x="983.4159999999999" y="1033.176" type="curve" smooth="yes"/>
      <point x="714.96" y="1033.6"/>
      <point x="466.152" y="696.2080000000001"/>
      <point x="473.784" y="416.43199999999996" type="curve" smooth="yes"/>
      <point x="477.59999999999997" y="277.464"/>
      <point x="565.8960000000001" y="184.072"/>
      <point x="715.5039999999999" y="184.072" type="curve" smooth="yes"/>
      <point x="863.408" y="184.072"/>
      <point x="956.928" y="265.072"/>
      <point x="1114.2" y="541.216" type="curve"/>
      <point x="1135.864" y="541.216" type="line"/>
      <point x="1117.712" y="490.488" type="line" smooth="yes"/>
      <point x="1103.56" y="448.064"/>
      <point x="1095.5600000000002" y="407.64"/>
      <point x="1096.4080000000001" y="371.94399999999996" type="curve" smooth="yes"/>
      <point x="1100.2240000000002" y="246.12887244980195"/>
      <point x="1200.5092841344397" y="173.256"/>
    </contour>
  </outline>
</glyph>
<glyph name="A" format="2">
	<unicode hex="0041"/>
	<advance width="1781.288"/>
	<outline>
		<contour>
			<point x="445.392" y="426.176" type="line"/>
			<point x="1179.504" y="426.176" type="line"/>
			<point x="1179.504" y="628.816" type="line"/>
			<point x="445.392" y="628.816" type="line"/>
		</contour>
		<contour>
			<point x="1587.864" y="167.112" type="line"/>
			<point x="1090.216" y="1425.52" type="line"/>
			<point x="667.792" y="1425.52" type="line"/>
			<point x="186.912" y="158.632" type="line"/>
			<point x="18.912" y="118.72" type="line"/>
			<point x="18.912" y="0" type="line"/>
			<point x="603.096" y="0" type="line"/>
			<point x="603.096" y="118.72" type="line"/>
			<point x="429.392" y="161.176" type="line"/>
			<point x="823.952" y="1280.032" type="line"/>
			<point x="780.888" y="1280.032" type="line"/>
			<point x="1206.488" y="158.632" type="line"/>
			<point x="1031.512" y="118.72" type="line"/>
			<point x="1031.512" y="0" type="line"/>
			<point x="1773.44" y="0" type="line"/>
			<point x="1773.44" y="118.72" type="line"/>
		</contour>
	</outline>
	<anchor name="UCtop" x="876.176" y="1414"/>
	<anchor name="right" x="1571.04" y="0"/>
	<anchor name="bottom" x="825.344" y="0"/>
</glyph>
<glyph name="B" format="2">
  <advance width="1599.472"/>
  <unicode hex="0042"/>
  <anchor x="825.96" y="1414.0" name="UCtop"/>
  <anchor x="843.24" y="0.0" name="bottom"/>
  <outline>
    <contour>
      <point x="480.184" y="1215.1760000000002" type="line"/>
      <point x="870.184" y="1215.1760000000002" type="line" smooth="yes"/>
      <point x="1026.112" y="1215.1760000000002"/>
      <point x="1078.424" y="1155.504"/>
      <point x="1078.424" y="1032.92" type="curve" smooth="yes"/>
      <point x="1078.424" y="891.1519999999999"/>
      <point x="1011.808" y="836.784"/>
      <point x="887.368" y="836.784" type="curve" smooth="yes"/>
      <point x="481.336" y="836.784" type="line"/>
      <point x="477.304" y="654.496" type="line"/>
      <point x="887.336" y="654.496" type="line" smooth="yes"/>
      <point x="1067.416" y="654.496"/>
      <point x="1132.424" y="572.3679999999999"/>
      <point x="1132.424" y="434.59999999999997" type="curve" smooth="yes"/>
      <point x="1132.424" y="252.344"/>
      <point x="1055.808" y="198.824"/>
      <point x="880.76" y="198.824" type="curve" smooth="yes"/>
      <point x="480.18399999999997" y="198.824" type="line"/>
      <point x="480.18399999999997" y="0.0" type="line"/>
      <point x="953.296" y="0.0" type="line" smooth="yes"/>
      <point x="1346.8319999999999" y="0.0"/>
      <point x="1495.04" y="154.064"/>
      <point x="1495.04" y="411.15999999999997" type="curve" smooth="yes"/>
      <point x="1495.04" y="622.064"/>
      <point x="1354.8319999999999" y="760.424"/>
      <point x="1099.808" y="774.0" type="curve"/>
      <point x="1099.808" y="755.0" type="line"/>
      <point x="1313.712" y="773.0"/>
      <point x="1427.2240000000002" y="891.0"/>
      <point x="1427.2240000000002" y="1081.0" type="curve" smooth="yes"/>
      <point x="1427.2240000000002" y="1282.0"/>
      <point x="1307.712" y="1414.0"/>
      <point x="968.8720000000001" y="1414.0" type="curve" smooth="yes"/>
      <point x="480.18399999999997" y="1414.0" type="line"/>
    </contour>
    <contour>
      <point x="107.824" y="0.0" type="line"/>
      <point x="639.872" y="0.0" type="line"/>
      <point x="639.872" y="1414.0" type="line"/>
      <point x="107.824" y="1414.0" type="line"/>
      <point x="107.824" y="1295.28" type="line"/>
      <point x="286.192" y="1248.5839999999998" type="line"/>
      <point x="286.192" y="165.416" type="line"/>
      <point x="107.824" y="118.72" type="line"/>
    </contour>
  </outline>
</glyph>
<glyph name="C" format="2">
	<unicode hex="0043"/>
	<advance width="1588.192"/>
	<outline>
		<contour>
			<point x="992.904" y="182.552" type="curve" smooth="yes"/>
			<point x="653.648" y="182.552"/>
			<point x="460.352" y="355.144"/>
			<point x="468.416" y="738.336" type="curve" smooth="yes"/>
			<point x="475.328" y="1074.888"/>
			<point x="612.584" y="1221.936"/>
			<point x="947.888" y="1221.936" type="curve" smooth="yes"/>
			<point x="1081.64" y="1221.936"/>
			<point x="1178.936" y="1199.424"/>
			<point x="1296.088" y="1132.944" type="curve"/>
			<point x="1176.792" y="1277.696" type="line"/>
			<point x="1283.624" y="928.624" type="line"/>
			<point x="1457.552" y="928.624" type="line"/>
			<point x="1457.552" y="1495.872" type="line"/>
			<point x="1322.744" y="1495.872" type="line"/>
			<point x="1219.24" y="1369.728" type="line"/>
			<point x="1311.68" y="1377.816" type="line"/>
			<point x="1190.3267773773" y="1415.3298435618"/>
			<point x="1070.36" y="1438.24"/>
			<point x="932.296" y="1438.24" type="curve" smooth="yes"/>
			<point x="389.288" y="1438.24"/>
			<point x="112.155298713" y="1152.004598326"/>
			<point x="108.704" y="693.216" type="curve" smooth="yes"/>
			<point x="105.248" y="214.944"/>
			<point x="389.128" y="-24.24"/>
			<point x="941.656" y="-24.24" type="curve" smooth="yes"/>
			<point x="1132.352" y="-24.24"/>
			<point x="1303.448" y="6.672"/>
			<point x="1432.736" y="59.064" type="curve"/>
			<point x="1478.672" y="483.432" type="line"/>
			<point x="1329.256" y="483.432" type="line"/>
			<point x="1158.76" y="109.232" type="line"/>
			<point x="1337.92" y="249.008" type="line"/>
			<point x="1231.856" y="206.28"/>
			<point x="1104.88" y="182.552"/>
		</contour>
	</outline>
	<anchor name="UCtop" x="859.448" y="1414"/>
	<anchor name="bottom" x="893.368" y="0"/>
	<anchor name="right" x="1404.432" y="0"/>
</glyph>
<glyph name="D" format="2">
	<unicode hex="0044"/>
	<advance width="1749.688"/>
	<outline>
		<contour>
			<point x="1277.032" y="722.728" type="curve" smooth="yes"/>
			<point x="1277.032" y="362.28"/>
			<point x="1144.456" y="214.512"/>
			<point x="872.592" y="214.512" type="curve" smooth="yes"/>
			<point x="472.776" y="214.512" type="line"/>
			<point x="449.88" y="0" type="line"/>
			<point x="881.56" y="0" type="line" smooth="yes"/>
			<point x="1340.56" y="0"/>
			<point x="1639.56" y="257"/>
			<point x="1639.56" y="736" type="curve" smooth="yes"/>
			<point x="1639.56" y="1177"/>
			<point x="1385.56" y="1414"/>
			<point x="890.56" y="1414" type="curve" smooth="yes"/>
			<point x="449.88" y="1414" type="line"/>
			<point x="472.776" y="1199.488" type="line"/>
			<point x="823.832" y="1199.488" type="line" smooth="yes"/>
			<point x="1147.608" y="1199.488"/>
			<point x="1277.032" y="1051.232"/>
		</contour>
		<contour>
			<point x="103.216" y="0" type="line"/>
			<point x="641.024" y="0" type="line"/>
			<point x="641.024" y="1414" type="line"/>
			<point x="103.216" y="1414" type="line"/>
			<point x="103.216" y="1295.28" type="line"/>
			<point x="287.344" y="1248.584" type="line"/>
			<point x="287.344" y="165.416" type="line"/>
			<point x="103.216" y="118.72" type="line"/>
		</contour>
	</outline>
	<anchor name="UCtop" x="873.928" y="1414"/>
	<anchor name="bottom" x="873.928" y="0"/>
</glyph>
<glyph name="E" format="2">
	<unicode hex="0045"/>
	<advance width="1589.064"/>
	<outline>
		<contour>
			<point x="1109.84" y="990" type="line"/>
			<point x="956.368" y="990" type="line"/>
			<point x="939.368" y="828.144" type="line"/>
			<point x="461.752" y="828.144" type="line"/>
			<point x="461.752" y="645.856" type="line"/>
			<point x="939.368" y="645.856" type="line"/>
			<point x="956.368" y="480" type="line"/>
			<point x="1109.84" y="480" type="line"/>
			<point x="1109.84" y="735" type="line"/>
		</contour>
		<contour>
			<point x="1451.576" y="1002.144" type="line"/>
			<point x="1451.576" y="1495.872" type="line"/>
			<point x="1327.432" y="1495.872" type="line"/>
			<point x="1227.536" y="1414" type="line"/>
			<point x="461.752" y="1414" type="line"/>
			<point x="461.752" y="1215.176" type="line"/>
			<point x="1283.712" y="1215.176" type="line"/>
			<point x="1173.336" y="1336.064" type="line"/>
			<point x="1284.44" y="1002.144" type="line"/>
		</contour>
		<contour>
			<point x="1153.008" y="80.056" type="line"/>
			<point x="1250.688" y="198.824" type="line"/>
			<point x="461.752" y="198.824" type="line"/>
			<point x="461.752" y="0" type="line"/>
			<point x="1208.272" y="0" type="line"/>
			<point x="1276.56" y="-85.144" type="line"/>
			<point x="1419.248" y="-85.144" type="line"/>
			<point x="1506.696" y="475.672" type="line"/>
			<point x="1338.352" y="475.672" type="line"/>
		</contour>
		<contour>
			<point x="103.216" y="0" type="line"/>
			<point x="641.024" y="0" type="line"/>
			<point x="641.024" y="1414" type="line"/>
			<point x="103.216" y="1414" type="line"/>
			<point x="103.216" y="1295.28" type="line"/>
			<point x="287.344" y="1248.584" type="line"/>
			<point x="287.344" y="165.416" type="line"/>
			<point x="103.216" y="118.72" type="line"/>
		</contour>
	</outline>
	<anchor name="UCtop" x="804.456" y="1414"/>
	<anchor name="right" x="1322.456" y="0"/>
	<anchor name="bottom" x="792.936" y="0"/>
</glyph>
<glyph name="F" format="2">
	<unicode hex="0046"/>
	<advance width="1479.376"/>
	<outline>
		<contour>
			<point x="1104.08" y="922.304" type="line"/>
			<point x="950.608" y="922.304" type="line"/>
			<point x="933.608" y="746.208" type="line"/>
			<point x="461.752" y="746.208" type="line"/>
			<point x="461.752" y="563.92" type="line"/>
			<point x="933.608" y="563.92" type="line"/>
			<point x="950.608" y="383.824" type="line"/>
			<point x="1104.08" y="383.824" type="line"/>
			<point x="1104.08" y="653.064" type="line"/>
		</contour>
		<contour>
			<point x="1284.712" y="1495.872" type="line"/>
			<point x="1184.816" y="1414" type="line"/>
			<point x="461.752" y="1414" type="line"/>
			<point x="461.752" y="1215.176" type="line"/>
			<point x="1240.992" y="1215.176" type="line"/>
			<point x="1130.616" y="1336.064" type="line"/>
			<point x="1241.72" y="974.448" type="line"/>
			<point x="1408.856" y="974.448" type="line"/>
			<point x="1408.856" y="1495.872" type="line"/>
		</contour>
		<contour>
			<point x="641.024" y="1414" type="line"/>
			<point x="103.216" y="1414" type="line"/>
			<point x="103.216" y="1295.28" type="line"/>
			<point x="287.344" y="1248.584" type="line"/>
			<point x="287.344" y="165.416" type="line"/>
			<point x="103.216" y="118.72" type="line"/>
			<point x="103.216" y="0" type="line"/>
			<point x="825.152" y="0" type="line"/>
			<point x="825.152" y="118.72" type="line"/>
			<point x="641.024" y="165.416" type="line"/>
		</contour>
	</outline>
	<anchor name="UCtop" x="757.768" y="1414"/>
	<anchor name="bottom" x="464.184" y="0"/>
</glyph>
<glyph name="G" format="2">
  <advance width="1730.0400000000002"/>
  <unicode hex="0047"/>
  <anchor x="874.384" y="1414.0" name="UCtop"/>
  <anchor x="942.656" y="0.0" name="bottom"/>
  <outline>
    <contour>
      <point x="1499.328" y="236.2" type="line"/>
      <point x="1499.328" y="511.584" type="line"/>
      <point x="1640.0639999999999" y="566.76" type="line"/>
      <point x="1640.0639999999999" y="677.0" type="line"/>
      <point x="951.624" y="677.0" type="line"/>
      <point x="951.624" y="566.76" type="line"/>
      <point x="1145.648" y="515.8240000000001" type="line"/>
      <point x="1145.648" y="32.12799999999999" type="line"/>
      <point x="1314.8719999999998" y="263.952" type="line"/>
      <point x="1214.448" y="207.672"/>
      <point x="1103.184" y="188.488"/>
      <point x="992.904" y="188.488" type="curve" smooth="yes"/>
      <point x="652.8" y="188.488"/>
      <point x="460.35200000000003" y="358.112"/>
      <point x="468.416" y="738.336" type="curve" smooth="yes"/>
      <point x="475.32800000000003" y="1074.8880000000001"/>
      <point x="618.128" y="1221.9360000000001"/>
      <point x="966.3679999999999" y="1221.9360000000001" type="curve" smooth="yes"/>
      <point x="1100.12" y="1221.9360000000001"/>
      <point x="1197.416" y="1199.424"/>
      <point x="1314.568" y="1132.944" type="curve"/>
      <point x="1195.272" y="1277.696" type="line"/>
      <point x="1302.104" y="940.144" type="line"/>
      <point x="1476.0320000000002" y="940.144" type="line"/>
      <point x="1476.0320000000002" y="1495.872" type="line"/>
      <point x="1341.2240000000002" y="1495.872" type="line"/>
      <point x="1237.72" y="1369.728" type="line"/>
      <point x="1330.1599999999999" y="1377.816" type="line"/>
      <point x="1208.712" y="1415.36"/>
      <point x="1088.84" y="1438.816"/>
      <point x="950.776" y="1438.816" type="curve" smooth="yes"/>
      <point x="395.408" y="1438.816"/>
      <point x="112.16" y="1152.376"/>
      <point x="108.704" y="693.216" type="curve" smooth="yes"/>
      <point x="105.24799999999999" y="214.94400000000002"/>
      <point x="389.128" y="-24.240000000000002"/>
      <point x="941.656" y="-24.240000000000002" type="curve" smooth="yes"/>
      <point x="1173.4959999999999" y="-24.240000000000002"/>
      <point x="1435.048" y="31.576"/>
      <point x="1624.064" y="121.392" type="curve"/>
      <point x="1624.064" y="236.2" type="line"/>
    </contour>
  </outline>
</glyph>
<glyph name="H" format="2">
	<unicode hex="0048"/>
	<advance width="1907.728"/>
	<outline>
		<contour>
			<point x="641.024" y="165.416" type="line"/>
			<point x="641.024" y="1248.584" type="line"/>
			<point x="825.152" y="1295.28" type="line"/>
			<point x="825.152" y="1414" type="line"/>
			<point x="103.216" y="1414" type="line"/>
			<point x="103.216" y="1295.28" type="line"/>
			<point x="287.344" y="1248.584" type="line"/>
			<point x="287.344" y="165.416" type="line"/>
			<point x="103.216" y="118.72" type="line"/>
			<point x="103.216" y="0" type="line"/>
			<point x="825.152" y="0" type="line"/>
			<point x="825.152" y="118.72" type="line"/>
		</contour>
		<contour>
			<point x="1620.384" y="165.416" type="line"/>
			<point x="1620.384" y="1248.584" type="line"/>
			<point x="1804.512" y="1295.28" type="line"/>
			<point x="1804.512" y="1414" type="line"/>
			<point x="1082.576" y="1414" type="line"/>
			<point x="1082.576" y="1295.28" type="line"/>
			<point x="1266.704" y="1248.584" type="line"/>
			<point x="1266.704" y="165.416" type="line"/>
			<point x="1082.576" y="118.72" type="line"/>
			<point x="1082.576" y="0" type="line"/>
			<point x="1804.512" y="0" type="line"/>
			<point x="1804.512" y="118.72" type="line"/>
		</contour>
		<contour>
			<point x="451.576" y="614.016" type="line"/>
			<point x="1457.576" y="614.016" type="line"/>
			<point x="1457.576" y="828.528" type="line"/>
			<point x="451.576" y="828.528" type="line"/>
		</contour>
	</outline>
	<anchor name="UCtop" x="954.152" y="1414"/>
	<anchor name="bottom" x="954.152" y="0"/>
</glyph>
<glyph name="I" format="2">
	<unicode hex="0049"/>
	<advance width="928.368"/>
	<outline>
		<contour>
			<point x="825.152" y="118.72" type="line"/>
			<point x="641.024" y="165.416" type="line"/>
			<point x="641.024" y="1248.584" type="line"/>
			<point x="825.152" y="1295.28" type="line"/>
			<point x="825.152" y="1414" type="line"/>
			<point x="103.216" y="1414" type="line"/>
			<point x="103.216" y="1295.28" type="line"/>
			<point x="287.344" y="1248.584" type="line"/>
			<point x="287.344" y="165.416" type="line"/>
			<point x="103.216" y="118.72" type="line"/>
			<point x="103.216" y="0" type="line"/>
			<point x="825.152" y="0" type="line"/>
		</contour>
	</outline>
	<anchor name="UCtop" x="464.184" y="1414"/>
	<anchor name="right" x="629.624" y="0"/>
	<anchor name="bottom" x="464.184" y="0"/>
</glyph>
<glyph name="J" format="2">
	<unicode hex="004A"/>
	<advance width="1245.448"/>
	<outline>
		<contour>
			<point x="993.704" y="439.576" type="curve" smooth="yes"/>
			<point x="993.704" y="1248.584" type="line"/>
			<point x="1177.832" y="1295.28" type="line"/>
			<point x="1177.832" y="1414" type="line"/>
			<point x="455.896" y="1414" type="line"/>
			<point x="455.896" y="1295.28" type="line"/>
			<point x="640.024" y="1248.584" type="line"/>
			<point x="640.024" y="405.616" type="line" smooth="yes"/>
			<point x="640.024" y="248.248"/>
			<point x="574.168" y="192.216"/>
			<point x="421.712" y="192.216" type="curve" smooth="yes"/>
			<point x="276.096" y="192.216"/>
			<point x="200.872" y="331.088"/>
			<point x="154.328" y="331.088" type="curve" smooth="yes"/>
			<point x="77.848" y="331.088"/>
			<point x="24.976" y="277.576"/>
			<point x="24.976" y="190.464" type="curve" smooth="yes"/>
			<point x="24.976" y="67.48"/>
			<point x="120.448" y="-20.24"/>
			<point x="410.368" y="-20.24" type="curve" smooth="yes"/>
			<point x="820.12" y="-20.24"/>
			<point x="993.704" y="162.136"/>
		</contour>
	</outline>
	<anchor name="UCtop" x="816.864" y="1414"/>
	<anchor name="bottom" x="565.4" y="0"/>
</glyph>
<glyph name="K" format="2">
  <advance width="1781"/>
  <unicode hex="004B"/>
  <anchor x="965.336" y="0.0" name="bottom"/>
  <anchor x="920.776" y="1414.0" name="UCtop"/>
  <outline>
    <contour>
      <point x="1600.784" y="163.28799999999998" type="line"/>
      <point x="1025.624" y="898.224" type="line"/>
      <point x="948.08" y="706.76" type="line"/>
      <point x="1500.088" y="1246.8880000000001" type="line"/>
      <point x="1667.24" y="1295.28" type="line"/>
      <point x="1667.24" y="1414.0" type="line"/>
      <point x="1070.976" y="1414.0" type="line"/>
      <point x="1070.976" y="1295.28" type="line"/>
      <point x="1236.064" y="1257.1280000000002" type="line"/>
      <point x="810.072" y="836.5600000000001" type="line"/>
      <point x="526.688" y="836.5600000000001" type="line"/>
      <point x="526.688" y="622.048" type="line"/>
      <point x="793.648" y="622.048" type="line"/>
      <point x="1193.712" y="110.24000000000001" type="line"/>
      <point x="1193.712" y="87.2" type="line"/>
      <point x="1193.712" y="0.0" type="line"/>
      <point x="1755.9360000000001" y="0.0" type="line"/>
      <point x="1755.9360000000001" y="118.72" type="line"/>
    </contour>
    <contour>
      <point x="641.024" y="1248.5839999999998" type="line"/>
      <point x="825.152" y="1295.28" type="line"/>
      <point x="825.152" y="1414.0" type="line"/>
      <point x="103.216" y="1414.0" type="line"/>
      <point x="103.216" y="1295.28" type="line"/>
      <point x="287.344" y="1248.5839999999998" type="line"/>
      <point x="287.344" y="165.416" type="line"/>
      <point x="103.216" y="118.72" type="line"/>
      <point x="103.216" y="0.0" type="line"/>
      <point x="825.1519999999999" y="0.0" type="line"/>
      <point x="825.1519999999999" y="118.72" type="line"/>
      <point x="641.024" y="165.416" type="line"/>
    </contour>
  </outline>
</glyph>
<glyph name="L" format="2">
	<unicode hex="004C"/>
	<advance width="1484.248"/>
	<outline>
		<contour>
			<point x="1336.888" y="-85.144" type="line"/>
			<point x="1435.272" y="539.064" type="line"/>
			<point x="1266.928" y="539.064" type="line"/>
			<point x="1061.528" y="104.224" type="line"/>
			<point x="1173.84" y="214.512" type="line"/>
			<point x="467.264" y="214.512" type="line"/>
			<point x="461.752" y="0" type="line"/>
			<point x="1125.912" y="0" type="line"/>
			<point x="1194.2" y="-85.144" type="line"/>
		</contour>
		<contour>
			<point x="641.024" y="1248.584" type="line"/>
			<point x="825.152" y="1295.28" type="line"/>
			<point x="825.152" y="1414" type="line"/>
			<point x="103.216" y="1414" type="line"/>
			<point x="103.216" y="1295.28" type="line"/>
			<point x="287.344" y="1248.584" type="line"/>
			<point x="287.344" y="165.416" type="line"/>
			<point x="103.216" y="118.72" type="line"/>
			<point x="103.216" y="0" type="line"/>
			<point x="641.024" y="0" type="line"/>
		</contour>
	</outline>
	<anchor name="UCtop" x="464.184" y="1414"/>
	<anchor name="bottom" x="743.272" y="0"/>
	<anchor name="mid" x="1207.576" y="806.768"/>
	<anchor name="right" x="875.592" y="1414"/>
</glyph>
<glyph name="M" format="2">
	<unicode hex="004D"/>
	<advance width="2347.368"/>
	<outline>
		<contour>
			<point x="2084.24" y="169.656" type="line"/>
			<point x="2020.96" y="1236.04" type="line"/>
			<point x="2205.632" y="1295.28" type="line"/>
			<point x="2205.632" y="1414" type="line"/>
			<point x="1512.464" y="1414" type="line"/>
			<point x="1160.112" y="280.288" type="line"/>
			<point x="1176.992" y="280.288" type="line"/>
			<point x="829.184" y="1414" type="line"/>
			<point x="126.496" y="1414" type="line"/>
			<point x="126.496" y="1295.28" type="line"/>
			<point x="326.8" y="1226.8" type="line"/>
			<point x="257.944" y="166.688" type="line"/>
			<point x="89.944" y="118.72" type="line"/>
			<point x="89.944" y="0" type="line"/>
			<point x="632.96" y="0" type="line"/>
			<point x="632.96" y="118.72" type="line"/>
			<point x="475.792" y="164.992" type="line"/>
			<point x="538.256" y="1206" type="line"/>
			<point x="527.528" y="1204.424" type="line"/>
			<point x="908.048" y="0" type="line"/>
			<point x="1285.336" y="0" type="line"/>
			<point x="1674.04" y="1218.936" type="line"/>
			<point x="1659.92" y="1220.512" type="line"/>
			<point x="1726.048" y="164.992" type="line"/>
			<point x="1565.912" y="118.72" type="line"/>
			<point x="1565.912" y="0" type="line"/>
			<point x="2265.576" y="0" type="line"/>
			<point x="2265.576" y="118.72" type="line"/>
		</contour>
	</outline>
	<anchor name="UCtop" x="1166.272" y="1414"/>
	<anchor name="bottom" x="1110.832" y="0"/>
</glyph>
<glyph name="N" format="2">
	<unicode hex="004E"/>
	<advance width="1823.016"/>
	<outline>
		<contour>
			<point x="288.736" y="164.568" type="line"/>
			<point x="109.216" y="118.72" type="line"/>
			<point x="109.216" y="0" type="line"/>
			<point x="696.96" y="0" type="line"/>
			<point x="696.96" y="118.72" type="line"/>
			<point x="507.072" y="164.568" type="line"/>
			<point x="507.072" y="1298" type="line"/>
			<point x="424.672" y="1281.888" type="line"/>
			<point x="1136.144" y="0" type="line"/>
			<point x="1558.976" y="0" type="line"/>
			<point x="1558.976" y="1249.432" type="line"/>
			<point x="1738.496" y="1295.28" type="line"/>
			<point x="1738.496" y="1414" type="line"/>
			<point x="1150.752" y="1414" type="line"/>
			<point x="1150.752" y="1295.28" type="line"/>
			<point x="1340.64" y="1249.432" type="line"/>
			<point x="1340.64" y="136.016" type="line"/>
			<point x="1402.584" y="226.104" type="line"/>
			<point x="739.016" y="1414" type="line"/>
			<point x="100.736" y="1414" type="line"/>
			<point x="100.736" y="1295.28" type="line"/>
			<point x="288.736" y="1240.952" type="line"/>
		</contour>
	</outline>
	<anchor name="UCtop" x="943.856" y="1414"/>
	<anchor name="bottom" x="952.336" y="0"/>
</glyph>
<glyph name="O" format="2">
	<unicode hex="004F"/>
	<advance width="1737.672"/>
	<outline>
		<contour>
			<point x="882.312" y="1438.24" type="curve" smooth="yes"/>
			<point x="403.088" y="1438.24"/>
			<point x="107.552" y="1153.928"/>
			<point x="107.552" y="705.424" type="curve" smooth="yes"/>
			<point x="107.552" y="259.92"/>
			<point x="384.312" y="-23.816"/>
			<point x="855.36" y="-23.816" type="curve" smooth="yes"/>
			<point x="1334.584" y="-23.816"/>
			<point x="1630.12" y="260.496"/>
			<point x="1630.12" y="709" type="curve" smooth="yes"/>
			<point x="1630.12" y="1154.504"/>
			<point x="1353.36" y="1438.24"/>
		</contour>
		<contour>
			<point x="873.384" y="201.272" type="curve" smooth="yes"/>
			<point x="595.592" y="201.272"/>
			<point x="467.112" y="388.776"/>
			<point x="467.112" y="753.416" type="curve" smooth="yes"/>
			<point x="467.112" y="1058.248"/>
			<point x="602.312" y="1213.152"/>
			<point x="864.288" y="1213.152" type="curve" smooth="yes"/>
			<point x="1142.08" y="1213.152"/>
			<point x="1270.56" y="1025.648"/>
			<point x="1270.56" y="661.008" type="curve" smooth="yes"/>
			<point x="1270.56" y="356.176"/>
			<point x="1135.36" y="201.272"/>
		</contour>
	</outline>
	<anchor name="UCtop" x="868.624" y="1414"/>
	<anchor name="bottom" x="868.624" y="0"/>
	<anchor name="horn" x="1207.4" y="1414"/>
	<anchor name="right" x="1061.344" y="0"/>
</glyph>
<glyph name="P" format="2">
  <advance width="1532.1119999999999"/>
  <unicode hex="0050"/>
  <anchor x="804.6400000000001" y="1414.0" name="UCtop"/>
  <anchor x="464.18399999999997" y="0.0" name="bottom"/>
  <outline>
    <contour>
      <point x="1112.328" y="969.376" type="curve" smooth="yes"/>
      <point x="1112.328" y="803.936"/>
      <point x="1030.344" y="735.9599999999999"/>
      <point x="874.6" y="735.9599999999999" type="curve" smooth="yes"/>
      <point x="491.44" y="735.9599999999999" type="line"/>
      <point x="408.76" y="527.384" type="line"/>
      <point x="930.1199999999999" y="527.384" type="line" smooth="yes"/>
      <point x="1312.504" y="527.384"/>
      <point x="1460.56" y="710.624"/>
      <point x="1460.56" y="971.68" type="curve" smooth="yes"/>
      <point x="1460.56" y="1244.4879999999998"/>
      <point x="1305.1760000000002" y="1414.0"/>
      <point x="895.2719999999999" y="1414.0" type="curve" smooth="yes"/>
      <point x="422.75199999999995" y="1414.0" type="line"/>
      <point x="491.44" y="1199.488" type="line"/>
      <point x="834.088" y="1199.488" type="line" smooth="yes"/>
      <point x="1050.408" y="1199.488"/>
      <point x="1112.328" y="1123.936"/>
    </contour>
    <contour>
      <point x="641.024" y="1414.0" type="line"/>
      <point x="103.216" y="1414.0" type="line"/>
      <point x="103.216" y="1295.28" type="line"/>
      <point x="287.344" y="1248.5839999999998" type="line"/>
      <point x="287.344" y="165.416" type="line"/>
      <point x="103.216" y="118.72" type="line"/>
      <point x="103.216" y="0.0" type="line"/>
      <point x="825.152" y="0.0" type="line"/>
      <point x="825.152" y="118.72" type="line"/>
      <point x="641.024" y="165.416" type="line"/>
    </contour>
  </outline>
</glyph>
<glyph name="Q" format="2">
	<unicode hex="0051"/>
	<advance width="1737.672"/>
	<outline>
		<contour>
			<point x="699.656" y="-230.296" type="line" smooth="yes"/>
			<point x="871.792" y="-408.152"/>
			<point x="973.28" y="-465"/>
			<point x="1205.096" y="-465" type="curve" smooth="yes"/>
			<point x="1335.048" y="-465"/>
			<point x="1398.888" y="-455.032"/>
			<point x="1478.064" y="-440.336" type="curve"/>
			<point x="1478.064" y="-278.6" type="line"/>
			<point x="1277.104" y="-294.024"/>
			<point x="1219.136" y="-276.296"/>
			<point x="1043.072" y="-145.44" type="curve" smooth="yes"/>
			<point x="672.584" y="130.088" type="line"/>
			<point x="656.608" y="68.56" type="line"/>
			<point x="1196.912" y="-95.688"/>
			<point x="1630.12" y="214.984"/>
			<point x="1630.12" y="709" type="curve" smooth="yes"/>
			<point x="1630.12" y="1154.504"/>
			<point x="1353.36" y="1438.24"/>
			<point x="882.312" y="1438.24" type="curve" smooth="yes"/>
			<point x="403.088" y="1438.24"/>
			<point x="107.552" y="1153.928"/>
			<point x="107.552" y="705.424" type="curve" smooth="yes"/>
			<point x="107.552" y="460.216"/>
			<point x="191.312" y="281"/>
			<point x="336.56" y="133.848" type="curve" smooth="yes"/>
		</contour>
		<contour>
			<point x="873.384" y="208.056" type="curve" smooth="yes"/>
			<point x="595.592" y="208.056"/>
			<point x="467.112" y="393.44"/>
			<point x="467.112" y="753.416" type="curve" smooth="yes"/>
			<point x="467.112" y="1058.248"/>
			<point x="602.312" y="1213.152"/>
			<point x="864.288" y="1213.152" type="curve" smooth="yes"/>
			<point x="1142.08" y="1213.152"/>
			<point x="1270.56" y="1025.648"/>
			<point x="1270.56" y="661.008" type="curve" smooth="yes"/>
			<point x="1270.56" y="361.264"/>
			<point x="1135.36" y="208.056"/>
		</contour>
	</outline>
	<anchor name="UCtop" x="868.624" y="1414"/>
	<anchor name="bottom" x="881.344" y="-440.76"/>
</glyph>
<glyph name="R" format="2">
	<unicode hex="0052"/>
	<advance width="1676.256"/>
	<outline>
		<contour>
			<point x="922.552" y="784.576" type="curve" smooth="yes"/>
			<point x="459.04" y="784.576" type="line"/>
			<point x="459.04" y="602.712" type="line"/>
			<point x="846.736" y="602.712" type="line" smooth="yes"/>
			<point x="1005.256" y="602.712"/>
			<point x="1039.016" y="566.464"/>
			<point x="1064.504" y="420.184" type="curve" smooth="yes"/>
			<point x="1101.84" y="203.64" type="line" smooth="yes"/>
			<point x="1135.176" y="11.64"/>
			<point x="1203.768" y="-24.112"/>
			<point x="1608.224" y="0" type="curve"/>
			<point x="1608.224" y="146.528" type="line"/>
			<point x="1496.768" y="146.528"/>
			<point x="1473.04" y="162.832"/>
			<point x="1452.128" y="283.592" type="curve" smooth="yes"/>
			<point x="1418.512" y="460.752" type="line" smooth="yes"/>
			<point x="1394.056" y="611.528"/>
			<point x="1335.056" y="682.344"/>
			<point x="1101.464" y="698.312" type="curve"/>
			<point x="1101.464" y="691.28" type="line"/>
			<point x="1369.344" y="722.648"/>
			<point x="1490.784" y="861.216"/>
			<point x="1490.784" y="1059.424" type="curve" smooth="yes"/>
			<point x="1490.784" y="1275.424"/>
			<point x="1366.632" y="1414"/>
			<point x="1002.632" y="1414" type="curve" smooth="yes"/>
			<point x="459.04" y="1414" type="line"/>
			<point x="459.04" y="1199.488" type="line"/>
			<point x="886.344" y="1199.488" type="line" smooth="yes"/>
			<point x="1089.056" y="1199.488"/>
			<point x="1145.552" y="1133.664"/>
			<point x="1145.552" y="992.472" type="curve" smooth="yes"/>
			<point x="1145.552" y="844.672"/>
			<point x="1069.144" y="784.576"/>
		</contour>
		<contour>
			<point x="641.024" y="1414" type="line"/>
			<point x="103.216" y="1414" type="line"/>
			<point x="103.216" y="1295.28" type="line"/>
			<point x="287.344" y="1248.584" type="line"/>
			<point x="287.344" y="165.416" type="line"/>
			<point x="103.216" y="118.72" type="line"/>
			<point x="103.216" y="0" type="line"/>
			<point x="812.432" y="0" type="line"/>
			<point x="812.432" y="118.72" type="line"/>
			<point x="641.024" y="165.416" type="line"/>
		</contour>
	</outline>
	<anchor name="UCtop" x="838.44" y="1414"/>
	<anchor name="bottom" x="909.96" y="0"/>
</glyph>
<glyph name="S" format="2">
  <advance width="1409"/>
  <unicode hex="0053"/>
  <anchor x="680.888" y="1414.0" name="UCtop"/>
  <anchor x="709.368" y="0.0" name="bottom"/>
  <outline>
    <contour>
      <point x="1151.1680000000001" y="1354.7839999999999" type="line"/>
      <point x="1015.84" y="1415.7839999999999"/>
      <point x="896.328" y="1438.24"/>
      <point x="744.8480000000001" y="1438.24" type="curve" smooth="yes"/>
      <point x="354.59999999999997" y="1438.24"/>
      <point x="131.07199999999997" y="1297.52"/>
      <point x="131.07199999999997" y="1013.5360000000001" type="curve" smooth="yes"/>
      <point x="131.07199999999997" y="704.304"/>
      <point x="340.8" y="634.912"/>
      <point x="549.04" y="597.9680000000001" type="curve" smooth="yes"/>
      <point x="757.28" y="561.024"/>
      <point x="968.608" y="555.224"/>
      <point x="968.608" y="375.456" type="curve" smooth="yes"/>
      <point x="968.608" y="230.49599999999998"/>
      <point x="870.2" y="172.00799999999998"/>
      <point x="597.6" y="172.00799999999998" type="curve" smooth="yes"/>
      <point x="446.784" y="172.00799999999998"/>
      <point x="351.848" y="190.464"/>
      <point x="229.184" y="245.616" type="curve"/>
      <point x="497.424" y="37.064" type="line"/>
      <point x="285.632" y="442.304" type="line"/>
      <point x="124.968" y="442.304" type="line"/>
      <point x="173.51999999999998" y="26.063999999999997" type="line"/>
      <point x="315.93600000000004" y="-18.208000000000002"/>
      <point x="446.23199999999997" y="-24.240000000000002"/>
      <point x="620.2239999999999" y="-24.240000000000002" type="curve" smooth="yes"/>
      <point x="1057.248" y="-24.240000000000002"/>
      <point x="1292.848" y="116.536"/>
      <point x="1292.848" y="436.8" type="curve" smooth="yes"/>
      <point x="1292.848" y="776.736"/>
      <point x="1041.0" y="835.3679999999999"/>
      <point x="832.064" y="870.552" type="curve" smooth="yes"/>
      <point x="623.128" y="905.736"/>
      <point x="451.04" y="922.168"/>
      <point x="451.04" y="1077.696" type="curve" smooth="yes"/>
      <point x="451.04" y="1205.408"/>
      <point x="558.352" y="1243.872"/>
      <point x="744.176" y="1243.872" type="curve" smooth="yes"/>
      <point x="871.376" y="1243.872"/>
      <point x="968.4000000000001" y="1223.872"/>
      <point x="1048.344" y="1171.536" type="curve"/>
      <point x="964.84" y="1265.4" type="line"/>
      <point x="1063.92" y="993.176" type="line"/>
      <point x="1236.336" y="993.176" type="line"/>
      <point x="1236.336" y="1495.872" type="line"/>
      <point x="1099.376" y="1495.872" type="line"/>
      <point x="997.96" y="1362.096" type="line"/>
    </contour>
  </outline>
</glyph>
<glyph name="T" format="2">
  <advance width="1630.56"/>
  <unicode hex="0054"/>
  <anchor x="815.28" y="1414.0" name="UCtop"/>
  <anchor x="815.28" y="0.0" name="bottom"/>
  <outline>
    <contour>
      <point x="638.44" y="1353.816" type="line"/>
      <point x="638.44" y="165.416" type="line"/>
      <point x="442.792" y="118.72" type="line"/>
      <point x="442.792" y="0.0" type="line"/>
      <point x="1187.768" y="0.0" type="line"/>
      <point x="1187.768" y="118.72" type="line"/>
      <point x="992.12" y="165.416" type="line"/>
      <point x="992.12" y="1353.816" type="line"/>
    </contour>
    <contour>
      <point x="1343.504" y="1199.488" type="line"/>
      <point x="1256.1280000000002" y="1283.704" type="line"/>
      <point x="1403.448" y="910.9920000000001" type="line"/>
      <point x="1576.192" y="910.9920000000001" type="line"/>
      <point x="1501.8880000000001" y="1508.24" type="line"/>
      <point x="1373.352" y="1508.24" type="line"/>
      <point x="1275.968" y="1379.976" type="line"/>
      <point x="1418.08" y="1414.0" type="line"/>
      <point x="212.056" y="1414.0" type="line"/>
      <point x="354.592" y="1379.976" type="line"/>
      <point x="257.208" y="1508.24" type="line"/>
      <point x="128.672" y="1508.24" type="line"/>
      <point x="54.368" y="910.9920000000001" type="line"/>
      <point x="227.112" y="910.9920000000001" type="line"/>
      <point x="374.432" y="1283.704" type="line"/>
      <point x="287.05600000000004" y="1199.488" type="line"/>
    </contour>
  </outline>
</glyph>
<glyph name="U" format="2">
	<unicode hex="0055"/>
	<advance width="1767.76"/>
	<outline>
		<contour>
			<point x="1305.592" y="548.64" type="line" smooth="yes"/>
			<point x="1305.592" y="326.352"/>
			<point x="1193.368" y="232.592"/>
			<point x="958.144" y="232.592" type="curve" smooth="yes"/>
			<point x="717.52" y="232.592"/>
			<point x="598.208" y="326.056"/>
			<point x="598.208" y="540.232" type="curve" smooth="yes"/>
			<point x="598.208" y="1249.432" type="line"/>
			<point x="782.336" y="1295.28" type="line"/>
			<point x="782.336" y="1414" type="line"/>
			<point x="60.4" y="1414" type="line"/>
			<point x="60.4" y="1295.28" type="line"/>
			<point x="244.528" y="1249.432" type="line"/>
			<point x="244.528" y="524.544" type="line" smooth="yes"/>
			<point x="244.528" y="142.096"/>
			<point x="463.944" y="-24.24"/>
			<point x="907.136" y="-24.24" type="curve" smooth="yes"/>
			<point x="1307.176" y="-24.24"/>
			<point x="1523.928" y="158.608"/>
			<point x="1523.928" y="540.832" type="curve" smooth="yes"/>
			<point x="1523.928" y="1249.432" type="line"/>
			<point x="1708.056" y="1295.28" type="line"/>
			<point x="1708.056" y="1414" type="line"/>
			<point x="1121.464" y="1414" type="line"/>
			<point x="1121.464" y="1295.28" type="line"/>
			<point x="1305.592" y="1249.432" type="line"/>
		</contour>
	</outline>
	<anchor name="UCtop" x="944.12" y="1414"/>
	<anchor name="right" x="1112.296" y="0"/>
	<anchor name="bottom" x="914.12" y="0"/>
	<anchor name="horn" x="1545.656" y="1414"/>
</glyph>
<glyph name="V" format="2">
	<unicode hex="0056"/>
	<advance width="1750.504"/>
	<outline>
		<contour>
			<point x="189" y="1246.888" type="line"/>
			<point x="685.496" y="-11.52" type="line"/>
			<point x="1107.92" y="-11.52" type="line"/>
			<point x="1561.472" y="1255.368" type="line"/>
			<point x="1729.472" y="1295.28" type="line"/>
			<point x="1729.472" y="1414" type="line"/>
			<point x="1153.344" y="1414" type="line"/>
			<point x="1153.344" y="1295.28" type="line"/>
			<point x="1327.048" y="1252.824" type="line"/>
			<point x="951.76" y="133.968" type="line"/>
			<point x="994.824" y="133.968" type="line"/>
			<point x="570.376" y="1255.368" type="line"/>
			<point x="745.352" y="1295.28" type="line"/>
			<point x="745.352" y="1414" type="line"/>
			<point x="3.424" y="1414" type="line"/>
			<point x="3.424" y="1295.28" type="line"/>
		</contour>
	</outline>
	<anchor name="UCtop" x="937.648" y="1414"/>
	<anchor name="bottom" x="896.448" y="0"/>
</glyph>
<glyph name="W" format="2">
  <advance width="2408.36"/>
  <unicode hex="0057"/>
  <anchor x="1271.712" y="1414.0" name="UCtop"/>
  <anchor x="1230.8319999999999" y="0.0" name="bottom"/>
  <outline>
    <contour>
      <point x="1253.48" y="1135.952" type="line"/>
      <point x="1195.928" y="1135.952" type="line"/>
      <point x="1531.584" y="0.0" type="line"/>
      <point x="1948.568" y="0.0" type="line"/>
      <point x="2214.632" y="1256.6399999999999" type="line"/>
      <point x="2382.632" y="1295.28" type="line"/>
      <point x="2382.632" y="1414.0" type="line"/>
      <point x="1823.288" y="1414.0" type="line"/>
      <point x="1823.288" y="1295.28" type="line"/>
      <point x="1984.272" y="1254.096" type="line"/>
      <point x="1778.224" y="85.352" type="line"/>
      <point x="1869.784" y="102.312" type="line"/>
      <point x="1468.6879999999999" y="1414.0" type="line"/>
      <point x="1102.0800000000002" y="1414.0" type="line"/>
      <point x="725.616" y="115.38399999999999" type="line"/>
      <point x="797.416" y="123.44" type="line"/>
      <point x="583.68" y="1256.6399999999999" type="line"/>
      <point x="745.936" y="1295.28" type="line"/>
      <point x="745.936" y="1414.0" type="line"/>
      <point x="19.032" y="1414.0" type="line"/>
      <point x="19.032" y="1295.28" type="line"/>
      <point x="204.03199999999998" y="1248.1599999999999" type="line"/>
      <point x="466.54400000000004" y="0.0" type="line"/>
      <point x="904.312" y="0.0" type="line"/>
    </contour>
  </outline>
</glyph>
<glyph name="X" format="2">
  <advance width="1806"/>
  <unicode hex="0058"/>
  <anchor x="911.5120000000001" y="1414.0" name="UCtop"/>
  <anchor x="894.232" y="0.0" name="bottom"/>
  <outline>
    <contour>
      <point x="861.912" y="642.832" type="line"/>
      <point x="1073.6960000000001" y="652.7280000000001" type="line"/>
      <point x="1545.2559999999999" y="1248.1599999999999" type="line"/>
      <point x="1701.808" y="1295.28" type="line"/>
      <point x="1701.808" y="1414.0" type="line"/>
      <point x="1135.432" y="1414.0" type="line"/>
      <point x="1135.432" y="1295.28" type="line"/>
      <point x="1286.0800000000002" y="1252.3999999999999" type="line"/>
      <point x="954.352" y="813.88" type="line"/>
      <point x="723.8480000000001" y="795.864" type="line"/>
      <point x="209.28" y="165.84" type="line"/>
      <point x="52.728" y="118.72" type="line"/>
      <point x="52.728" y="0.0" type="line"/>
      <point x="641.576" y="0.0" type="line"/>
      <point x="641.576" y="118.72" type="line"/>
      <point x="482.44800000000004" y="161.6" type="line"/>
    </contour>
    <contour>
      <point x="1142.384" y="165.84" type="line"/>
      <point x="977.584" y="118.72" type="line"/>
      <point x="977.584" y="0.0" type="line"/>
      <point x="1781.744" y="0.0" type="line"/>
      <point x="1781.744" y="118.72" type="line"/>
      <point x="1615.744" y="169.232" type="line"/>
      <point x="1083.336" y="803.368" type="line"/>
      <point x="1044.528" y="849.568" type="line"/>
      <point x="713.5759999999999" y="1248.1599999999999" type="line"/>
      <point x="878.376" y="1295.28" type="line"/>
      <point x="878.376" y="1414.0" type="line"/>
      <point x="74.21600000000001" y="1414.0" type="line"/>
      <point x="74.21600000000001" y="1295.28" type="line"/>
      <point x="240.216" y="1244.768" type="line"/>
      <point x="706.688" y="690.264" type="line"/>
      <point x="746.256" y="642.1519999999999" type="line"/>
    </contour>
  </outline>
</glyph>
<glyph name="Z" format="2">
	<unicode hex="005A"/>
	<advance width="1493.728"/>
	<outline>
		<contour>
			<point x="1333.792" y="1414" type="line"/>
			<point x="350.56" y="1414" type="line"/>
			<point x="251.936" y="1492.904" type="line"/>
			<point x="131.184" y="1492.904" type="line"/>
			<point x="131.184" y="943.488" type="line"/>
			<point x="280.512" y="943.488" type="line"/>
			<point x="363.528" y="1199.488" type="line"/>
			<point x="1145.792" y="1199.488" type="line"/>
			<point x="966.648" y="1280" type="line"/>
			<point x="129.24" y="194.512" type="line"/>
			<point x="129.24" y="0" type="line"/>
			<point x="1121.264" y="0" type="line"/>
			<point x="1186.584" y="-85.568" type="line"/>
			<point x="1325.456" y="-85.568" type="line"/>
			<point x="1415.024" y="502.808" type="line"/>
			<point x="1267.88" y="502.808" type="line"/>
			<point x="1110.752" y="214.512" type="line"/>
			<point x="340.984" y="214.512" type="line"/>
			<point x="493.568" y="133" type="line"/>
			<point x="1333.792" y="1219.912" type="line"/>
		</contour>
	</outline>
	<anchor name="UCtop" x="778.416" y="1414"/>
	<anchor name="bottom" x="708.736" y="0"/>
</glyph>
<glyph name="bracketleft" format="2">
  <advance width="836.024"/>
  <unicode hex="005B"/>
  <outline>
    <contour>
      <point x="205.312" y="-219.88" type="line"/>
      <point x="772.992" y="-219.88" type="line"/>
      <point x="772.992" y="-54.720000000000006" type="line"/>
      <point x="474.88" y="-54.720000000000006" type="line"/>
      <point x="474.88" y="1298.84" type="line"/>
      <point x="772.992" y="1298.84" type="line"/>
      <point x="772.992" y="1464.0" type="line"/>
      <point x="205.312" y="1464.0" type="line"/>
    </contour>
  </outline>
</glyph>
<glyph name="backslash" format="2">
  <advance width="946.968"/>
  <unicode hex="005C"/>
  <outline>
    <contour>
      <point x="891.328" y="0.0" type="line"/>
      <point x="300.904" y="1414.0" type="line"/>
      <point x="53.064" y="1414.0" type="line"/>
      <point x="644.064" y="0.0" type="line"/>
    </contour>
  </outline>
</glyph>
<glyph name="bracketright" format="2">
	<unicode hex="005D"/>
	<advance width="836.024"/>
	<outline>
		<contour>
			<point x="630.712" y="1464.576" type="line"/>
			<point x="63.032" y="1464.576" type="line"/>
			<point x="63.032" y="1299.416" type="line"/>
			<point x="361.144" y="1299.416" type="line"/>
			<point x="361.144" y="-54.144" type="line"/>
			<point x="63.032" y="-54.144" type="line"/>
			<point x="63.032" y="-219.304" type="line"/>
			<point x="630.712" y="-219.304" type="line"/>
		</contour>
	</outline>
</glyph>
<glyph name="asciicircum" format="2">
	<unicode hex="005E"/>
	<advance width="1140"/>
	<outline>
		<contour>
			<point x="515.024" y="1280.256" type="line"/>
			<point x="812.424" y="648.848" type="line"/>
			<point x="1036.304" y="648.848" type="line"/>
			<point x="671.456" y="1414" type="line"/>
			<point x="468.392" y="1414" type="line"/>
			<point x="103.696" y="648.848" type="line"/>
			<point x="327.576" y="648.848" type="line"/>
			<point x="624.824" y="1280.256" type="line"/>
		</contour>
	</outline>
</glyph>
<glyph name="a" format="2">
	<unicode hex="0061"/>
	<advance width="1272.288"/>
	<outline>
		<contour>
			<point x="849.272" y="654.064" type="line"/>
			<point x="209.744" y="573.728"/>
			<point x="97.648" y="464.544"/>
			<point x="97.648" y="260.664" type="curve" smooth="yes"/>
			<point x="97.648" y="73.64"/>
			<point x="215.04" y="-24.24"/>
			<point x="429.52" y="-24.24" type="curve" smooth="yes"/>
			<point x="624.912" y="-24.24"/>
			<point x="733.736" y="71.376"/>
			<point x="775.696" y="285.568" type="curve"/>
			<point x="764.728" y="278.784" type="line"/>
			<point x="775.12" y="66.64"/>
			<point x="855.448" y="-21.36"/>
			<point x="1003.92" y="-21.36" type="curve" smooth="yes"/>
			<point x="1093.544" y="-21.36"/>
			<point x="1183.992" y="10.608"/>
			<point x="1258.168" y="64.248" type="curve"/>
			<point x="1258.168" y="175.872" type="line"/>
			<point x="1222.712" y="169.144"/>
			<point x="1193.648" y="165.416"/>
			<point x="1168.736" y="165.416" type="curve" smooth="yes"/>
			<point x="1104.912" y="165.416"/>
			<point x="1072.12" y="189.632"/>
			<point x="1072.12" y="259.88" type="curve" smooth="yes"/>
			<point x="1072.12" y="716.92" type="line" smooth="yes"/>
			<point x="1072.12" y="929.512"/>
			<point x="965.248" y="1056.72"/>
			<point x="664.024" y="1056.72" type="curve" smooth="yes"/>
			<point x="326.416" y="1056.72"/>
			<point x="103.944" y="894.088"/>
			<point x="103.944" y="791.488" type="curve" smooth="yes"/>
			<point x="103.944" y="741.552"/>
			<point x="148.216" y="705.128"/>
			<point x="239.968" y="705.128" type="curve" smooth="yes"/>
			<point x="319.408" y="705.128"/>
			<point x="362.04" y="715.944"/>
			<point x="385.04" y="773.88" type="curve" smooth="yes"/>
			<point x="408.04" y="830.968"/>
			<point x="424.736" y="886.144"/>
			<point x="443.888" y="968.024" type="curve"/>
			<point x="376.368" y="888.664" type="line"/>
			<point x="421.8" y="897.848"/>
			<point x="474.656" y="903.728"/>
			<point x="555.992" y="903.728" type="curve" smooth="yes"/>
			<point x="705.792" y="903.728"/>
			<point x="757.672" y="840.696"/>
			<point x="757.672" y="701.264" type="curve" smooth="yes"/>
			<point x="757.672" y="329.664" type="line" smooth="yes"/>
			<point x="757.672" y="248.136"/>
			<point x="677.232" y="190.216"/>
			<point x="565.248" y="190.216" type="curve" smooth="yes"/>
			<point x="456.512" y="190.216"/>
			<point x="416.016" y="229.192"/>
			<point x="416.016" y="320.256" type="curve" smooth="yes"/>
			<point x="416.016" y="426.112"/>
			<point x="465.568" y="472.24"/>
			<point x="822.2" y="513.16" type="curve"/>
		</contour>
	</outline>
	<anchor name="top" x="610.912" y="1032.48"/>
	<anchor name="right" x="1258.168" y="0"/>
	<anchor name="bottom" x="632.64" y="0"/>
</glyph>
<glyph name="b" format="2">
	<unicode hex="0062"/>
	<advance width="1385.48"/>
	<outline>
		<contour>
			<point x="454.176" y="254.624" type="line"/>
			<point x="502.488" y="42.584"/>
			<point x="627.184" y="-25.968"/>
			<point x="802.648" y="-25.968" type="curve" smooth="yes"/>
			<point x="1092.624" y="-25.968"/>
			<point x="1291.232" y="175.04"/>
			<point x="1291.232" y="556.24" type="curve" smooth="yes"/>
			<point x="1291.232" y="867.056"/>
			<point x="1129.68" y="1056.72"/>
			<point x="832.224" y="1056.72" type="curve" smooth="yes"/>
			<point x="753.8" y="1056.72"/>
			<point x="669.296" y="1031.048"/>
			<point x="413.24" y="877.096" type="curve"/>
			<point x="413.24" y="785.088" type="line"/>
			<point x="501.496" y="818.736"/>
			<point x="600.904" y="837.864"/>
			<point x="688.864" y="837.864" type="curve" smooth="yes"/>
			<point x="881.216" y="837.864"/>
			<point x="971.504" y="743.944"/>
			<point x="971.504" y="528" type="curve" smooth="yes"/>
			<point x="971.504" y="276.232"/>
			<point x="874.64" y="170.88"/>
			<point x="715.28" y="170.88" type="curve" smooth="yes"/>
			<point x="564.744" y="170.88"/>
			<point x="493.608" y="239.376"/>
			<point x="493.608" y="419.32" type="curve" smooth="yes"/>
			<point x="493.608" y="1242.384" type="line"/>
			<point x="516.152" y="1488.24" type="line"/>
			<point x="440.232" y="1488.24" type="line"/>
			<point x="-25.848" y="1406.368" type="line"/>
			<point x="-25.848" y="1304.896" type="line"/>
			<point x="52.152" y="1265.9411304348"/>
			<point x="151.736" y="1218.9129565217"/>
			<point x="177.736" y="1206.12" type="curve"/>
			<point x="177.736" y="293.216" type="line"/>
			<point x="114.248" y="0" type="line"/>
			<point x="354.824" y="0" type="line"/>
			<point x="501.488" y="254.624" type="line"/>
		</contour>
	</outline>
	<anchor name="UCtop" x="721.168" y="1414"/>
	<anchor name="bottom" x="675.232" y="0"/>
</glyph>
<glyph name="c" format="2">
	<unicode hex="0063"/>
	<advance width="1156.208"/>
	<outline>
		<contour>
			<point x="712.296" y="1056.72" type="curve" smooth="yes"/>
			<point x="312.5647058824" y="1056.72"/>
			<point x="90.552" y="839.28"/>
			<point x="90.552" y="500.544" type="curve" smooth="yes"/>
			<point x="90.552" y="158.608"/>
			<point x="294.368" y="-24.24"/>
			<point x="624.832" y="-24.24" type="curve" smooth="yes"/>
			<point x="741.288" y="-24.24"/>
			<point x="880.96" y="25.4"/>
			<point x="1063.96" y="142.656" type="curve"/>
			<point x="1063.96" y="272.4" type="line"/>
			<point x="948.776" y="233.848"/>
			<point x="841.896" y="213.36"/>
			<point x="723.936" y="213.36" type="curve" smooth="yes"/>
			<point x="487.056" y="213.36"/>
			<point x="385.768" y="317.104"/>
			<point x="385.768" y="583.376" type="curve" smooth="yes"/>
			<point x="385.768" y="811.984"/>
			<point x="479.3777123746" y="901.424"/>
			<point x="639.472" y="901.424" type="curve" smooth="yes"/>
			<point x="705.048" y="901.424"/>
			<point x="898.192" y="693.568"/>
			<point x="938.032" y="693.568" type="curve" smooth="yes"/>
			<point x="1013.368" y="693.568"/>
			<point x="1090.264" y="761.264"/>
			<point x="1090.264" y="854.92" type="curve" smooth="yes"/>
			<point x="1090.264" y="958.872"/>
			<point x="999.184" y="1056.72"/>
		</contour>
	</outline>
	<anchor name="top" x="622.2" y="1032.48"/>
	<anchor name="right" x="1074.136" y="0"/>
	<anchor name="bottom" x="613.128" y="0"/>
</glyph>
<glyph name="d" format="2">
	<unicode hex="0064"/>
	<advance width="1419.632"/>
	<outline>
		<contour>
			<point x="890.024" y="662.064" type="curve" smooth="yes"/>
			<point x="890.024" y="198.152" type="line"/>
			<point x="977.744" y="-24.24" type="line"/>
			<point x="1026.344" y="-24.24" type="line"/>
			<point x="1383.112" y="103.032" type="line"/>
			<point x="1383.112" y="165.384" type="line"/>
			<point x="1341.112" y="190.9165217391"/>
			<point x="1229.896" y="257.4819875776"/>
			<point x="1205.896" y="272.072" type="curve"/>
			<point x="1205.896" y="1242.384" type="line"/>
			<point x="1228.44" y="1488.24" type="line"/>
			<point x="1152.52" y="1488.24" type="line"/>
			<point x="686.44" y="1406.368" type="line"/>
			<point x="686.44" y="1304.896" type="line"/>
			<point x="743.44" y="1283.0349880335"/>
			<point x="866.024" y="1236.5246366175"/>
			<point x="890.024" y="1227.32" type="curve"/>
			<point x="890.024" y="922.768" type="line"/>
			<point x="1082.768" y="950.416" type="line"/>
			<point x="944.016" y="1029.992"/>
			<point x="844.168" y="1056.72"/>
			<point x="691.96" y="1056.72" type="curve" smooth="yes"/>
			<point x="351.24" y="1056.72"/>
			<point x="92.4" y="835.144"/>
			<point x="92.4" y="476.24" type="curve" smooth="yes"/>
			<point x="92.4" y="166.152"/>
			<point x="244.16" y="-24.24"/>
			<point x="545.072" y="-24.24" type="curve" smooth="yes"/>
			<point x="624.648" y="-24.24"/>
			<point x="685.536" y="-5.48"/>
			<point x="970.392" y="202.616" type="curve"/>
			<point x="970.392" y="253.152" type="line"/>
			<point x="877.528" y="214.896"/>
			<point x="782.728" y="194.616"/>
			<point x="694.768" y="194.616" type="curve" smooth="yes"/>
			<point x="502.992" y="194.616"/>
			<point x="412.128" y="287.536"/>
			<point x="412.128" y="518.664" type="curve" smooth="yes"/>
			<point x="412.128" y="760.848"/>
			<point x="510.384" y="872.08"/>
			<point x="690.592" y="872.08" type="curve" smooth="yes"/>
			<point x="838.136" y="872.08"/>
			<point x="890.024" y="802.584"/>
		</contour>
	</outline>
	<anchor name="right" x="1206.32" y="1442.8"/>
	<anchor name="UCtop" x="668.256" y="1442.8"/>
	<anchor name="bottom" x="726.736" y="0"/>
	<anchor name="center" x="997.552" y="1185.688"/>
</glyph>
<glyph name="e" format="2">
	<unicode hex="0065"/>
	<advance width="1202.512"/>
	<outline>
		<contour>
			<point x="624.104" y="1056.72" type="curve" smooth="yes"/>
			<point x="289.944" y="1056.72"/>
			<point x="91.976" y="841.6"/>
			<point x="91.976" y="500.544" type="curve" smooth="yes"/>
			<point x="91.976" y="158.608"/>
			<point x="296.064" y="-24.24"/>
			<point x="639.016" y="-24.24" type="curve" smooth="yes"/>
			<point x="761.712" y="-24.24"/>
			<point x="916.656" y="29.368"/>
			<point x="1091.632" y="142.656" type="curve"/>
			<point x="1091.632" y="263.496" type="line"/>
			<point x="992" y="233.704"/>
			<point x="882.696" y="207.424"/>
			<point x="746.456" y="207.424" type="curve" smooth="yes"/>
			<point x="489.872" y="207.424"/>
			<point x="387.192" y="302.648"/>
			<point x="387.192" y="578.016" type="curve" smooth="yes"/>
			<point x="387.192" y="801.272"/>
			<point x="463.088" y="880.68"/>
			<point x="609.776" y="880.68" type="curve" smooth="yes"/>
			<point x="740.272" y="880.68"/>
			<point x="809.072" y="817.608"/>
			<point x="808.56" y="585.16" type="curve"/>
			<point x="877.584" y="630.328" type="line"/>
			<point x="317.272" y="630.328" type="line"/>
			<point x="320.728" y="484.152" type="line"/>
			<point x="1111.928" y="484.152" type="line"/>
			<point x="1102.144" y="875.8"/>
			<point x="964.64" y="1056.72"/>
		</contour>
	</outline>
	<anchor name="top" x="616.648" y="1032.48"/>
	<anchor name="right" x="1091.632" y="0"/>
	<anchor name="bottom" x="637.96" y="0"/>
</glyph>
<glyph name="f" format="2">
	<unicode hex="0066"/>
	<advance width="983.376"/>
	<outline>
		<contour>
			<point x="397.224" y="835.504" type="line"/>
			<point x="939.616" y="835.504" type="line"/>
			<point x="939.616" y="1032.48" type="line"/>
			<point x="399.768" y="1032.48" type="line"/>
			<point x="275.912" y="1060.296" type="line"/>
			<point x="51.496" y="969.488" type="line"/>
			<point x="51.496" y="894.888" type="line"/>
			<point x="259.064" y="810.656" type="line"/>
		</contour>
		<contour>
			<point x="574.936" y="142.784" type="line"/>
			<point x="574.936" y="1135.616" type="line" smooth="yes"/>
			<point x="574.936" y="1257.832"/>
			<point x="631.4" y="1316.232"/>
			<point x="781.168" y="1316.232" type="curve" smooth="yes"/>
			<point x="957.008" y="1316.232"/>
			<point x="999.768" y="1159.056"/>
			<point x="1039.008" y="1159.056" type="curve" smooth="yes"/>
			<point x="1136.752" y="1159.056"/>
			<point x="1197.232" y="1221.44"/>
			<point x="1197.232" y="1304.072" type="curve" smooth="yes"/>
			<point x="1197.232" y="1412.064"/>
			<point x="1124.712" y="1488.24"/>
			<point x="802.992" y="1488.24" type="curve" smooth="yes"/>
			<point x="440.488" y="1488.24"/>
			<point x="259.064" y="1351.512"/>
			<point x="259.064" y="1051.448" type="curve" smooth="yes"/>
			<point x="259.064" y="142.784" type="line"/>
			<point x="111.144" y="105.752" type="line"/>
			<point x="111.144" y="0" type="line"/>
			<point x="743.432" y="0" type="line"/>
			<point x="743.432" y="105.752" type="line"/>
		</contour>
	</outline>
	<anchor name="UCtop" x="732.056" y="1464"/>
	<anchor name="bottom" x="417" y="0"/>
</glyph>
<glyph name="g" format="2">
	<unicode hex="0067"/>
	<advance width="1259.056"/>
	<outline>
		<contour>
			<point x="585.224" y="-465" type="curve" smooth="yes"/>
			<point x="1008.536" y="-465"/>
			<point x="1221.44" y="-332.032"/>
			<point x="1221.44" y="-107.16" type="curve" smooth="yes"/>
			<point x="1221.016" y="103.776"/>
			<point x="1090.984" y="180.048"/>
			<point x="724.76" y="181.624" type="curve" smooth="yes"/>
			<point x="358.536" y="183.2"/>
			<point x="340.984" y="202.96"/>
			<point x="340.984" y="264.176" type="curve" smooth="yes"/>
			<point x="340.984" y="310.696"/>
			<point x="368.2" y="328.272"/>
			<point x="447.32" y="332.304" type="curve"/>
			<point x="444.288" y="362.816" type="line"/>
			<point x="204.424" y="347.208"/>
			<point x="112.28" y="271.12"/>
			<point x="112.28" y="156.56" type="curve" smooth="yes"/>
			<point x="112.28" y="20.96"/>
			<point x="209.096" y="-68.184"/>
			<point x="573.024" y="-68.184" type="curve" smooth="yes"/>
			<point x="936.952" y="-68.184"/>
			<point x="966.048" y="-101.92"/>
			<point x="966.048" y="-179.96" type="curve" smooth="yes"/>
			<point x="966.048" y="-269.792"/>
			<point x="871.704" y="-315.16"/>
			<point x="612.968" y="-315.16" type="curve" smooth="yes"/>
			<point x="392.88" y="-315.16"/>
			<point x="324.72" y="-278.216"/>
			<point x="324.72" y="-184.296" type="curve" smooth="yes"/>
			<point x="324.72" y="-106.592"/>
			<point x="382.72" y="-62.52"/>
			<point x="567.064" y="-60.216" type="curve"/>
			<point x="567.064" y="-45.032" type="line"/>
			<point x="468.376" y="-45.608" type="line"/>
			<point x="152.784" y="-46.032"/>
			<point x="45.632" y="-125.864"/>
			<point x="45.632" y="-240.984" type="curve" smooth="yes"/>
			<point x="45.632" y="-381.72"/>
			<point x="170.096" y="-465"/>
		</contour>
		<contour>
			<point x="577.496" y="321" type="curve" smooth="yes"/>
			<point x="867.544" y="321"/>
			<point x="1048.168" y="445.248"/>
			<point x="1048.168" y="688.36" type="curve" smooth="yes"/>
			<point x="1048.168" y="919.328"/>
			<point x="867.544" y="1056.72"/>
			<point x="577.496" y="1056.72" type="curve" smooth="yes"/>
			<point x="284.992" y="1056.72"/>
			<point x="102.52" y="931.2"/>
			<point x="102.52" y="688.36" type="curve" smooth="yes"/>
			<point x="102.52" y="446.944"/>
			<point x="271.424" y="321"/>
		</contour>
		<contour>
			<point x="584.648" y="481.864" type="curve" smooth="yes"/>
			<point x="450.928" y="481.864"/>
			<point x="393.16" y="536.664"/>
			<point x="393.16" y="687.456" type="curve" smooth="yes"/>
			<point x="393.16" y="850.088"/>
			<point x="469.208" y="904.488"/>
			<point x="575.92" y="904.488" type="curve" smooth="yes"/>
			<point x="706.76" y="904.488"/>
			<point x="762.8" y="849.688"/>
			<point x="762.8" y="698.896" type="curve" smooth="yes"/>
			<point x="762.8" y="536.264"/>
			<point x="689.056" y="481.864"/>
		</contour>
		<contour>
			<point x="761.856" y="931.872" type="line"/>
			<point x="1069.064" y="874.64"/>
			<point x="1157.568" y="858.096"/>
			<point x="1193.784" y="858.096" type="curve" smooth="yes"/>
			<point x="1213.448" y="858.096"/>
			<point x="1224.328" y="888.256"/>
			<point x="1224.328" y="973.88" type="curve" smooth="yes"/>
			<point x="1224.328" y="1029.512"/>
			<point x="1217.448" y="1044"/>
			<point x="1185.728" y="1044" type="curve" smooth="yes"/>
			<point x="1112.128" y="1044"/>
			<point x="886.008" y="1032.48"/>
			<point x="715.848" y="1032.48" type="curve"/>
		</contour>
	</outline>
	<anchor name="top" x="590.528" y="1032.48"/>
	<anchor name="bottom" x="614.768" y="-453.48"/>
</glyph>
<glyph name="h" format="2">
	<unicode hex="0068"/>
	<advance width="1446.864"/>
	<outline>
		<contour>
			<point x="817.168" y="105.752" type="line"/>
			<point x="817.168" y="0" type="line"/>
			<point x="1396.288" y="0" type="line"/>
			<point x="1396.288" y="105.752" type="line"/>
			<point x="1247.368" y="142.784" type="line"/>
			<point x="1247.368" y="734.808" type="line" smooth="yes"/>
			<point x="1247.368" y="943.6"/>
			<point x="1139.432" y="1056.72"/>
			<point x="905.768" y="1056.72" type="curve" smooth="yes"/>
			<point x="789.096" y="1056.72"/>
			<point x="762.608" y="1046.264"/>
			<point x="486.32" y="832.52" type="curve"/>
			<point x="504.016" y="763.84" type="line"/>
			<point x="578.96" y="785.632"/>
			<point x="666.88" y="799.696"/>
			<point x="742.952" y="799.696" type="curve" smooth="yes"/>
			<point x="882.456" y="799.696"/>
			<point x="931.496" y="752.6"/>
			<point x="931.496" y="644.824" type="curve" smooth="yes"/>
			<point x="931.496" y="136.848" type="line"/>
		</contour>
		<contour>
			<point x="639.728" y="0" type="line"/>
			<point x="639.728" y="105.752" type="line"/>
			<point x="525.4" y="136.848" type="line"/>
			<point x="525.4" y="1242.384" type="line"/>
			<point x="547.944" y="1488.24" type="line"/>
			<point x="472.024" y="1488.24" type="line"/>
			<point x="5.944" y="1406.368" type="line"/>
			<point x="5.944" y="1304.896" type="line"/>
			<point x="83.944" y="1265.9939744715"/>
			<point x="183.528" y="1219.0873418428"/>
			<point x="209.528" y="1206.12" type="curve"/>
			<point x="209.528" y="142.784" type="line"/>
			<point x="61.608" y="105.752" type="line"/>
			<point x="61.608" y="0" type="line"/>
		</contour>
	</outline>
	<anchor name="UCtop" x="757.616" y="1464"/>
	<anchor name="bottom" x="721.192" y="0"/>
	<anchor name="center" x="417.872" y="1185.688"/>
</glyph>
<glyph name="i" format="2">
  <advance width="767"/>
  <unicode hex="0069"/>
  <anchor x="394.576" y="1464.0" name="top"/>
  <anchor x="400.736" y="0.0" name="bottom"/>
  <anchor x="561.728" y="0.0" name="right"/>
  <outline>
    <contour>
      <point x="387.096" y="1191.6480000000001" type="curve" smooth="yes"/>
      <point x="524.496" y="1191.6480000000001"/>
      <point x="597.4" y="1241.1599999999999"/>
      <point x="597.4" y="1341.2160000000001" type="curve" smooth="yes"/>
      <point x="597.4" y="1440.848"/>
      <point x="524.496" y="1488.24"/>
      <point x="387.096" y="1488.24" type="curve" smooth="yes"/>
      <point x="249.696" y="1488.24"/>
      <point x="176.792" y="1440.848"/>
      <point x="176.792" y="1341.2160000000001" type="curve" smooth="yes"/>
      <point x="176.792" y="1241.1599999999999"/>
      <point x="249.696" y="1191.6480000000001"/>
    </contour>
    <contour>
      <point x="577.76" y="1056.72" type="line"/>
      <point x="484.14399999999995" y="1056.72" type="line"/>
      <point x="73.24799999999999" y="945.12" type="line"/>
      <point x="73.24799999999999" y="865.8879999999999" type="line"/>
      <point x="134.248" y="823.0045579392983"/>
      <point x="220.8" y="765.1861594317286"/>
      <point x="242.79999999999998" y="749.72" type="curve"/>
      <point x="242.79999999999998" y="142.784" type="line"/>
      <point x="94.88000000000001" y="105.75200000000001" type="line"/>
      <point x="94.88000000000001" y="0.0" type="line"/>
      <point x="701.408" y="0.0" type="line"/>
      <point x="701.408" y="105.75200000000001" type="line"/>
      <point x="558.6719999999999" y="142.784" type="line"/>
      <point x="558.6719999999999" y="770.816" type="line"/>
    </contour>
  </outline>
</glyph>
<glyph name="j" format="2">
	<unicode hex="006A"/>
	<advance width="706.04"/>
	<outline>
		<contour>
			<point x="365.184" y="1191.648" type="curve" smooth="yes"/>
			<point x="502.584" y="1191.648"/>
			<point x="575.488" y="1241.16"/>
			<point x="575.488" y="1341.216" type="curve" smooth="yes"/>
			<point x="575.488" y="1440.848"/>
			<point x="502.584" y="1488.24"/>
			<point x="365.184" y="1488.24" type="curve" smooth="yes"/>
			<point x="227.784" y="1488.24"/>
			<point x="154.88" y="1440.848"/>
			<point x="154.88" y="1341.216" type="curve" smooth="yes"/>
			<point x="154.88" y="1241.16"/>
			<point x="227.784" y="1191.648"/>
		</contour>
		<contour>
			<point x="220.888" y="749.72" type="curve"/>
			<point x="220.888" y="25.648" type="line" smooth="yes"/>
			<point x="220.888" y="-93.648"/>
			<point x="212.736" y="-111.04"/>
			<point x="-17.872" y="-337.808" type="curve"/>
			<point x="76.272" y="-465" type="line"/>
			<point x="485.704" y="-227.904"/>
			<point x="536.76" y="-155.456"/>
			<point x="536.76" y="67.376" type="curve" smooth="yes"/>
			<point x="536.76" y="770.816" type="line"/>
			<point x="555.848" y="1056.72" type="line"/>
			<point x="462.232" y="1056.72" type="line"/>
			<point x="51.336" y="945.12" type="line"/>
			<point x="51.336" y="865.888" type="line"/>
			<point x="112.336" y="823.0045579393"/>
			<point x="198.888" y="765.1861594317"/>
		</contour>
	</outline>
	<anchor name="top" x="371.24" y="1475.52"/>
	<anchor name="bottom" x="335.48" y="-453.48"/>
</glyph>
<glyph name="k" format="2">
	<unicode hex="006B"/>
	<advance width="1445.72"/>
	<outline>
		<contour>
			<point x="766.288" y="535.44" type="line"/>
			<point x="1205.12" y="900.392" type="line"/>
			<point x="1357.992" y="933.848" type="line"/>
			<point x="1357.992" y="1032.48" type="line"/>
			<point x="805.928" y="1032.48" type="line"/>
			<point x="805.928" y="933.848" type="line"/>
			<point x="959.592" y="899.512" type="line"/>
			<point x="701.528" y="664.296" type="line"/>
			<point x="419.376" y="664.296" type="line"/>
			<point x="419.376" y="481.256" type="line"/>
			<point x="683.824" y="481.256" type="line"/>
			<point x="965.824" y="116.976" type="line"/>
			<point x="966.4" y="98.544" type="line"/>
			<point x="966.4" y="0" type="line"/>
			<point x="1430.896" y="0" type="line"/>
			<point x="1430.896" y="98.544" type="line"/>
			<point x="1309.736" y="149.208" type="line"/>
			<point x="872.392" y="710.024" type="line"/>
		</contour>
		<contour>
			<point x="525.4" y="142.784" type="line"/>
			<point x="525.4" y="1242.384" type="line"/>
			<point x="547.944" y="1488.24" type="line"/>
			<point x="472.024" y="1488.24" type="line"/>
			<point x="5.944" y="1406.368" type="line"/>
			<point x="5.944" y="1304.896" type="line"/>
			<point x="83.944" y="1265.9939744715"/>
			<point x="183.528" y="1219.0873418428"/>
			<point x="209.528" y="1206.12" type="curve"/>
			<point x="209.528" y="142.784" type="line"/>
			<point x="61.608" y="105.752" type="line"/>
			<point x="61.608" y="0" type="line"/>
			<point x="668.136" y="0" type="line"/>
			<point x="668.136" y="105.752" type="line"/>
		</contour>
	</outline>
	<anchor name="bottom" x="782.872" y="0"/>
	<anchor name="UCtop" x="725.752" y="1464"/>
</glyph>
<glyph name="l" format="2">
	<unicode hex="006C"/>
	<advance width="734.928"/>
	<outline>
		<contour>
			<point x="527.128" y="142.784" type="line"/>
			<point x="527.128" y="1242.384" type="line"/>
			<point x="549.672" y="1488.24" type="line"/>
			<point x="473.752" y="1488.24" type="line"/>
			<point x="7.672" y="1406.368" type="line"/>
			<point x="7.672" y="1304.896" type="line"/>
			<point x="85.672" y="1265.9939744715"/>
			<point x="185.256" y="1219.0873418428"/>
			<point x="211.256" y="1206.12" type="curve"/>
			<point x="211.256" y="142.784" type="line"/>
			<point x="63.336" y="105.752" type="line"/>
			<point x="63.336" y="0" type="line"/>
			<point x="669.864" y="0" type="line"/>
			<point x="669.864" y="105.752" type="line"/>
		</contour>
	</outline>
	<anchor name="UCtop" x="351.28" y="1464"/>
	<anchor name="right" x="527.128" y="1464"/>
	<anchor name="bottom" x="369.192" y="0"/>
	<anchor name="mid" x="805.304" y="512"/>
</glyph>
<glyph name="m" format="2">
	<unicode hex="006D"/>
	<advance width="2124.096"/>
	<outline>
		<contour>
			<point x="557.368" y="827.456" type="line"/>
			<point x="472.536" y="1059.6" type="line"/>
			<point x="411.64" y="1059.6" type="line"/>
			<point x="71.944" y="933.6" type="line"/>
			<point x="71.944" y="865.888" type="line"/>
			<point x="162.944" y="796.122517328"/>
			<point x="219.496" y="755.0663804262"/>
			<point x="241.496" y="738.2" type="curve"/>
			<point x="241.496" y="142.784" type="line"/>
			<point x="93.576" y="105.752" type="line"/>
			<point x="93.576" y="0" type="line"/>
			<point x="671.272" y="0" type="line"/>
			<point x="671.272" y="105.752" type="line"/>
			<point x="557.368" y="136.848" type="line"/>
		</contour>
		<contour>
			<point x="1240.696" y="758.328" type="line" smooth="yes"/>
			<point x="1240.696" y="965.456"/>
			<point x="1137.9792516129" y="1056.72"/>
			<point x="915.976" y="1056.72" type="curve" smooth="yes"/>
			<point x="805.608" y="1056.72"/>
			<point x="780.272" y="1046.84"/>
			<point x="518.288" y="844.248" type="curve"/>
			<point x="534.984" y="767.568" type="line"/>
			<point x="603.928" y="786.784"/>
			<point x="683.696" y="799.696"/>
			<point x="753.464" y="799.696" type="curve" smooth="yes"/>
			<point x="881.088" y="799.696"/>
			<point x="924.824" y="756.752"/>
			<point x="924.824" y="658.28" type="curve" smooth="yes"/>
			<point x="924.824" y="136.848" type="line"/>
			<point x="810.92" y="105.752" type="line"/>
			<point x="810.92" y="0" type="line"/>
			<point x="1354.6" y="0" type="line"/>
			<point x="1354.6" y="105.752" type="line"/>
			<point x="1240.696" y="136.848" type="line"/>
		</contour>
		<contour>
			<point x="1924.024" y="750.416" type="line" smooth="yes"/>
			<point x="1924.024" y="949.904"/>
			<point x="1820.664" y="1056.72"/>
			<point x="1597.728" y="1056.72" type="curve" smooth="yes"/>
			<point x="1486.36" y="1056.72"/>
			<point x="1461.448" y="1046.84"/>
			<point x="1197.312" y="842.672" type="curve"/>
			<point x="1214.008" y="766.992" type="line"/>
			<point x="1282.952" y="786.208"/>
			<point x="1364.144" y="799.696"/>
			<point x="1434.64" y="799.696" type="curve" smooth="yes"/>
			<point x="1562.84" y="799.696"/>
			<point x="1608.152" y="756.6"/>
			<point x="1608.152" y="657.704" type="curve" smooth="yes"/>
			<point x="1608.152" y="136.848" type="line"/>
			<point x="1494.248" y="105.752" type="line"/>
			<point x="1494.248" y="0" type="line"/>
			<point x="2072.52" y="0" type="line"/>
			<point x="2072.52" y="105.752" type="line"/>
			<point x="1924.024" y="142.784" type="line"/>
		</contour>
	</outline>
	<anchor name="top" x="1082.76" y="1032.48"/>
	<anchor name="bottom" x="1082.76" y="0"/>
</glyph>
<glyph name="n" format="2">
	<unicode hex="006E"/>
	<advance width="1478.832"/>
	<outline>
		<contour>
			<point x="557.368" y="827.456" type="line"/>
			<point x="472.536" y="1059.6" type="line"/>
			<point x="411.64" y="1059.6" type="line"/>
			<point x="71.944" y="933.6" type="line"/>
			<point x="71.944" y="865.888" type="line"/>
			<point x="162.944" y="796.122517328"/>
			<point x="219.496" y="755.0663804262"/>
			<point x="241.496" y="738.2" type="curve"/>
			<point x="241.496" y="142.784" type="line"/>
			<point x="93.576" y="105.752" type="line"/>
			<point x="93.576" y="0" type="line"/>
			<point x="671.272" y="0" type="line"/>
			<point x="671.272" y="105.752" type="line"/>
			<point x="557.368" y="136.848" type="line"/>
		</contour>
		<contour>
			<point x="849.136" y="105.752" type="line"/>
			<point x="849.136" y="0" type="line"/>
			<point x="1428.256" y="0" type="line"/>
			<point x="1428.256" y="105.752" type="line"/>
			<point x="1279.336" y="142.784" type="line"/>
			<point x="1279.336" y="734.808" type="line" smooth="yes"/>
			<point x="1279.336" y="943.6"/>
			<point x="1171.4" y="1056.72"/>
			<point x="937.736" y="1056.72" type="curve" smooth="yes"/>
			<point x="821.064" y="1056.72"/>
			<point x="794.576" y="1046.264"/>
			<point x="518.288" y="832.52" type="curve"/>
			<point x="535.984" y="763.84" type="line"/>
			<point x="610.928" y="785.632"/>
			<point x="698.848" y="799.696"/>
			<point x="774.92" y="799.696" type="curve" smooth="yes"/>
			<point x="914.424" y="799.696"/>
			<point x="963.464" y="752.6"/>
			<point x="963.464" y="644.824" type="curve" smooth="yes"/>
			<point x="963.464" y="136.848" type="line"/>
		</contour>
	</outline>
	<anchor name="top" x="764.128" y="1032.48"/>
	<anchor name="bottom" x="745.856" y="0"/>
</glyph>
<glyph name="o" format="2">
	<unicode hex="006F"/>
	<advance width="1312.368"/>
	<outline>
		<contour>
			<point x="647.44" y="176.64" type="curve" smooth="yes"/>
			<point x="477.504" y="176.64"/>
			<point x="404.944" y="288.2"/>
			<point x="404.944" y="537.696" type="curve" smooth="yes"/>
			<point x="404.944" y="762.496"/>
			<point x="488.72" y="855.84"/>
			<point x="664.928" y="855.84" type="curve" smooth="yes"/>
			<point x="834.864" y="855.84"/>
			<point x="907.424" y="744.28"/>
			<point x="907.424" y="494.784" type="curve" smooth="yes"/>
			<point x="907.424" y="269.984"/>
			<point x="823.648" y="176.64"/>
		</contour>
		<contour>
			<point x="642.232" y="-24.24" type="curve" smooth="yes"/>
			<point x="1005.064" y="-24.24"/>
			<point x="1221.392" y="181.64"/>
			<point x="1221.392" y="519.208" type="curve" smooth="yes"/>
			<point x="1221.392" y="852.384"/>
			<point x="1017.336" y="1056.72"/>
			<point x="670.136" y="1056.72" type="curve" smooth="yes"/>
			<point x="307.304" y="1056.72"/>
			<point x="90.976" y="850.84"/>
			<point x="90.976" y="513.272" type="curve" smooth="yes"/>
			<point x="90.976" y="180.096"/>
			<point x="295.032" y="-24.24"/>
		</contour>
	</outline>
	<anchor name="top" x="656.472" y="1032.48"/>
	<anchor name="bottom" x="656.472" y="0"/>
	<anchor name="horn" x="870.192" y="1032.48"/>
	<anchor name="right" x="860.192" y="0"/>
</glyph>
<glyph name="p" format="2">
	<unicode hex="0070"/>
	<advance width="1425.632"/>
	<outline>
		<contour>
			<point x="1012.656" y="511.872" type="curve" smooth="yes"/>
			<point x="1012.656" y="279.264"/>
			<point x="916.944" y="170.88"/>
			<point x="756.432" y="170.88" type="curve" smooth="yes"/>
			<point x="622.6" y="170.88"/>
			<point x="534.76" y="234.92"/>
			<point x="534.76" y="398.704" type="curve" smooth="yes"/>
			<point x="534.76" y="869.184" type="line"/>
			<point x="449.928" y="1059.6" type="line"/>
			<point x="389.032" y="1059.6" type="line"/>
			<point x="49.336" y="933.6" type="line"/>
			<point x="49.336" y="865.888" type="line"/>
			<point x="123.336" y="809.1556294755"/>
			<point x="192.888" y="758.1329950491"/>
			<point x="218.888" y="738.2" type="curve"/>
			<point x="218.888" y="-297.976" type="line"/>
			<point x="68.088" y="-335.008" type="line"/>
			<point x="68.088" y="-440.76" type="line"/>
			<point x="704.408" y="-440.76" type="line"/>
			<point x="704.408" y="-335.008" type="line"/>
			<point x="534.184" y="-299.128" type="line"/>
			<point x="534.184" y="275.664" type="line"/>
			<point x="518.032" y="275.664" type="line"/>
			<point x="523.792" y="110.944"/>
			<point x="650.104" y="-24.24"/>
			<point x="848.736" y="-24.24" type="curve" smooth="yes"/>
			<point x="1115.928" y="-24.24"/>
			<point x="1332.384" y="185.552"/>
			<point x="1332.384" y="556.24" type="curve" smooth="yes"/>
			<point x="1332.384" y="865.904"/>
			<point x="1172.56" y="1056.72"/>
			<point x="868.768" y="1056.72" type="curve" smooth="yes"/>
			<point x="783.432" y="1056.72"/>
			<point x="700.656" y="1030.472"/>
			<point x="464.76" y="881.704" type="curve"/>
			<point x="464.76" y="790.12" type="line"/>
			<point x="550.136" y="820.464"/>
			<point x="645.512" y="837.864"/>
			<point x="730.016" y="837.864" type="curve" smooth="yes"/>
			<point x="916.032" y="837.864"/>
			<point x="1012.656" y="742.064"/>
		</contour>
	</outline>
	<anchor name="top" x="732.592" y="1032.48"/>
	<anchor name="bottom" x="376.824" y="-440.76"/>
</glyph>
<glyph name="q" format="2">
	<unicode hex="0071"/>
	<advance width="1377.752"/>
	<outline>
		<contour>
			<point x="412.128" y="519.936" type="curve" smooth="yes"/>
			<point x="412.128" y="760.848"/>
			<point x="510.808" y="872.08"/>
			<point x="690.592" y="872.08" type="curve" smooth="yes"/>
			<point x="840.68" y="872.08"/>
			<point x="890.024" y="800.464"/>
			<point x="890.024" y="656.128" type="curve" smooth="yes"/>
			<point x="890.024" y="-299.128" type="line"/>
			<point x="719.8" y="-335.008" type="line"/>
			<point x="719.8" y="-440.76" type="line"/>
			<point x="1356.696" y="-440.76" type="line"/>
			<point x="1356.696" y="-335.008" type="line"/>
			<point x="1205.896" y="-297.976" type="line"/>
			<point x="1205.896" y="808.6" type="line"/>
			<point x="1256.56" y="1029.36" type="line"/>
			<point x="1206.864" y="1060.536" type="line"/>
			<point x="951.504" y="919.832" type="line"/>
			<point x="1057.528" y="910.288" type="line"/>
			<point x="954.144" y="1022.384"/>
			<point x="844.168" y="1056.72"/>
			<point x="691.96" y="1056.72" type="curve" smooth="yes"/>
			<point x="356.752" y="1056.72"/>
			<point x="92.4" y="837.264"/>
			<point x="92.4" y="476.24" type="curve" smooth="yes"/>
			<point x="92.4" y="166.152"/>
			<point x="244.16" y="-24.24"/>
			<point x="545.072" y="-24.24" type="curve" smooth="yes"/>
			<point x="624.648" y="-24.24"/>
			<point x="685.536" y="-5.48"/>
			<point x="970.392" y="202.616" type="curve"/>
			<point x="970.392" y="252.728" type="line"/>
			<point x="872.92" y="213.168"/>
			<point x="778.12" y="194.616"/>
			<point x="694.768" y="194.616" type="curve" smooth="yes"/>
			<point x="502.992" y="194.616"/>
			<point x="412.128" y="288.384"/>
		</contour>
	</outline>
	<anchor name="top" x="700.064" y="1032.48"/>
	<anchor name="bottom" x="1047.96" y="-440.76"/>
</glyph>
<glyph name="r" format="2">
	<unicode hex="0072"/>
	<advance width="1074.112"/>
	<outline>
		<contour>
			<point x="891.64" y="1053.448" type="curve" smooth="yes"/>
			<point x="775.288" y="1053.448"/>
			<point x="703.736" y="1017.872"/>
			<point x="457.232" y="770.928" type="curve"/>
			<point x="489.08" y="721.088" type="line"/>
			<point x="544.416" y="753.968"/>
			<point x="573.12" y="759.272"/>
			<point x="631.024" y="759.272" type="curve" smooth="yes"/>
			<point x="744.192" y="759.272"/>
			<point x="848.672" y="753.512"/>
			<point x="965.872" y="753.512" type="curve" smooth="yes"/>
			<point x="993.84" y="753.512"/>
			<point x="1030.32" y="818.32"/>
			<point x="1030.32" y="914.192" type="curve" smooth="yes"/>
			<point x="1030.32" y="999.456"/>
			<point x="981.776" y="1053.448"/>
		</contour>
		<contour>
			<point x="557.368" y="827.456" type="line"/>
			<point x="472.536" y="1059.6" type="line"/>
			<point x="411.64" y="1059.6" type="line"/>
			<point x="71.944" y="933.6" type="line"/>
			<point x="71.944" y="865.888" type="line"/>
			<point x="145.944" y="809.1556294755"/>
			<point x="215.496" y="758.1329950491"/>
			<point x="241.496" y="738.2" type="curve"/>
			<point x="241.496" y="142.784" type="line"/>
			<point x="93.576" y="105.752" type="line"/>
			<point x="93.576" y="0" type="line"/>
			<point x="723.32" y="0" type="line"/>
			<point x="723.32" y="105.752" type="line"/>
			<point x="557.368" y="144.904" type="line"/>
		</contour>
	</outline>
	<anchor name="top" x="548.176" y="1032.48"/>
	<anchor name="bottom" x="399.432" y="0"/>
</glyph>
<glyph name="s" format="2">
	<unicode hex="0073"/>
	<advance width="1136.328"/>
	<outline>
		<contour>
			<point x="622.584" y="1056.72" type="curve" smooth="yes"/>
			<point x="292.368" y="1056.72"/>
			<point x="110.888" y="945.392"/>
			<point x="110.888" y="731.344" type="curve" smooth="yes"/>
			<point x="110.888" y="548.632"/>
			<point x="207.24" y="474.584"/>
			<point x="408.704" y="438.952" type="curve" smooth="yes"/>
			<point x="610.168" y="403.32"/>
			<point x="748.992" y="405.296"/>
			<point x="748.992" y="274.488" type="curve" smooth="yes"/>
			<point x="748.992" y="182.568"/>
			<point x="674.464" y="137.624"/>
			<point x="485.424" y="137.624" type="curve" smooth="yes"/>
			<point x="404.304" y="137.624"/>
			<point x="302.432" y="145.896"/>
			<point x="237.488" y="164.384" type="curve"/>
			<point x="383.384" y="47.512" type="line"/>
			<point x="236.096" y="324.576" type="line"/>
			<point x="95.792" y="324.576" type="line"/>
			<point x="141.76" y="20.736" type="line"/>
			<point x="229.424" y="-5.632"/>
			<point x="381.328" y="-21.936"/>
			<point x="513.344" y="-21.936" type="curve" smooth="yes"/>
			<point x="881.048" y="-21.936"/>
			<point x="1046.32" y="105.632"/>
			<point x="1046.32" y="326.296" type="curve" smooth="yes"/>
			<point x="1046.32" y="553.64"/>
			<point x="894.056" y="610.504"/>
			<point x="690.472" y="639.136" type="curve" smooth="yes"/>
			<point x="486.888" y="667.768"/>
			<point x="396.496" y="685.704"/>
			<point x="396.496" y="791.056" type="curve" smooth="yes"/>
			<point x="396.496" y="866.336"/>
			<point x="463.384" y="904.856"/>
			<point x="613.152" y="904.856" type="curve" smooth="yes"/>
			<point x="675.704" y="904.856"/>
			<point x="771.312" y="890.4"/>
			<point x="861.104" y="862.336" type="curve"/>
			<point x="706.768" y="985.48" type="line"/>
			<point x="839.848" y="741.72" type="line"/>
			<point x="983.632" y="741.72" type="line"/>
			<point x="954.48" y="1015.776" type="line"/>
			<point x="841.688" y="1044.688"/>
			<point x="743.784" y="1056.72"/>
		</contour>
	</outline>
	<anchor name="top" x="561.136" y="1032.48"/>
	<anchor name="bottom" x="577.104" y="0"/>
</glyph>
<glyph name="t" format="2">
  <advance width="992"/>
  <unicode hex="0074"/>
  <anchor x="604.336" y="0.0" name="bottom"/>
  <anchor x="524.424" y="1535.0" name="right"/>
  <outline>
    <contour>
      <point x="536.9680000000001" y="348.04" type="curve" smooth="yes"/>
      <point x="536.9680000000001" y="1003.416" type="line"/>
      <point x="536.9680000000001" y="1274.0320000000002" type="line"/>
      <point x="440.008" y="1274.0320000000002" type="line"/>
      <point x="323.71170568561877" y="1152.992"/>
      <point x="160.94651505016725" y="1056.9360000000001"/>
      <point x="26.128" y="1011.32" type="curve"/>
      <point x="26.128" y="929.48" type="line"/>
      <point x="221.94400000000002" y="824.328" type="line"/>
      <point x="221.94400000000002" y="251.976" type="line" smooth="yes"/>
      <point x="221.94400000000002" y="67.72"/>
      <point x="347.336" y="-24.24"/>
      <point x="541.7040000000001" y="-24.24" type="curve" smooth="yes"/>
      <point x="642.632" y="-24.24"/>
      <point x="735.48" y="4.336"/>
      <point x="950.024" y="106.36" type="curve"/>
      <point x="950.024" y="225.704" type="line"/>
      <point x="865.24" y="205.824"/>
      <point x="793.544" y="196.368"/>
      <point x="732.576" y="196.368" type="curve" smooth="yes"/>
      <point x="589.64" y="196.368"/>
      <point x="536.9680000000001" y="234.4"/>
    </contour>
    <contour>
      <point x="410.08799999999997" y="835.504" type="line"/>
      <point x="925.0880000000001" y="835.504" type="line"/>
      <point x="925.088" y="1032.48" type="line"/>
      <point x="416.08799999999997" y="1032.48" type="line"/>
    </contour>
  </outline>
</glyph>
<glyph name="u" format="2">
  <advance width="1422"/>
  <unicode hex="0075"/>
  <anchor x="677.4480000000001" y="1032.48" name="top"/>
  <anchor x="1176.2800000000002" y="0.0" name="right"/>
  <anchor x="706.456" y="0.0" name="bottom"/>
  <anchor x="1121.3999999999999" y="1032.48" name="horn"/>
  <outline>
    <contour>
      <point x="520.184" y="374.776" type="curve" smooth="yes"/>
      <point x="520.184" y="881.392" type="line"/>
      <point x="541.76" y="1042.48" type="line"/>
      <point x="33.456" y="1024.0" type="line"/>
      <point x="33.456" y="924.88" type="line"/>
      <point x="204.312" y="839.072" type="line"/>
      <point x="204.312" y="281.79200000000003" type="line" smooth="yes"/>
      <point x="204.312" y="83.304"/>
      <point x="307.096" y="-24.240000000000002"/>
      <point x="529.032" y="-24.240000000000002" type="curve" smooth="yes"/>
      <point x="639.552" y="-24.240000000000002"/>
      <point x="666.312" y="-14.783999999999999"/>
      <point x="928.5999999999999" y="189.384" type="curve"/>
      <point x="911.904" y="265.912" type="line"/>
      <point x="839.992" y="245.848"/>
      <point x="759.2239999999999" y="232.784"/>
      <point x="693.2719999999999" y="232.784" type="curve" smooth="yes"/>
      <point x="566.616" y="232.784"/>
      <point x="520.184" y="273.336"/>
    </contour>
    <contour>
      <point x="974.5120000000001" y="-24.240000000000002" type="line"/>
      <point x="1023.112" y="-24.240000000000002" type="line"/>
      <point x="1379.8799999999999" y="103.03200000000001" type="line"/>
      <point x="1379.8799999999999" y="165.384" type="line"/>
      <point x="1337.88" y="190.91652173913042"/>
      <point x="1226.664" y="257.48198757763976"/>
      <point x="1202.664" y="272.07199999999995" type="curve"/>
      <point x="1202.664" y="875.456" type="line"/>
      <point x="1214.184" y="1038.24" type="line"/>
      <point x="785.416" y="1032.48" type="line"/>
      <point x="785.416" y="933.36" type="line"/>
      <point x="886.792" y="860.696" type="line"/>
      <point x="886.792" y="175.112" type="line"/>
    </contour>
  </outline>
</glyph>
<glyph name="v" format="2">
  <advance width="1397"/>
  <unicode hex="0076"/>
  <anchor x="736.432" y="1032.48" name="top"/>
  <anchor x="708.3199999999999" y="0.0" name="bottom"/>
  <outline>
    <contour>
      <point x="1241.9279999999999" y="895.304" type="line"/>
      <point x="1351.24" y="927.912" type="line"/>
      <point x="1351.24" y="1032.48" type="line"/>
      <point x="900.16" y="1032.48" type="line"/>
      <point x="900.16" y="927.912" type="line"/>
      <point x="1026.0240000000001" y="891.576" type="line"/>
      <point x="745.376" y="128.696" type="line"/>
      <point x="811.024" y="128.696" type="line"/>
      <point x="494.584" y="892.664" type="line"/>
      <point x="629.144" y="927.912" type="line"/>
      <point x="629.144" y="1032.48" type="line"/>
      <point x="15.76" y="1032.48" type="line"/>
      <point x="15.76" y="929.184" type="line"/>
      <point x="152.952" y="880.0" type="line"/>
      <point x="542.392" y="-11.52" type="line"/>
      <point x="874.0079999999999" y="-11.52" type="line"/>
    </contour>
  </outline>
</glyph>
<glyph name="w" format="2">
	<unicode hex="0077"/>
	<advance width="1888.056"/>
	<outline>
		<contour>
			<point x="1531.352" y="891.576" type="line"/>
			<point x="1373.88" y="144.568" type="line"/>
			<point x="1454.744" y="142.448" type="line"/>
			<point x="1161.592" y="1044" type="line"/>
			<point x="869.44" y="1044" type="line"/>
			<point x="573.608" y="147.184" type="line"/>
			<point x="655.056" y="139.128" type="line"/>
			<point x="477.072" y="892.664" type="line"/>
			<point x="600.848" y="927.912" type="line"/>
			<point x="600.848" y="1032.48" type="line"/>
			<point x="22.792" y="1032.48" type="line"/>
			<point x="22.792" y="929.184" type="line"/>
			<point x="159.984" y="880" type="line"/>
			<point x="384.232" y="-11.52" type="line"/>
			<point x="708.368" y="-11.52" type="line"/>
			<point x="1000.936" y="843.712" type="line"/>
			<point x="917.576" y="836.984" type="line"/>
			<point x="1193.592" y="-11.52" type="line"/>
			<point x="1516.88" y="-11.52" type="line"/>
			<point x="1739.768" y="895.304" type="line"/>
			<point x="1842.536" y="927.912" type="line"/>
			<point x="1842.536" y="1032.48" type="line"/>
			<point x="1412.24" y="1032.48" type="line"/>
			<point x="1412.24" y="927.912" type="line"/>
		</contour>
	</outline>
	<anchor name="top" x="981.512" y="1032.48"/>
	<anchor name="bottom" x="955.704" y="0"/>
</glyph>
<glyph name="x" format="2">
  <advance width="1355"/>
  <unicode hex="0078"/>
  <anchor x="697.48" y="1032.48" name="top"/>
  <anchor x="684.76" y="0.0" name="bottom"/>
  <outline>
    <contour>
      <point x="1211.264" y="141.848" type="line"/>
      <point x="822.72" y="595.264" type="line"/>
      <point x="796.0559999999999" y="626.624" type="line"/>
      <point x="563.384" y="905.296" type="line"/>
      <point x="637.688" y="932.576" type="line"/>
      <point x="637.688" y="1032.48" type="line"/>
      <point x="58.72800000000001" y="1032.48" type="line"/>
      <point x="58.72800000000001" y="932.576" type="line"/>
      <point x="178.704" y="890.632" type="line"/>
      <point x="530.312" y="480.848" type="line"/>
      <point x="558.616" y="447.544" type="line"/>
      <point x="826.584" y="127.18399999999998" type="line"/>
      <point x="751.7040000000001" y="99.48" type="line"/>
      <point x="751.7040000000001" y="0.0" type="line"/>
      <point x="1331.24" y="0.0" type="line"/>
      <point x="1331.24" y="99.48" type="line"/>
    </contour>
    <contour>
      <point x="652.4639999999999" y="455.568" type="line"/>
      <point x="838.192" y="495.672" type="line"/>
      <point x="1175.24" y="898.8480000000001" type="line"/>
      <point x="1284.9679999999998" y="932.576" type="line"/>
      <point x="1284.9679999999998" y="1032.48" type="line"/>
      <point x="835.144" y="1032.48" type="line"/>
      <point x="835.144" y="932.576" type="line"/>
      <point x="956.392" y="903.544" type="line"/>
      <point x="697.376" y="582.304" type="line"/>
      <point x="504.43999999999994" y="542.1999999999999" type="line"/>
      <point x="152.976" y="134.784" type="line"/>
      <point x="42.672" y="99.90400000000001" type="line"/>
      <point x="42.672" y="0.0" type="line"/>
      <point x="499.704" y="0.0" type="line"/>
      <point x="499.704" y="99.90400000000001" type="line"/>
      <point x="379.608" y="130.088" type="line"/>
    </contour>
  </outline>
</glyph>
<glyph name="y" format="2">
	<unicode hex="0079"/>
	<advance width="1364.384"/>
	<outline>
		<contour>
			<point x="863.648" y="160.744" type="line"/>
			<point x="499.92" y="892.664" type="line"/>
			<point x="634.48" y="927.912" type="line"/>
			<point x="634.48" y="1032.48" type="line"/>
			<point x="17.432" y="1032.48" type="line"/>
			<point x="17.432" y="929.184" type="line"/>
			<point x="158.864" y="880" type="line"/>
			<point x="652.624" y="-55.192" type="line"/>
		</contour>
		<contour>
			<point x="341.192" y="-465" type="curve" smooth="yes"/>
			<point x="543.328" y="-465"/>
			<point x="670.096" y="-367.432"/>
			<point x="767.544" y="-142.72" type="curve" smooth="yes"/>
			<point x="1216.736" y="895.304" type="line"/>
			<point x="1330.288" y="927.912" type="line"/>
			<point x="1330.288" y="1032.48" type="line"/>
			<point x="875.36" y="1032.48" type="line"/>
			<point x="875.36" y="927.912" type="line"/>
			<point x="1001.224" y="891.576" type="line"/>
			<point x="700.92" y="124.664" type="line"/>
			<point x="658.056" y="60.288" type="line"/>
			<point x="621.024" y="-11.992" type="line" smooth="yes"/>
			<point x="563.344" y="-129.872"/>
			<point x="511.672" y="-186.424"/>
			<point x="402.528" y="-186.424" type="curve" smooth="yes"/>
			<point x="322.664" y="-186.424"/>
			<point x="220.296" y="-163.544"/>
			<point x="185.816" y="-163.544" type="curve" smooth="yes"/>
			<point x="161.968" y="-163.544"/>
			<point x="117.488" y="-224.2"/>
			<point x="117.488" y="-295.072" type="curve" smooth="yes"/>
			<point x="117.488" y="-404.64"/>
			<point x="190.24" y="-465"/>
		</contour>
	</outline>
	<anchor name="top" x="721.032" y="1032.48"/>
	<anchor name="bottom" x="1005.728" y="-108.072"/>
</glyph>
<glyph name="z" format="2">
	<unicode hex="007A"/>
	<advance width="1168.104"/>
	<outline>
		<contour>
			<point x="104.784" y="0" type="line"/>
			<point x="1016.528" y="0" type="line"/>
			<point x="1108.856" y="407.096" type="line"/>
			<point x="989.864" y="407.096" type="line"/>
			<point x="765.64" y="57.928" type="line"/>
			<point x="910.712" y="180.52" type="line"/>
			<point x="293.384" y="180.52" type="line"/>
			<point x="395.528" y="67.928" type="line"/>
			<point x="1056.288" y="906.664" type="line"/>
			<point x="1056.288" y="1032.48" type="line"/>
			<point x="279.296" y="1032.48" type="line"/>
			<point x="224.336" y="1056.72" type="line"/>
			<point x="127.456" y="1056.72" type="line"/>
			<point x="86.008" y="670.016" type="line"/>
			<point x="210.36" y="670.016" type="line"/>
			<point x="373.928" y="1000.784" type="line"/>
			<point x="171.216" y="852.808" type="line"/>
			<point x="867.968" y="852.808" type="line"/>
			<point x="752.064" y="961.128" type="line"/>
			<point x="104.784" y="127.512" type="line"/>
		</contour>
	</outline>
	<anchor name="top" x="601.096" y="1032.48"/>
	<anchor name="bottom" x="578.376" y="0"/>
</glyph>
<glyph name="braceleft" format="2">
	<unicode hex="007B"/>
	<advance width="816.552"/>
	<outline>
		<contour>
			<point x="67.944" y="547.312" type="line"/>
			<point x="142.368" y="545.464" type="line" smooth="yes"/>
			<point x="243.824" y="542.616"/>
			<point x="284.16" y="503.976"/>
			<point x="284.16" y="419.52" type="curve" smooth="yes"/>
			<point x="284.16" y="296.48"/>
			<point x="228.312" y="184.392"/>
			<point x="228.312" y="48.728" type="curve" smooth="yes"/>
			<point x="228.312" y="-86.24"/>
			<point x="327.456" y="-215.848"/>
			<point x="556.936" y="-232.424" type="curve" smooth="yes"/>
			<point x="727.672" y="-244.544" type="line"/>
			<point x="743.064" y="-91.992" type="line"/>
			<point x="656.128" y="-80.72" type="line" smooth="yes"/>
			<point x="551.664" y="-67.416"/>
			<point x="522.328" y="-10.256"/>
			<point x="522.328" y="82.112" type="curve" smooth="yes"/>
			<point x="522.328" y="181.568"/>
			<point x="540.848" y="285.664"/>
			<point x="540.848" y="379.432" type="curve" smooth="yes"/>
			<point x="540.848" y="525.792"/>
			<point x="459.064" y="612.456"/>
			<point x="252.744" y="651.48" type="curve"/>
			<point x="252.744" y="591.64" type="line"/>
			<point x="459.064" y="630.088"/>
			<point x="540.848" y="716.752"/>
			<point x="540.848" y="864.264" type="curve" smooth="yes"/>
			<point x="540.848" y="957.456"/>
			<point x="522.328" y="1062.128"/>
			<point x="522.328" y="1161.008" type="curve" smooth="yes"/>
			<point x="522.328" y="1253.952"/>
			<point x="551.664" y="1310.536"/>
			<point x="656.128" y="1323.84" type="curve" smooth="yes"/>
			<point x="743.064" y="1335.112" type="line"/>
			<point x="727.672" y="1488.24" type="line"/>
			<point x="556.936" y="1476.12" type="line" smooth="yes"/>
			<point x="327.456" y="1459.544"/>
			<point x="228.312" y="1328.784"/>
			<point x="228.312" y="1193.816" type="curve" smooth="yes"/>
			<point x="228.312" y="1059.304"/>
			<point x="284.16" y="947.216"/>
			<point x="284.16" y="824.176" type="curve" smooth="yes"/>
			<point x="284.16" y="739.144"/>
			<point x="243.824" y="700.504"/>
			<point x="142.368" y="697.656" type="curve" smooth="yes"/>
			<point x="67.944" y="695.232" type="line"/>
		</contour>
	</outline>
</glyph>
<glyph name="bar" format="2">
	<unicode hex="007C"/>
	<advance width="631.984"/>
	<outline>
		<contour>
			<point x="206.312" y="-465" type="line"/>
			<point x="425.672" y="-465" type="line"/>
			<point x="425.672" y="1535" type="line"/>
			<point x="206.312" y="1535" type="line"/>
		</contour>
	</outline>
</glyph>
<glyph name="braceright" format="2">
  <advance width="817"/>
  <unicode hex="007D"/>
  <outline>
    <contour>
      <point x="748.6080000000001" y="696.384" type="line"/>
      <point x="674.184" y="698.232" type="line" smooth="yes"/>
      <point x="572.728" y="701.0799999999999"/>
      <point x="532.3919999999999" y="739.72"/>
      <point x="532.3919999999999" y="824.176" type="curve" smooth="yes"/>
      <point x="532.3919999999999" y="947.216"/>
      <point x="588.24" y="1059.3039999999999"/>
      <point x="588.24" y="1194.9679999999998" type="curve" smooth="yes"/>
      <point x="588.24" y="1329.9360000000001"/>
      <point x="489.096" y="1459.544"/>
      <point x="259.616" y="1476.1200000000001" type="curve" smooth="yes"/>
      <point x="88.88000000000001" y="1488.24" type="line"/>
      <point x="73.488" y="1335.6879999999999" type="line"/>
      <point x="160.42399999999998" y="1324.4160000000002" type="line" smooth="yes"/>
      <point x="264.88800000000003" y="1311.112"/>
      <point x="294.224" y="1253.952"/>
      <point x="294.224" y="1161.584" type="curve" smooth="yes"/>
      <point x="294.224" y="1062.128"/>
      <point x="275.704" y="958.032"/>
      <point x="275.704" y="864.264" type="curve" smooth="yes"/>
      <point x="275.704" y="717.904"/>
      <point x="357.488" y="631.24"/>
      <point x="563.808" y="592.216" type="curve"/>
      <point x="563.808" y="652.0559999999999" type="line"/>
      <point x="357.488" y="613.608"/>
      <point x="275.704" y="526.9440000000001"/>
      <point x="275.704" y="379.43199999999996" type="curve" smooth="yes"/>
      <point x="275.704" y="286.24"/>
      <point x="294.224" y="181.568"/>
      <point x="294.224" y="82.68799999999999" type="curve" smooth="yes"/>
      <point x="294.224" y="-10.256"/>
      <point x="264.88800000000003" y="-66.84"/>
      <point x="160.42399999999998" y="-80.144" type="curve" smooth="yes"/>
      <point x="73.488" y="-91.416" type="line"/>
      <point x="88.88000000000001" y="-244.544" type="line"/>
      <point x="259.616" y="-232.424" type="line" smooth="yes"/>
      <point x="489.096" y="-215.848"/>
      <point x="588.24" y="-85.088"/>
      <point x="588.24" y="49.88" type="curve" smooth="yes"/>
      <point x="588.24" y="184.392"/>
      <point x="532.3919999999999" y="296.48"/>
      <point x="532.3919999999999" y="419.52000000000004" type="curve" smooth="yes"/>
      <point x="532.3919999999999" y="504.552"/>
      <point x="572.728" y="543.1919999999999"/>
      <point x="674.184" y="546.04" type="curve" smooth="yes"/>
      <point x="748.6080000000001" y="548.4639999999999" type="line"/>
    </contour>
  </outline>
</glyph>
<glyph name="asciitilde" format="2">
	<unicode hex="007E"/>
	<advance width="1140"/>
	<outline>
		<contour>
			<point x="125.688" y="350.736" type="curve"/>
			<point x="329.632" y="350.736" type="line"/>
			<point x="334.512" y="447.8"/>
			<point x="361.848" y="490.136"/>
			<point x="429.976" y="490.136" type="curve" smooth="yes"/>
			<point x="525.44" y="490.136"/>
			<point x="582.56" y="338.888"/>
			<point x="767.104" y="338.888" type="curve" smooth="yes"/>
			<point x="925.944" y="338.888"/>
			<point x="1015.856" y="442.848"/>
			<point x="1016.312" y="686.504" type="curve"/>
			<point x="812.368" y="686.504" type="line"/>
			<point x="807.488" y="588.44"/>
			<point x="780.152" y="547.104"/>
			<point x="712.024" y="547.104" type="curve" smooth="yes"/>
			<point x="616.56" y="547.104"/>
			<point x="559.44" y="697.776"/>
			<point x="374.896" y="697.776" type="curve" smooth="yes"/>
			<point x="216.056" y="697.776"/>
			<point x="126.144" y="594.392"/>
		</contour>
	</outline>
</glyph>
<glyph name="exclamdown" format="2">
	<unicode hex="00A1"/>
	<advance width="674.272"/>
	<outline>
		<contour>
			<point x="145.328" y="-326.504" type="line" smooth="yes"/>
			<point x="143.632" y="-376.736"/>
			<point x="170.752" y="-404.336"/>
			<point x="337.136" y="-404.336" type="curve" smooth="yes"/>
			<point x="502.672" y="-404.336"/>
			<point x="530.64" y="-376.736"/>
			<point x="528.944" y="-326.504" type="curve" smooth="yes"/>
			<point x="526.824" y="-247.992" type="line" smooth="yes"/>
			<point x="523.856" y="-171.256"/>
			<point x="454.232" y="342.84"/>
			<point x="433.904" y="542.36" type="curve"/>
			<point x="240.368" y="542.36" type="line"/>
			<point x="220.616" y="342.84"/>
			<point x="150.416" y="-171.256"/>
			<point x="147.448" y="-247.992" type="curve" smooth="yes"/>
		</contour>
		<contour>
			<point x="337.136" y="685.904" type="curve" smooth="yes"/>
			<point x="461.816" y="685.904"/>
			<point x="536.536" y="749.656"/>
			<point x="536.536" y="865.768" type="curve" smooth="yes"/>
			<point x="536.536" y="984"/>
			<point x="461.816" y="1049.024"/>
			<point x="337.136" y="1049.024" type="curve" smooth="yes"/>
			<point x="212.456" y="1049.024"/>
			<point x="137.736" y="984"/>
			<point x="137.736" y="865.768" type="curve" smooth="yes"/>
			<point x="137.736" y="749.656"/>
			<point x="212.456" y="685.904"/>
		</contour>
	</outline>
</glyph>
<glyph name="currency" format="2">
  <advance width="1165"/>
  <unicode hex="00A4"/>
  <outline>
    <contour>
      <point x="276.704" y="960.072" type="line"/>
      <point x="140.448" y="824.392" type="line"/>
      <point x="307.44" y="657.4" type="line"/>
      <point x="443.696" y="793.08" type="line"/>
    </contour>
    <contour>
      <point x="140.448" y="211.848" type="line"/>
      <point x="276.704" y="76.168" type="line"/>
      <point x="454.512" y="253.976" type="line"/>
      <point x="318.832" y="390.23199999999997" type="line"/>
    </contour>
    <contour>
      <point x="582.976" y="886.288" type="curve" smooth="yes"/>
      <point x="358.016" y="886.288"/>
      <point x="208.95999999999998" y="740.656"/>
      <point x="208.95999999999998" y="519.12" type="curve" smooth="yes"/>
      <point x="208.95999999999998" y="297.008"/>
      <point x="358.016" y="151.376"/>
      <point x="582.976" y="151.376" type="curve" smooth="yes"/>
      <point x="807.36" y="151.376"/>
      <point x="956.4159999999999" y="297.008"/>
      <point x="956.4159999999999" y="519.12" type="curve" smooth="yes"/>
      <point x="956.4159999999999" y="740.656"/>
      <point x="807.36" y="886.288"/>
    </contour>
    <contour>
      <point x="582.976" y="316.296" type="curve" smooth="yes"/>
      <point x="462.216" y="316.296"/>
      <point x="381.304" y="397.056"/>
      <point x="381.304" y="519.12" type="curve" smooth="yes"/>
      <point x="381.304" y="640.6080000000001"/>
      <point x="462.216" y="721.368"/>
      <point x="582.976" y="721.368" type="curve" smooth="yes"/>
      <point x="703.16" y="721.368"/>
      <point x="784.072" y="640.6080000000001"/>
      <point x="784.072" y="519.12" type="curve" smooth="yes"/>
      <point x="784.072" y="397.056"/>
      <point x="703.16" y="316.296"/>
    </contour>
    <contour>
      <point x="1024.9279999999999" y="824.392" type="line"/>
      <point x="888.6719999999999" y="960.072" type="line"/>
      <point x="716.9839999999999" y="788.384" type="line"/>
      <point x="852.664" y="652.704" type="line"/>
    </contour>
    <contour>
      <point x="1024.9279999999999" y="211.848" type="line"/>
      <point x="857.9359999999999" y="378.84" type="line"/>
      <point x="721.68" y="243.16" type="line"/>
      <point x="888.6719999999999" y="76.168" type="line"/>
    </contour>
  </outline>
</glyph>
<glyph name="brokenbar" format="2">
	<unicode hex="00A6"/>
	<advance width="631.984"/>
	<outline>
		<contour>
			<point x="425.672" y="753.8" type="line"/>
			<point x="425.672" y="1535" type="line"/>
			<point x="206.312" y="1535" type="line"/>
			<point x="206.312" y="753.8" type="line"/>
		</contour>
		<contour>
			<point x="206.312" y="-465" type="line"/>
			<point x="425.672" y="-465" type="line"/>
			<point x="425.672" y="316.2" type="line"/>
			<point x="206.312" y="316.2" type="line"/>
		</contour>
	</outline>
</glyph>
<glyph name="section" format="2">
  <advance width="1401.328"/>
  <unicode hex="00A7"/>
  <outline>
    <contour>
      <point x="629.0" y="-244.696" type="curve" smooth="yes"/>
      <point x="1057.568" y="-244.696"/>
      <point x="1202.744" y="-106.42399999999999"/>
      <point x="1202.744" y="93.048" type="curve" smooth="yes"/>
      <point x="1202.744" y="590.48"/>
      <point x="396.248" y="319.64000000000004"/>
      <point x="396.248" y="604.36" type="curve" smooth="yes"/>
      <point x="396.248" y="713.5519999999999"/>
      <point x="492.616" y="776.2959999999999"/>
      <point x="696.184" y="781.84" type="curve"/>
      <point x="551.16" y="824.872" type="line"/>
      <point x="238.584" y="823.872"/>
      <point x="98.064" y="715.472"/>
      <point x="98.064" y="498.536" type="curve" smooth="yes"/>
      <point x="98.064" y="70.656"/>
      <point x="900.1999999999999" y="280.656"/>
      <point x="900.1999999999999" y="35.968" type="curve" smooth="yes"/>
      <point x="900.1999999999999" y="-36.952"/>
      <point x="837.16" y="-77.504"/>
      <point x="668.0" y="-77.504" type="curve" smooth="yes"/>
      <point x="456.72" y="-77.504"/>
      <point x="362.808" y="69.136"/>
      <point x="335.536" y="69.136" type="curve" smooth="yes"/>
      <point x="256.088" y="69.136"/>
      <point x="190.512" y="14.776"/>
      <point x="190.512" y="-60.672" type="curve" smooth="yes"/>
      <point x="190.512" y="-175.304"/>
      <point x="277.48" y="-244.696"/>
    </contour>
    <contour>
      <point x="1004.656" y="589.184" type="curve" smooth="yes"/>
      <point x="1004.656" y="479.992"/>
      <point x="908.8639999999999" y="417.24800000000005"/>
      <point x="705.2959999999999" y="411.704" type="curve"/>
      <point x="849.744" y="368.672" type="line"/>
      <point x="1162.32" y="369.672"/>
      <point x="1302.84" y="478.072"/>
      <point x="1302.84" y="695.008" type="curve" smooth="yes"/>
      <point x="1302.84" y="1122.888"/>
      <point x="501.28" y="912.8879999999999"/>
      <point x="501.28" y="1157.576" type="curve" smooth="yes"/>
      <point x="501.28" y="1230.496"/>
      <point x="563.744" y="1271.048"/>
      <point x="732.904" y="1271.048" type="curve" smooth="yes"/>
      <point x="944.76" y="1271.048"/>
      <point x="1038.096" y="1124.408"/>
      <point x="1065.368" y="1124.408" type="curve" smooth="yes"/>
      <point x="1145.392" y="1124.408"/>
      <point x="1210.392" y="1178.768"/>
      <point x="1210.392" y="1254.2160000000001" type="curve" smooth="yes"/>
      <point x="1210.392" y="1368.848"/>
      <point x="1123.424" y="1438.24"/>
      <point x="771.904" y="1438.24" type="curve" smooth="yes"/>
      <point x="343.336" y="1438.24"/>
      <point x="198.16000000000003" y="1299.968"/>
      <point x="198.16000000000003" y="1100.4959999999999" type="curve" smooth="yes"/>
      <point x="198.16000000000003" y="603.064"/>
      <point x="1004.656" y="873.904"/>
    </contour>
  </outline>
</glyph>
<glyph name="copyright" format="2">
	<unicode hex="00A9"/>
	<advance width="1725.152"/>
	<outline>
		<contour>
			<point x="862.576" y="1438.24" type="curve" smooth="yes"/>
			<point x="396.248" y="1438.24"/>
			<point x="123.912" y="1174.088"/>
			<point x="123.912" y="707" type="curve" smooth="yes"/>
			<point x="123.912" y="239.912"/>
			<point x="396.248" y="-24.24"/>
			<point x="862.576" y="-24.24" type="curve" smooth="yes"/>
			<point x="1328.904" y="-24.24"/>
			<point x="1601.816" y="239.912"/>
			<point x="1601.816" y="707" type="curve" smooth="yes"/>
			<point x="1601.816" y="1174.088"/>
			<point x="1328.904" y="1438.24"/>
		</contour>
		<contour>
			<point x="862.576" y="1322.392" type="curve" smooth="yes"/>
			<point x="1250.12" y="1322.392"/>
			<point x="1472.152" y="1105.424"/>
			<point x="1472.152" y="707" type="curve" smooth="yes"/>
			<point x="1472.152" y="308.576"/>
			<point x="1250.12" y="91.608"/>
			<point x="862.576" y="91.608" type="curve" smooth="yes"/>
			<point x="475.608" y="91.608"/>
			<point x="253.576" y="308.576"/>
			<point x="253.576" y="707" type="curve" smooth="yes"/>
			<point x="253.576" y="1105.424"/>
			<point x="475.608" y="1322.392"/>
		</contour>
		<contour>
			<point x="959.504" y="430.864" type="curve"/>
			<point x="775.072" y="430.864"/>
			<point x="677.456" y="510.536"/>
			<point x="677.456" y="707.816" type="curve" smooth="yes"/>
			<point x="677.456" y="911.16"/>
			<point x="763.68" y="985.592"/>
			<point x="926.448" y="985.592" type="curve" smooth="yes"/>
			<point x="1013.512" y="985.592"/>
			<point x="1074.664" y="970.016"/>
			<point x="1142.12" y="930.864" type="curve"/>
			<point x="1062.192" y="1035.888" type="line"/>
			<point x="1123.88" y="824.072" type="line"/>
			<point x="1215.688" y="824.072" type="line"/>
			<point x="1215.688" y="1140" type="line"/>
			<point x="1142.968" y="1140" type="line"/>
			<point x="1085.976" y="1064.304" type="line"/>
			<point x="1150.76" y="1084.816" type="line"/>
			<point x="1076.368" y="1109.696"/>
			<point x="995.912" y="1123"/>
			<point x="910.12" y="1123" type="curve" smooth="yes"/>
			<point x="599.648" y="1123"/>
			<point x="441.584" y="953.672"/>
			<point x="441.584" y="697.216" type="curve" smooth="yes"/>
			<point x="441.584" y="426.576"/>
			<point x="596.464" y="301"/>
			<point x="912.848" y="301" type="curve" smooth="yes"/>
			<point x="1015.208" y="301"/>
			<point x="1104.056" y="315.728"/>
			<point x="1188.688" y="344.424" type="curve"/>
			<point x="1220.84" y="582.08" type="line"/>
			<point x="1135.728" y="582.08" type="line"/>
			<point x="1045.976" y="368.416" type="line"/>
			<point x="1136.904" y="465.744" type="line"/>
			<point x="1081.752" y="441.864"/>
			<point x="1012.384" y="430.864"/>
		</contour>
	</outline>
</glyph>
<glyph name="ordfeminine" format="2">
  <advance width="1051.456"/>
  <unicode hex="00AA"/>
  <outline>
    <contour>
      <point x="148.672" y="468.448" type="line"/>
      <point x="917.688" y="468.448" type="line"/>
      <point x="917.688" y="632.16" type="line"/>
      <point x="148.672" y="632.16" type="line"/>
    </contour>
    <contour>
      <point x="610.824" y="1080.28" type="curve"/>
      <point x="610.8240000000001" y="1184.28" type="line"/>
      <point x="229.032" y="1127.456"/>
      <point x="146.16000000000003" y="1070.3039999999999"/>
      <point x="146.16000000000003" y="934.096" type="curve" smooth="yes"/>
      <point x="146.16000000000003" y="812.432"/>
      <point x="221.704" y="751.4639999999999"/>
      <point x="374.096" y="751.4639999999999" type="curve" smooth="yes"/>
      <point x="508.336" y="751.4639999999999"/>
      <point x="574.736" y="805.312"/>
      <point x="609.8240000000001" y="955.792" type="curve"/>
      <point x="596.9440000000001" y="951.552" type="line"/>
      <point x="600.608" y="808.128"/>
      <point x="647.872" y="754.344"/>
      <point x="753.5600000000001" y="754.344" type="curve" smooth="yes"/>
      <point x="811.768" y="754.344"/>
      <point x="867.944" y="768.312"/>
      <point x="928.272" y="796.2479999999999" type="curve"/>
      <point x="928.272" y="883.216" type="line"/>
      <point x="901.272" y="876.336"/>
      <point x="888.9680000000001" y="874.76"/>
      <point x="875.36" y="874.76" type="curve" smooth="yes"/>
      <point x="834.904" y="874.76"/>
      <point x="821.4799999999999" y="888.336"/>
      <point x="821.4799999999999" y="940.768" type="curve" smooth="yes"/>
      <point x="821.4799999999999" y="1203.488" type="line" smooth="yes"/>
      <point x="821.4799999999999" y="1367.0"/>
      <point x="746.672" y="1438.816"/>
      <point x="546.528" y="1438.816" type="curve" smooth="yes"/>
      <point x="348.056" y="1438.816"/>
      <point x="157.704" y="1344.512"/>
      <point x="157.704" y="1260.0320000000002" type="curve" smooth="yes"/>
      <point x="157.704" y="1226.944"/>
      <point x="186.368" y="1208.248"/>
      <point x="243.576" y="1208.248" type="curve" smooth="yes"/>
      <point x="308.56800000000004" y="1208.248"/>
      <point x="328.84000000000003" y="1222.944"/>
      <point x="348.384" y="1252.76" type="curve" smooth="yes"/>
      <point x="366.232" y="1280.032"/>
      <point x="376.808" y="1318.0320000000002"/>
      <point x="389.808" y="1378.664" type="curve"/>
      <point x="332.952" y="1306.792" type="line"/>
      <point x="377.23199999999997" y="1317.856"/>
      <point x="411.72" y="1322.3120000000001"/>
      <point x="457.48" y="1322.3120000000001" type="curve" smooth="yes"/>
      <point x="555.64" y="1322.3120000000001"/>
      <point x="588.976" y="1283.128"/>
      <point x="588.976" y="1200.0320000000002" type="curve" smooth="yes"/>
      <point x="588.976" y="985.824" type="line" smooth="yes"/>
      <point x="588.976" y="930.512"/>
      <point x="550.904" y="893.232"/>
      <point x="473.56" y="893.232" type="curve" smooth="yes"/>
      <point x="398.096" y="893.232"/>
      <point x="372.88" y="914.568"/>
      <point x="372.88" y="967.6" type="curve" smooth="yes"/>
      <point x="372.88" y="1030.24"/>
      <point x="413.096" y="1055.152"/>
    </contour>
  </outline>
</glyph>
<glyph name="guillemotleft" format="2">
	<unicode hex="00AB"/>
	<advance width="1356.264"/>
	<outline>
		<contour>
			<point x="384.32" y="566.448" type="line"/>
			<point x="384.32" y="477.552" type="line"/>
			<point x="678.48" y="900.664" type="line"/>
			<point x="547.472" y="1021.584" type="line"/>
			<point x="92.672" y="619.376" type="line"/>
			<point x="92.672" y="424.624" type="line"/>
			<point x="547.472" y="22.416" type="line"/>
			<point x="678.48" y="143.336" type="line"/>
		</contour>
		<contour>
			<point x="966.4" y="566.448" type="line"/>
			<point x="966.4" y="477.552" type="line"/>
			<point x="1260.56" y="900.664" type="line"/>
			<point x="1129.552" y="1021.584" type="line"/>
			<point x="674.752" y="619.376" type="line"/>
			<point x="674.752" y="424.624" type="line"/>
			<point x="1129.552" y="22.416" type="line"/>
			<point x="1260.56" y="143.336" type="line"/>
		</contour>
	</outline>
</glyph>
<glyph name="logicalnot" format="2">
  <advance width="1140.0"/>
  <unicode hex="00AC"/>
  <outline>
    <contour>
      <point x="106.024" y="814.168" type="line"/>
      <point x="106.024" y="608.952" type="line"/>
      <point x="1016.28" y="608.952" type="line"/>
      <point x="1016.28" y="814.168" type="line"/>
    </contour>
    <contour>
      <point x="1016.28" y="738.448" type="line"/>
      <point x="811.064" y="738.448" type="line"/>
      <point x="811.064" y="218.888" type="line"/>
      <point x="1016.28" y="218.888" type="line"/>
    </contour>
  </outline>
</glyph>
<glyph name="registered" format="2">
  <advance width="1229"/>
  <unicode hex="00AE"/>
  <outline>
    <contour>
      <point x="612.0719999999999" y="1438.24" type="curve" smooth="yes"/>
      <point x="299.99312977099237" y="1438.24"/>
      <point x="125.304" y="1275.336"/>
      <point x="125.304" y="984.528" type="curve" smooth="yes"/>
      <point x="125.304" y="693.72"/>
      <point x="299.99312977099237" y="530.816"/>
      <point x="612.0719999999999" y="530.816" type="curve" smooth="yes"/>
      <point x="927.730303030303" y="530.816"/>
      <point x="1103.416" y="693.72"/>
      <point x="1103.416" y="984.528" type="curve" smooth="yes"/>
      <point x="1103.416" y="1275.336"/>
      <point x="927.730303030303" y="1438.24"/>
    </contour>
    <contour>
      <point x="612.0719999999999" y="1344.0639999999999" type="curve" smooth="yes"/>
      <point x="878.184" y="1344.0639999999999"/>
      <point x="992.88" y="1216.5699310344828"/>
      <point x="992.88" y="984.528" type="curve" smooth="yes"/>
      <point x="992.88" y="752.4914351585014"/>
      <point x="878.184" y="625.568"/>
      <point x="612.0719999999999" y="625.568" type="curve" smooth="yes"/>
      <point x="347.112" y="625.568"/>
      <point x="236.416" y="752.4914351585014"/>
      <point x="236.416" y="984.528" type="curve" smooth="yes"/>
      <point x="236.416" y="1216.5699310344828"/>
      <point x="347.112" y="1344.0639999999999"/>
    </contour>
    <contour>
      <point x="497.98400000000004" y="1023.768" type="line"/>
      <point x="501.44" y="961.136" type="line"/>
      <point x="615.44" y="961.136" type="line" smooth="yes"/>
      <point x="660.56" y="961.136"/>
      <point x="670.2879999999999" y="954.712"/>
      <point x="677.712" y="913.0160000000001" type="curve" smooth="yes"/>
      <point x="688.288" y="841.744" type="line" smooth="yes"/>
      <point x="697.288" y="779.776"/>
      <point x="734.376" y="766.2"/>
      <point x="879.032" y="778.896" type="curve"/>
      <point x="879.032" y="832.832" type="line"/>
      <point x="841.88" y="832.832"/>
      <point x="833.88" y="837.832"/>
      <point x="829.88" y="873.5279999999999" type="curve" smooth="yes"/>
      <point x="824.152" y="917.2879999999999" type="line" smooth="yes"/>
      <point x="818.1519999999999" y="967.6800000000001"/>
      <point x="794.336" y="988.68"/>
      <point x="725.8240000000001" y="992.6800000000001" type="curve"/>
      <point x="724.096" y="991.1039999999999" type="line"/>
      <point x="808.76" y="996.832"/>
      <point x="847.424" y="1036.952"/>
      <point x="847.424" y="1106.464" type="curve" smooth="yes"/>
      <point x="847.424" y="1184.128"/>
      <point x="799.456" y="1219.976"/>
      <point x="689.88" y="1219.976" type="curve" smooth="yes"/>
      <point x="495.10400000000004" y="1219.976" type="line"/>
      <point x="497.98400000000004" y="1137.68" type="line"/>
      <point x="648.096" y="1137.68" type="line" smooth="yes"/>
      <point x="695.2239999999999" y="1137.68"/>
      <point x="709.528" y="1121.104"/>
      <point x="709.528" y="1080.952" type="curve" smooth="yes"/>
      <point x="709.528" y="1041.4959999999999"/>
      <point x="690.072" y="1023.768"/>
      <point x="648.008" y="1023.768" type="curve" smooth="yes"/>
    </contour>
    <contour>
      <point x="432.84000000000003" y="1166.8880000000001" type="line"/>
      <point x="432.84000000000003" y="832.408" type="line"/>
      <point x="376.84" y="818.8639999999999" type="line"/>
      <point x="376.84" y="778.896" type="line"/>
      <point x="619.9200000000001" y="778.896" type="line"/>
      <point x="619.9200000000001" y="818.8639999999999" type="line"/>
      <point x="575.432" y="832.408" type="line"/>
      <point x="575.432" y="1219.976" type="line"/>
      <point x="376.84" y="1219.976" type="line"/>
      <point x="376.84" y="1179.008" type="line"/>
    </contour>
  </outline>
</glyph>
<glyph name="degree" format="2">
	<unicode hex="00B0"/>
	<advance width="777.256"/>
	<outline>
		<contour>
			<point x="388.128" y="1434" type="curve" smooth="yes"/>
			<point x="216.128" y="1434"/>
			<point x="92.128" y="1313"/>
			<point x="92.128" y="1140" type="curve" smooth="yes"/>
			<point x="92.128" y="967"/>
			<point x="216.128" y="846"/>
			<point x="388.128" y="846" type="curve" smooth="yes"/>
			<point x="561.128" y="846"/>
			<point x="685.128" y="967"/>
			<point x="685.128" y="1140" type="curve" smooth="yes"/>
			<point x="685.128" y="1313"/>
			<point x="561.128" y="1434"/>
		</contour>
		<contour>
			<point x="388.128" y="982.264" type="curve" smooth="yes"/>
			<point x="299.032" y="982.264"/>
			<point x="234.816" y="1044.904"/>
			<point x="234.816" y="1140" type="curve" smooth="yes"/>
			<point x="234.816" y="1235.096"/>
			<point x="299.032" y="1297.736"/>
			<point x="388.128" y="1297.736" type="curve" smooth="yes"/>
			<point x="478.224" y="1297.736"/>
			<point x="541.44" y="1235.096"/>
			<point x="541.44" y="1140" type="curve" smooth="yes"/>
			<point x="541.44" y="1044.904"/>
			<point x="478.224" y="982.264"/>
		</contour>
	</outline>
</glyph>
<glyph name="plusminus" format="2">
  <advance width="1140"/>
  <unicode hex="00B1"/>
  <outline>
    <contour>
      <point x="467.67999999999995" y="1037.664" type="line"/>
      <point x="467.67999999999995" y="148.19199999999998" type="line"/>
      <point x="672.8960000000001" y="148.19199999999998" type="line"/>
      <point x="672.8960000000001" y="1037.664" type="line"/>
    </contour>
    <contour>
      <point x="125.552" y="695.5360000000001" type="line"/>
      <point x="125.552" y="490.32000000000005" type="line"/>
      <point x="1015.024" y="490.32000000000005" type="line"/>
      <point x="1015.024" y="695.5360000000001" type="line"/>
    </contour>
    <contour>
      <point x="125.552" y="205.216" type="line"/>
      <point x="125.552" y="0.0" type="line"/>
      <point x="1015.024" y="0.0" type="line"/>
      <point x="1015.024" y="205.216" type="line"/>
    </contour>
  </outline>
</glyph>
<glyph name="uni00B2" format="2">
	<unicode hex="00B2"/>
	<advance width="840.32"/>
	<outline>
		<contour>
			<point x="551.152" y="738.992" type="line"/>
			<point x="724.584" y="851.976" type="line"/>
			<point x="253.56" y="851.976" type="line"/>
			<point x="256.32" y="795.792" type="line"/>
			<point x="421.12" y="902.632" type="line" smooth="yes"/>
			<point x="659.736" y="1042.824"/>
			<point x="710.464" y="1103.76"/>
			<point x="710.464" y="1216.88" type="curve" smooth="yes"/>
			<point x="710.464" y="1359.088"/>
			<point x="602.92" y="1432.24"/>
			<point x="417.384" y="1432.24" type="curve" smooth="yes"/>
			<point x="223.208" y="1432.24"/>
			<point x="117.6221042657" y="1352.16106979"/>
			<point x="58.552" y="1165.848" type="curve"/>
			<point x="162.544" y="1123.28" type="line"/>
			<point x="203.088" y="1216.864"/>
			<point x="247.576" y="1260.504"/>
			<point x="338.4" y="1260.504" type="curve" smooth="yes"/>
			<point x="424.92" y="1260.504"/>
			<point x="466.8" y="1223.408"/>
			<point x="466.8" y="1161.92" type="curve" smooth="yes"/>
			<point x="466.8" y="1092.888"/>
			<point x="430.192" y="1049.976"/>
			<point x="286.712" y="936.336" type="curve" smooth="yes"/>
			<point x="103.736" y="788.352" type="line"/>
			<point x="103.736" y="662" type="line"/>
			<point x="607.808" y="662" type="line"/>
			<point x="644.68" y="626.12" type="line"/>
			<point x="713.408" y="626.12" type="line"/>
			<point x="774.344" y="940.136" type="line"/>
			<point x="681.496" y="940.136" type="line"/>
		</contour>
	</outline>
</glyph>
<glyph name="uni00B3" format="2">
	<unicode hex="00B3"/>
	<advance width="802.832"/>
	<outline>
		<contour>
			<point x="314.784" y="647.76" type="curve" smooth="yes"/>
			<point x="609.008" y="647.76"/>
			<point x="727.28" y="747.76"/>
			<point x="727.28" y="915.12" type="curve" smooth="yes"/>
			<point x="727.28" y="1050.208"/>
			<point x="615.136" y="1112.936"/>
			<point x="436.504" y="1099.24" type="curve"/>
			<point x="449.288" y="1092.24" type="line"/>
			<point x="611.792" y="1111.208"/>
			<point x="677.976" y="1178.784"/>
			<point x="677.976" y="1267.968" type="curve" smooth="yes"/>
			<point x="677.976" y="1373.36"/>
			<point x="596.736" y="1432.24"/>
			<point x="417.776" y="1432.24" type="curve" smooth="yes"/>
			<point x="225.576" y="1432.24"/>
			<point x="132.64" y="1358.424"/>
			<point x="75.128" y="1206.52" type="curve"/>
			<point x="169" y="1159.616" type="line"/>
			<point x="205.152" y="1237.256"/>
			<point x="257" y="1279.256"/>
			<point x="338.216" y="1279.256" type="curve" smooth="yes"/>
			<point x="412.248" y="1279.256"/>
			<point x="446.28" y="1245.92"/>
			<point x="446.28" y="1194.584" type="curve" smooth="yes"/>
			<point x="446.28" y="1127.096"/>
			<point x="414.128" y="1095.608"/>
			<point x="262.52" y="1075.608" type="curve"/>
			<point x="273.368" y="975.432" type="line"/>
			<point x="315.096" y="979.008" type="line" smooth="yes"/>
			<point x="458.312" y="991.312"/>
			<point x="495.584" y="957.672"/>
			<point x="495.584" y="885.488" type="curve" smooth="yes"/>
			<point x="495.584" y="793.696"/>
			<point x="434.52" y="763.48"/>
			<point x="334.784" y="763.48" type="curve" smooth="yes"/>
			<point x="224.816" y="763.48"/>
			<point x="174.336" y="846.328"/>
			<point x="159.64" y="846.328" type="curve" smooth="yes"/>
			<point x="105.584" y="846.328"/>
			<point x="73.008" y="811.088"/>
			<point x="73.008" y="760.848" type="curve" smooth="yes"/>
			<point x="73.008" y="699.544"/>
			<point x="130.824" y="647.76"/>
		</contour>
	</outline>
</glyph>
<glyph name="uni00B5" format="2">
	<unicode hex="00B5"/>
	<advance width="1448.376"/>
	<outline>
		<contour>
			<point x="204.736" y="1032.48" type="line"/>
			<point x="204.736" y="-459.12" type="line"/>
			<point x="253.488" y="-459.12" type="line"/>
			<point x="511.152" y="-436.032" type="line"/>
			<point x="392.128" y="163.768" type="line"/>
			<point x="371.216" y="141.88" type="line"/>
			<point x="404.68" y="40.552"/>
			<point x="463.496" y="-15.76"/>
			<point x="573.472" y="-15.76" type="curve" smooth="yes"/>
			<point x="664.992" y="-15.76"/>
			<point x="707.44" y="1.328"/>
			<point x="929.024" y="189.384" type="curve"/>
			<point x="912.328" y="265.912" type="line"/>
			<point x="840.416" y="245.848"/>
			<point x="759.648" y="232.784"/>
			<point x="693.696" y="232.784" type="curve" smooth="yes"/>
			<point x="567.04" y="232.784"/>
			<point x="520.608" y="273.336"/>
			<point x="520.608" y="374.776" type="curve" smooth="yes"/>
			<point x="520.608" y="1032.48" type="line"/>
		</contour>
		<contour>
			<point x="1203.088" y="259.88" type="curve" smooth="yes"/>
			<point x="1203.088" y="1032.48" type="line"/>
			<point x="887.216" y="1032.48" type="line"/>
			<point x="887.216" y="276.288" type="line" smooth="yes"/>
			<point x="887.216" y="83.088"/>
			<point x="976.968" y="-21.36"/>
			<point x="1130.224" y="-21.36" type="curve" smooth="yes"/>
			<point x="1221.544" y="-21.36"/>
			<point x="1313.688" y="11.032"/>
			<point x="1389.136" y="65.52" type="curve"/>
			<point x="1389.136" y="175.872" type="line"/>
			<point x="1353.68" y="169.144"/>
			<point x="1324.616" y="165.416"/>
			<point x="1299.704" y="165.416" type="curve" smooth="yes"/>
			<point x="1235.88" y="165.416"/>
			<point x="1203.088" y="189.632"/>
		</contour>
	</outline>
</glyph>
<glyph name="paragraph" format="2">
	<unicode hex="00B6"/>
	<advance width="1412.04"/>
	<outline>
		<contour>
			<point x="754.64" y="1414" type="line"/>
			<point x="488.024" y="1414" type="line" smooth="yes"/>
			<point x="192.536" y="1414"/>
			<point x="62.152" y="1284.008"/>
			<point x="62.152" y="1039.688" type="curve" smooth="yes"/>
			<point x="62.152" y="795.456"/>
			<point x="195.6" y="671.28"/>
			<point x="462.68" y="671.28" type="curve" smooth="yes"/>
			<point x="754.64" y="671.28" type="line"/>
		</contour>
		<contour>
			<point x="808.824" y="-219.88" type="line"/>
			<point x="808.824" y="1276.376" type="line"/>
			<point x="1054.368" y="1276.376" type="line"/>
			<point x="1054.368" y="1414" type="line"/>
			<point x="647.296" y="1414" type="line"/>
			<point x="647.296" y="-219.88" type="line"/>
		</contour>
		<contour>
			<point x="1138" y="-219.88" type="line"/>
			<point x="1138" y="1277.072" type="line"/>
			<point x="1327.312" y="1311.976" type="line"/>
			<point x="1327.312" y="1414" type="line"/>
			<point x="976.472" y="1414" type="line"/>
			<point x="976.472" y="-219.88" type="line"/>
		</contour>
	</outline>
</glyph>
<glyph name="uni00B9" format="2">
  <advance width="704"/>
  <unicode hex="00B9"/>
  <outline>
    <contour>
      <point x="268.74399999999997" y="778.784" type="line"/>
      <point x="129.488" y="750.056" type="line"/>
      <point x="129.488" y="662.0" type="line"/>
      <point x="637.296" y="662.0" type="line"/>
      <point x="637.296" y="750.056" type="line"/>
      <point x="513.16" y="778.784" type="line"/>
      <point x="513.16" y="1414.0" type="line"/>
      <point x="332.52" y="1414.0" type="line"/>
      <point x="43.128" y="1261.152" type="line"/>
      <point x="82.552" y="1162.7040000000002" type="line"/>
      <point x="326.192" y="1249.712" type="line"/>
      <point x="268.74399999999997" y="1349.696" type="line"/>
    </contour>
  </outline>
</glyph>
<glyph name="ordmasculine" format="2">
	<unicode hex="00BA"/>
	<advance width="1068.488"/>
	<outline>
		<contour>
			<point x="149.736" y="468.448" type="line"/>
			<point x="918.752" y="468.448" type="line"/>
			<point x="918.752" y="632.16" type="line"/>
			<point x="149.736" y="632.16" type="line"/>
		</contour>
		<contour>
			<point x="529.592" y="906.568" type="curve" smooth="yes"/>
			<point x="423.64" y="906.568"/>
			<point x="374.176" y="967.12"/>
			<point x="374.176" y="1099.456" type="curve" smooth="yes"/>
			<point x="374.176" y="1225.28"/>
			<point x="426.792" y="1282.712"/>
			<point x="538.896" y="1282.712" type="curve" smooth="yes"/>
			<point x="644.848" y="1282.712"/>
			<point x="694.312" y="1222.584"/>
			<point x="694.312" y="1089.824" type="curve" smooth="yes"/>
			<point x="694.312" y="964"/>
			<point x="642.12" y="906.568"/>
		</contour>
		<contour>
			<point x="524.352" y="751.464" type="curve" smooth="yes"/>
			<point x="789.184" y="751.464"/>
			<point x="926.816" y="866.432"/>
			<point x="926.816" y="1097.76" type="curve" smooth="yes"/>
			<point x="926.816" y="1321.664"/>
			<point x="791.272" y="1438.24"/>
			<point x="543.712" y="1438.24" type="curve" smooth="yes"/>
			<point x="279.304" y="1438.24"/>
			<point x="141.672" y="1323.272"/>
			<point x="141.672" y="1092.792" type="curve" smooth="yes"/>
			<point x="141.672" y="868.04"/>
			<point x="277.216" y="751.464"/>
		</contour>
	</outline>
</glyph>
<glyph name="guillemotright" format="2">
	<unicode hex="00BB"/>
	<advance width="1381.384"/>
	<outline>
		<contour>
			<point x="398.288" y="477.552" type="line"/>
			<point x="398.288" y="566.448" type="line"/>
			<point x="104.128" y="143.336" type="line"/>
			<point x="235.136" y="22.416" type="line"/>
			<point x="689.936" y="424.624" type="line"/>
			<point x="689.936" y="619.376" type="line"/>
			<point x="235.136" y="1021.584" type="line"/>
			<point x="104.128" y="900.664" type="line"/>
		</contour>
		<contour>
			<point x="980.368" y="477.552" type="line"/>
			<point x="980.368" y="566.448" type="line"/>
			<point x="686.208" y="143.336" type="line"/>
			<point x="817.216" y="22.416" type="line"/>
			<point x="1272.016" y="424.624" type="line"/>
			<point x="1272.016" y="619.376" type="line"/>
			<point x="817.216" y="1021.584" type="line"/>
			<point x="686.208" y="900.664" type="line"/>
		</contour>
	</outline>
</glyph>
<glyph name="questiondown" format="2">
	<unicode hex="00BF"/>
	<advance width="1320.944"/>
	<outline>
		<contour>
			<point x="711.536" y="-410" type="curve" smooth="yes"/>
			<point x="1141.624" y="-410"/>
			<point x="1266.64" y="-303.064"/>
			<point x="1266.64" y="-178.448" type="curve" smooth="yes"/>
			<point x="1266.64" y="-92.184"/>
			<point x="1202.072" y="-37.464"/>
			<point x="1104.72" y="-37.464" type="curve" smooth="yes"/>
			<point x="1034.904" y="-37.464"/>
			<point x="954.672" y="-212.152"/>
			<point x="732.848" y="-212.152" type="curve" smooth="yes"/>
			<point x="520.688" y="-212.152"/>
			<point x="437.256" y="-115.384"/>
			<point x="437.256" y="0.448" type="curve" smooth="yes"/>
			<point x="437.256" y="151.696"/>
			<point x="524.776" y="208.128"/>
			<point x="846.296" y="202.496" type="curve"/>
			<point x="801.848" y="555.504" type="line"/>
			<point x="588.896" y="555.504" type="line"/>
			<point x="551.056" y="303.904" type="line"/>
			<point x="630.984" y="392.72" type="line"/>
			<point x="218.392" y="380.48"/>
			<point x="79.456" y="240.688"/>
			<point x="79.456" y="-6.792" type="curve" smooth="yes"/>
			<point x="79.456" y="-231.672"/>
			<point x="270.344" y="-410"/>
		</contour>
		<contour>
			<point x="700.96" y="685.904" type="curve" smooth="yes"/>
			<point x="825.64" y="685.904"/>
			<point x="900.36" y="749.656"/>
			<point x="900.36" y="865.768" type="curve" smooth="yes"/>
			<point x="900.36" y="984"/>
			<point x="825.64" y="1049.024"/>
			<point x="700.96" y="1049.024" type="curve" smooth="yes"/>
			<point x="576.28" y="1049.024"/>
			<point x="501.56" y="984"/>
			<point x="501.56" y="865.768" type="curve" smooth="yes"/>
			<point x="501.56" y="749.656"/>
			<point x="576.28" y="685.904"/>
		</contour>
	</outline>
</glyph>
<glyph name="AE" format="2">
	<unicode hex="00C6"/>
	<advance width="2467.44"/>
	<outline>
		<contour>
			<point x="567.472" y="446.176" type="line"/>
			<point x="1224.944" y="446.176" type="line"/>
			<point x="1224.944" y="648.816" type="line"/>
			<point x="567.472" y="648.816" type="line"/>
		</contour>
		<contour>
			<point x="1057.68" y="1414" type="line"/>
			<point x="170.88" y="158.632" type="line"/>
			<point x="2.88" y="118.72" type="line"/>
			<point x="2.88" y="0" type="line"/>
			<point x="602.456" y="0" type="line"/>
			<point x="602.456" y="118.72" type="line"/>
			<point x="428.752" y="161.176" type="line"/>
			<point x="1215.152" y="1280.032" type="line"/>
			<point x="1215.152" y="1414" type="line"/>
		</contour>
		<contour>
			<point x="730.712" y="1295.28" type="line"/>
			<point x="1027.712" y="1219.224" type="line"/>
			<point x="1090.616" y="1414" type="line"/>
			<point x="730.712" y="1414" type="line"/>
		</contour>
		<contour>
			<point x="1988.216" y="990" type="line"/>
			<point x="1834.744" y="990" type="line"/>
			<point x="1817.744" y="828.144" type="line"/>
			<point x="1340.128" y="828.144" type="line"/>
			<point x="1340.128" y="645.856" type="line"/>
			<point x="1817.744" y="645.856" type="line"/>
			<point x="1834.744" y="480" type="line"/>
			<point x="1988.216" y="480" type="line"/>
			<point x="1988.216" y="735" type="line"/>
		</contour>
		<contour>
			<point x="2329.952" y="1002.144" type="line"/>
			<point x="2329.952" y="1495.872" type="line"/>
			<point x="2205.808" y="1495.872" type="line"/>
			<point x="2105.912" y="1414" type="line"/>
			<point x="1340.128" y="1414" type="line"/>
			<point x="1340.128" y="1215.176" type="line"/>
			<point x="2162.088" y="1215.176" type="line"/>
			<point x="2051.712" y="1336.064" type="line"/>
			<point x="2162.816" y="1002.144" type="line"/>
		</contour>
		<contour>
			<point x="2031.384" y="80.056" type="line"/>
			<point x="2129.064" y="198.824" type="line"/>
			<point x="1340.128" y="198.824" type="line"/>
			<point x="1340.128" y="0" type="line"/>
			<point x="2086.648" y="0" type="line"/>
			<point x="2154.936" y="-85.144" type="line"/>
			<point x="2297.624" y="-85.144" type="line"/>
			<point x="2385.072" y="475.672" type="line"/>
			<point x="2216.728" y="475.672" type="line"/>
		</contour>
		<contour>
			<point x="981.592" y="0" type="line"/>
			<point x="1519.4" y="0" type="line"/>
			<point x="1519.4" y="1414" type="line"/>
			<point x="1165.72" y="1414" type="line"/>
			<point x="1165.72" y="165.416" type="line"/>
			<point x="981.592" y="118.72" type="line"/>
		</contour>
	</outline>
	<anchor name="UCtop" x="1349.496" y="1414"/>
	<anchor name="bottom" x="1273.176" y="0"/>
</glyph>
<glyph name="Ccedilla" format="2">
  <advance width="1588"/>
  <unicode hex="00C7"/>
  <outline>
    <contour>
      <point x="992.904" y="182.552" type="curve" smooth="yes"/>
      <point x="653.648" y="182.552"/>
      <point x="460.352" y="355.144"/>
      <point x="468.416" y="738.3359999999999" type="curve" smooth="yes"/>
      <point x="475.328" y="1074.8880000000001"/>
      <point x="612.584" y="1221.9360000000001"/>
      <point x="947.8879999999999" y="1221.9360000000001" type="curve" smooth="yes"/>
      <point x="1081.6399999999999" y="1221.9360000000001"/>
      <point x="1178.9360000000001" y="1199.424"/>
      <point x="1296.088" y="1132.944" type="curve"/>
      <point x="1176.792" y="1277.696" type="line"/>
      <point x="1283.6239999999998" y="928.624" type="line"/>
      <point x="1457.552" y="928.6239999999999" type="line"/>
      <point x="1457.552" y="1495.872" type="line"/>
      <point x="1322.744" y="1495.872" type="line"/>
      <point x="1219.24" y="1369.728" type="line"/>
      <point x="1311.68" y="1377.816" type="line"/>
      <point x="1190.232" y="1415.36"/>
      <point x="1070.3600000000001" y="1438.24"/>
      <point x="932.2959999999999" y="1438.24" type="curve" smooth="yes"/>
      <point x="389.288" y="1438.24"/>
      <point x="112.16" y="1151.8"/>
      <point x="108.70400000000001" y="693.216" type="curve" smooth="yes"/>
      <point x="105.248" y="214.94400000000002"/>
      <point x="389.128" y="-24.240000000000002"/>
      <point x="941.6560000000001" y="-24.240000000000002" type="curve" smooth="yes"/>
      <point x="1132.352" y="-24.240000000000002"/>
      <point x="1303.4479999999999" y="6.672"/>
      <point x="1432.7359999999999" y="59.064" type="curve"/>
      <point x="1478.672" y="483.432" type="line"/>
      <point x="1329.2559999999999" y="483.432" type="line"/>
      <point x="1158.76" y="109.232" type="line"/>
      <point x="1337.9199999999998" y="249.008" type="line"/>
      <point x="1231.856" y="206.28"/>
      <point x="1104.8799999999999" y="182.552"/>
    </contour>
    <contour>
      <point x="802.0400000000001" y="-465.0" type="curve" smooth="yes"/>
      <point x="979.304" y="-465.0"/>
      <point x="1098.568" y="-410.36"/>
      <point x="1098.568" y="-273.94399999999996" type="curve" smooth="yes"/>
      <point x="1098.568" y="-183.19199999999998"/>
      <point x="1057.992" y="-121.58399999999999"/>
      <point x="822.672" y="-82.85600000000001" type="curve"/>
      <point x="830.976" y="-179.056" type="line"/>
      <point x="1013.1120000000001" y="34.024" type="line"/>
      <point x="881.944" y="34.024" type="line"/>
      <point x="700.44" y="-187.45600000000002" type="line"/>
      <point x="700.44" y="-219.208" type="line"/>
      <point x="893.256" y="-246.544"/>
      <point x="922.3760000000001" y="-266.304"/>
      <point x="922.3760000000001" y="-310.45599999999996" type="curve" smooth="yes"/>
      <point x="922.3760000000001" y="-352.944"/>
      <point x="897.4639999999999" y="-372.704"/>
      <point x="831.552" y="-372.704" type="curve" smooth="yes"/>
      <point x="768.704" y="-372.704"/>
      <point x="706.1360000000001" y="-313.728"/>
      <point x="686.32" y="-313.728" type="curve" smooth="yes"/>
      <point x="661.592" y="-313.728"/>
      <point x="630.712" y="-335.336"/>
      <point x="630.712" y="-377.608" type="curve" smooth="yes"/>
      <point x="630.712" y="-435.272"/>
      <point x="665.44" y="-465.0"/>
    </contour>
  </outline>
</glyph>
<glyph name="multiply" format="2">
  <advance width="1140.0"/>
  <unicode hex="00D7"/>
  <outline>
    <contour>
      <point x="154.66400000000002" y="249.144" type="line"/>
      <point x="300.312" y="103.49600000000001" type="line"/>
      <point x="985.336" y="788.52" type="line"/>
      <point x="839.688" y="934.168" type="line"/>
    </contour>
    <contour>
      <point x="154.66400000000002" y="788.52" type="line"/>
      <point x="839.688" y="103.49600000000001" type="line"/>
      <point x="985.336" y="249.144" type="line"/>
      <point x="300.312" y="934.168" type="line"/>
    </contour>
  </outline>
</glyph>
<glyph name="Oslash" format="2">
	<unicode hex="00D8"/>
	<advance width="1774.28"/>
	<outline>
		<contour>
			<point x="455.464" y="349.824" type="line"/>
			<point x="366.968" y="271.624" type="line"/>
			<point x="113.136" y="0" type="line"/>
			<point x="343.048" y="0" type="line"/>
			<point x="491.984" y="159.848" type="line"/>
			<point x="573.448" y="235.048" type="line"/>
			<point x="1318.816" y="1064.176" type="line"/>
			<point x="1407.312" y="1142.376" type="line"/>
			<point x="1661.144" y="1414" type="line"/>
			<point x="1431.232" y="1414" type="line"/>
			<point x="1282.296" y="1254.152" type="line"/>
			<point x="1200.832" y="1178.952" type="line"/>
		</contour>
		<contour>
			<point x="900.616" y="1438.24" type="curve" smooth="yes"/>
			<point x="421.392" y="1438.24"/>
			<point x="125.856" y="1153.928"/>
			<point x="125.856" y="705.424" type="curve" smooth="yes"/>
			<point x="125.856" y="259.92"/>
			<point x="402.616" y="-23.816"/>
			<point x="873.664" y="-23.816" type="curve" smooth="yes"/>
			<point x="1352.888" y="-23.816"/>
			<point x="1648.424" y="260.496"/>
			<point x="1648.424" y="709" type="curve" smooth="yes"/>
			<point x="1648.424" y="1154.504"/>
			<point x="1371.664" y="1438.24"/>
		</contour>
		<contour>
			<point x="891.688" y="201.272" type="curve" smooth="yes"/>
			<point x="613.896" y="201.272"/>
			<point x="485.416" y="388.776"/>
			<point x="485.416" y="753.416" type="curve" smooth="yes"/>
			<point x="485.416" y="1058.248"/>
			<point x="620.616" y="1213.152"/>
			<point x="882.592" y="1213.152" type="curve" smooth="yes"/>
			<point x="1160.384" y="1213.152"/>
			<point x="1288.864" y="1025.648"/>
			<point x="1288.864" y="661.008" type="curve" smooth="yes"/>
			<point x="1288.864" y="356.176"/>
			<point x="1153.664" y="201.272"/>
		</contour>
	</outline>
	<anchor name="UCtop" x="886.928" y="1414"/>
	<anchor name="bottom" x="886.928" y="0"/>
</glyph>
<glyph name="Thorn" format="2">
	<unicode hex="00DE"/>
	<advance width="1555.112"/>
	<outline>
		<contour>
			<point x="1112.328" y="710" type="curve" smooth="yes"/>
			<point x="1112.328" y="544.56"/>
			<point x="1030.344" y="476.584"/>
			<point x="874.6" y="476.584" type="curve" smooth="yes"/>
			<point x="526" y="476.584" type="line"/>
			<point x="443.32" y="268.008" type="line"/>
			<point x="930.12" y="268.008" type="line" smooth="yes"/>
			<point x="1312.504" y="268.008"/>
			<point x="1460.56" y="451.248"/>
			<point x="1460.56" y="712.304" type="curve" smooth="yes"/>
			<point x="1460.56" y="985.112"/>
			<point x="1305.176" y="1154.624"/>
			<point x="895.272" y="1154.624" type="curve" smooth="yes"/>
			<point x="457.312" y="1154.624" type="line"/>
			<point x="526" y="940.112" type="line"/>
			<point x="834.088" y="940.112" type="line" smooth="yes"/>
			<point x="1050.408" y="940.112"/>
			<point x="1112.328" y="864.56"/>
		</contour>
		<contour>
			<point x="825.152" y="118.72" type="line"/>
			<point x="641.024" y="165.416" type="line"/>
			<point x="641.024" y="1248.584" type="line"/>
			<point x="825.152" y="1295.28" type="line"/>
			<point x="825.152" y="1414" type="line"/>
			<point x="103.216" y="1414" type="line"/>
			<point x="103.216" y="1295.28" type="line"/>
			<point x="287.344" y="1248.584" type="line"/>
			<point x="287.344" y="165.416" type="line"/>
			<point x="103.216" y="118.72" type="line"/>
			<point x="103.216" y="0" type="line"/>
			<point x="825.152" y="0" type="line"/>
		</contour>
	</outline>
</glyph>
<glyph name="germandbls" format="2">
	<unicode hex="00DF"/>
	<advance width="1646.32"/>
	<outline>
		<contour>
			<point x="259.064" y="1051.448" type="curve" smooth="yes"/>
			<point x="259.064" y="142.784" type="line"/>
			<point x="111.144" y="105.752" type="line"/>
			<point x="111.144" y="0" type="line"/>
			<point x="701.656" y="0" type="line"/>
			<point x="701.656" y="105.752" type="line"/>
			<point x="574.936" y="142.784" type="line"/>
			<point x="574.936" y="1098.344" type="line" smooth="yes"/>
			<point x="574.936" y="1263.016"/>
			<point x="644.952" y="1316.232"/>
			<point x="862.568" y="1316.232" type="curve" smooth="yes"/>
			<point x="1033.544" y="1316.232"/>
			<point x="1099.704" y="1258.616"/>
			<point x="1099.704" y="1158.824" type="curve" smooth="yes"/>
			<point x="1099.704" y="1007.192"/>
			<point x="846.36" y="996.784"/>
			<point x="846.36" y="737.192" type="curve" smooth="yes"/>
			<point x="846.36" y="390.92"/>
			<point x="1283.952" y="537.56"/>
			<point x="1283.952" y="281.272" type="curve" smooth="yes"/>
			<point x="1283.952" y="192.232"/>
			<point x="1234.76" y="137.624"/>
			<point x="1083.536" y="137.624" type="curve" smooth="yes"/>
			<point x="1014.96" y="137.624"/>
			<point x="929.752" y="145.896"/>
			<point x="875.232" y="164.384" type="curve"/>
			<point x="1040.536" y="47.512" type="line"/>
			<point x="913.824" y="324.576" type="line"/>
			<point x="774.096" y="324.576" type="line"/>
			<point x="811.584" y="20.736" type="line"/>
			<point x="885.28" y="-5.632"/>
			<point x="1008.432" y="-21.936"/>
			<point x="1105.672" y="-21.936" type="curve" smooth="yes"/>
			<point x="1427.408" y="-21.936"/>
			<point x="1569.408" y="104.728"/>
			<point x="1569.408" y="348.288" type="curve" smooth="yes"/>
			<point x="1569.408" y="755.488"/>
			<point x="1102.952" y="653.608"/>
			<point x="1102.952" y="828.168" type="curve" smooth="yes"/>
			<point x="1102.952" y="981.504"/>
			<point x="1412.856" y="961.624"/>
			<point x="1412.856" y="1212.304" type="curve" smooth="yes"/>
			<point x="1412.856" y="1385.88"/>
			<point x="1299.488" y="1488.24"/>
			<point x="886.96" y="1488.24" type="curve" smooth="yes"/>
			<point x="466.072" y="1488.24"/>
			<point x="259.064" y="1351.512"/>
		</contour>
		<contour>
			<point x="275.912" y="1060.296" type="line"/>
			<point x="51.496" y="969.488" type="line"/>
			<point x="51.496" y="894.888" type="line"/>
			<point x="259.064" y="810.656" type="line"/>
		</contour>
	</outline>
</glyph>
<glyph name="ae" format="2">
	<unicode hex="00E6"/>
	<advance width="1878.96"/>
	<outline>
		<contour>
			<point x="555.992" y="903.728" type="curve" smooth="yes"/>
			<point x="705.792" y="903.728"/>
			<point x="757.672" y="840.696"/>
			<point x="757.672" y="701.264" type="curve" smooth="yes"/>
			<point x="757.672" y="351.52" type="line" smooth="yes"/>
			<point x="757.672" y="248.136"/>
			<point x="677.232" y="190.216"/>
			<point x="565.248" y="190.216" type="curve" smooth="yes"/>
			<point x="456.512" y="190.216"/>
			<point x="416.016" y="229.192"/>
			<point x="416.016" y="320.256" type="curve" smooth="yes"/>
			<point x="416.016" y="426.112"/>
			<point x="465.568" y="472.24"/>
			<point x="822.2" y="513.16" type="curve"/>
			<point x="849.272" y="654.064" type="line"/>
			<point x="209.744" y="573.728"/>
			<point x="97.648" y="464.544"/>
			<point x="97.648" y="260.664" type="curve" smooth="yes"/>
			<point x="97.648" y="73.64"/>
			<point x="215.04" y="-24.24"/>
			<point x="429.52" y="-24.24" type="curve" smooth="yes"/>
			<point x="631.728" y="-24.24"/>
			<point x="779.616" y="70.528"/>
			<point x="803.88" y="330.384" type="curve"/>
			<point x="763.52" y="322.896" type="line"/>
			<point x="817.624" y="94.12"/>
			<point x="1015.3346189474" y="-24.24"/>
			<point x="1315.464" y="-24.24" type="curve" smooth="yes"/>
			<point x="1438.16" y="-24.24"/>
			<point x="1593.104" y="29.368"/>
			<point x="1768.08" y="142.656" type="curve"/>
			<point x="1768.08" y="263.496" type="line"/>
			<point x="1668.448" y="233.704"/>
			<point x="1559.144" y="207.424"/>
			<point x="1422.904" y="207.424" type="curve" smooth="yes"/>
			<point x="1166.32" y="207.424"/>
			<point x="1063.64" y="302.648"/>
			<point x="1063.64" y="578.016" type="curve" smooth="yes"/>
			<point x="1063.64" y="801.272"/>
			<point x="1139.536" y="880.68"/>
			<point x="1286.224" y="880.68" type="curve" smooth="yes"/>
			<point x="1416.72" y="880.68"/>
			<point x="1485.52" y="817.608"/>
			<point x="1485.008" y="585.16" type="curve"/>
			<point x="1596.432" y="630.328" type="line"/>
			<point x="993.72" y="630.328" type="line"/>
			<point x="997.176" y="484.152" type="line"/>
			<point x="1788.376" y="484.152" type="line"/>
			<point x="1778.592" y="875.8"/>
			<point x="1641.088" y="1056.72"/>
			<point x="1300.552" y="1056.72" type="curve" smooth="yes"/>
			<point x="1104.2605217391" y="1056.72"/>
			<point x="970.2830166074" y="962.4422456802"/>
			<point x="889.304" y="824.656" type="curve"/>
			<point x="1070.416" y="824.656" type="line"/>
			<point x="1032.0919520468" y="951.6788304558"/>
			<point x="911.6376470588" y="1056.72"/>
			<point x="664.024" y="1056.72" type="curve" smooth="yes"/>
			<point x="326.416" y="1056.72"/>
			<point x="103.944" y="894.088"/>
			<point x="103.944" y="791.488" type="curve" smooth="yes"/>
			<point x="103.944" y="741.552"/>
			<point x="148.216" y="705.128"/>
			<point x="239.968" y="705.128" type="curve" smooth="yes"/>
			<point x="319.408" y="705.128"/>
			<point x="362.04" y="715.944"/>
			<point x="385.04" y="773.88" type="curve" smooth="yes"/>
			<point x="408.04" y="830.968"/>
			<point x="424.736" y="886.144"/>
			<point x="443.888" y="968.024" type="curve"/>
			<point x="376.368" y="888.664" type="line"/>
			<point x="421.8" y="897.848"/>
			<point x="474.656" y="903.728"/>
		</contour>
	</outline>
	<anchor name="top" x="935.312" y="1032.48"/>
	<anchor name="bottom" x="935.312" y="0"/>
</glyph>
<glyph name="ccedilla" format="2">
  <advance width="1156.2079999999999"/>
  <unicode hex="00E7"/>
  <outline>
    <contour>
      <point x="712.2959999999999" y="1056.72" type="curve" smooth="yes"/>
      <point x="319.68" y="1056.72"/>
      <point x="90.552" y="839.2800000000001"/>
      <point x="90.552" y="500.544" type="curve" smooth="yes"/>
      <point x="90.552" y="158.608"/>
      <point x="294.368" y="-24.240000000000002"/>
      <point x="624.832" y="-24.240000000000002" type="curve" smooth="yes"/>
      <point x="741.2879999999999" y="-24.240000000000002"/>
      <point x="880.9599999999999" y="25.4"/>
      <point x="1063.96" y="142.656" type="curve"/>
      <point x="1063.96" y="272.4" type="line"/>
      <point x="948.7760000000001" y="233.848"/>
      <point x="841.896" y="213.35999999999999"/>
      <point x="723.9359999999999" y="213.35999999999999" type="curve" smooth="yes"/>
      <point x="487.056" y="213.35999999999999"/>
      <point x="385.76800000000003" y="317.104"/>
      <point x="385.76800000000003" y="583.376" type="curve" smooth="yes"/>
      <point x="385.76800000000003" y="811.984"/>
      <point x="486.544" y="901.424"/>
      <point x="639.472" y="901.424" type="curve" smooth="yes"/>
      <point x="705.048" y="901.424"/>
      <point x="898.1919999999999" y="693.568"/>
      <point x="938.0319999999999" y="693.568" type="curve" smooth="yes"/>
      <point x="1013.368" y="693.568"/>
      <point x="1090.2640000000001" y="761.264"/>
      <point x="1090.2640000000001" y="854.9200000000001" type="curve" smooth="yes"/>
      <point x="1090.2640000000001" y="958.8720000000001"/>
      <point x="999.184" y="1056.72"/>
    </contour>
    <contour>
      <point x="521.8" y="-465.0" type="curve" smooth="yes"/>
      <point x="699.064" y="-465.0"/>
      <point x="818.328" y="-410.36"/>
      <point x="818.328" y="-273.94399999999996" type="curve" smooth="yes"/>
      <point x="818.328" y="-183.19199999999998"/>
      <point x="777.7520000000001" y="-121.58399999999999"/>
      <point x="542.432" y="-82.85600000000001" type="curve"/>
      <point x="550.736" y="-179.056" type="line"/>
      <point x="732.872" y="34.024" type="line"/>
      <point x="601.7040000000001" y="34.024" type="line"/>
      <point x="420.2" y="-187.45600000000002" type="line"/>
      <point x="420.2" y="-219.208" type="line"/>
      <point x="613.016" y="-246.544"/>
      <point x="642.136" y="-266.304"/>
      <point x="642.136" y="-310.45599999999996" type="curve" smooth="yes"/>
      <point x="642.136" y="-352.944"/>
      <point x="617.2239999999999" y="-372.704"/>
      <point x="551.312" y="-372.704" type="curve" smooth="yes"/>
      <point x="488.464" y="-372.704"/>
      <point x="425.896" y="-313.728"/>
      <point x="406.08" y="-313.728" type="curve" smooth="yes"/>
      <point x="381.352" y="-313.728"/>
      <point x="350.47200000000004" y="-335.336"/>
      <point x="350.47200000000004" y="-377.608" type="curve" smooth="yes"/>
      <point x="350.47200000000004" y="-435.272"/>
      <point x="385.2" y="-465.0"/>
    </contour>
  </outline>
</glyph>
<glyph name="eth" format="2">
	<unicode hex="00F0"/>
	<advance width="1333.368"/>
	<outline>
		<contour>
			<point x="642.656" y="-24.24" type="curve" smooth="yes"/>
			<point x="999.552" y="-24.24"/>
			<point x="1221.816" y="149.224"/>
			<point x="1221.816" y="571.896" type="curve" smooth="yes"/>
			<point x="1221.816" y="1013.84"/>
			<point x="1074.456" y="1299.632"/>
			<point x="318.216" y="1488.24" type="curve"/>
			<point x="260.376" y="1334.2" type="line"/>
			<point x="741.928" y="1185.176"/>
			<point x="913.024" y="1023.88"/>
			<point x="915.904" y="692.792" type="curve"/>
			<point x="931.208" y="689.912" type="line"/>
			<point x="904.016" y="864.832"/>
			<point x="788.616" y="994.192"/>
			<point x="584.096" y="994.192" type="curve" smooth="yes"/>
			<point x="285.256" y="994.192"/>
			<point x="91.4" y="814.24"/>
			<point x="91.4" y="490.912" type="curve" smooth="yes"/>
			<point x="91.4" y="171.976"/>
			<point x="295.456" y="-24.24"/>
		</contour>
		<contour>
			<point x="647.864" y="170.28" type="curve" smooth="yes"/>
			<point x="477.928" y="170.28"/>
			<point x="405.368" y="276.4901374046"/>
			<point x="405.368" y="514.336" type="curve" smooth="yes"/>
			<point x="405.368" y="728.8576551724"/>
			<point x="489.144" y="818.056"/>
			<point x="665.352" y="818.056" type="curve" smooth="yes"/>
			<point x="835.288" y="818.056"/>
			<point x="907.848" y="711.6977461929"/>
			<point x="907.848" y="473.424" type="curve" smooth="yes"/>
			<point x="907.848" y="258.9069048991"/>
			<point x="824.072" y="170.28"/>
		</contour>
		<contour>
			<point x="402.288" y="1023.4" type="line"/>
			<point x="997.376" y="1388.064" type="line"/>
			<point x="932.8" y="1488.24" type="line"/>
			<point x="337.712" y="1123.576" type="line"/>
		</contour>
	</outline>
</glyph>
<glyph name="divide" format="2">
	<unicode hex="00F7"/>
	<advance width="1140"/>
	<outline>
		<contour>
			<point x="570.288" y="297.416" type="curve" smooth="yes"/>
			<point x="473.264" y="297.416"/>
			<point x="412.056" y="242.36"/>
			<point x="412.056" y="147.456" type="curve" smooth="yes"/>
			<point x="412.056" y="52.552"/>
			<point x="473.264" y="-3.504"/>
			<point x="570.288" y="-3.504" type="curve" smooth="yes"/>
			<point x="666.736" y="-3.504"/>
			<point x="727.944" y="52.552"/>
			<point x="727.944" y="147.456" type="curve" smooth="yes"/>
			<point x="727.944" y="242.36"/>
			<point x="666.736" y="297.416"/>
		</contour>
		<contour>
			<point x="570.288" y="1041.168" type="curve" smooth="yes"/>
			<point x="473.264" y="1041.168"/>
			<point x="412.056" y="986.112"/>
			<point x="412.056" y="891.208" type="curve" smooth="yes"/>
			<point x="412.056" y="796.304"/>
			<point x="473.264" y="740.824"/>
			<point x="570.288" y="740.824" type="curve" smooth="yes"/>
			<point x="666.736" y="740.824"/>
			<point x="727.944" y="796.304"/>
			<point x="727.944" y="891.208" type="curve" smooth="yes"/>
			<point x="727.944" y="986.112"/>
			<point x="666.736" y="1041.168"/>
		</contour>
		<contour>
			<point x="125.264" y="621.44" type="line"/>
			<point x="125.264" y="416.224" type="line"/>
			<point x="1014.736" y="416.224" type="line"/>
			<point x="1014.736" y="621.44" type="line"/>
		</contour>
	</outline>
</glyph>
<glyph name="oslash" format="2">
	<unicode hex="00F8"/>
	<advance width="1349.432"/>
	<outline>
		<contour>
			<point x="83.4" y="0" type="line"/>
			<point x="269.12" y="0" type="line"/>
			<point x="386.024" y="120.664" type="line"/>
			<point x="425.56" y="156.056" type="line"/>
			<point x="1010.056" y="783.128" type="line"/>
			<point x="1056.104" y="815.456" type="line"/>
			<point x="1265.76" y="1032.48" type="line"/>
			<point x="1080.04" y="1032.48" type="line"/>
			<point x="963.136" y="911.816" type="line"/>
			<point x="923.6" y="876.424" type="line"/>
			<point x="339.104" y="249.352" type="line"/>
			<point x="293.056" y="217.024" type="line"/>
		</contour>
		<contour>
			<point x="666.048" y="176.64" type="curve" smooth="yes"/>
			<point x="496.112" y="176.64"/>
			<point x="423.552" y="288.2"/>
			<point x="423.552" y="537.696" type="curve" smooth="yes"/>
			<point x="423.552" y="762.496"/>
			<point x="507.328" y="855.84"/>
			<point x="683.536" y="855.84" type="curve" smooth="yes"/>
			<point x="853.472" y="855.84"/>
			<point x="926.032" y="744.28"/>
			<point x="926.032" y="494.784" type="curve" smooth="yes"/>
			<point x="926.032" y="269.984"/>
			<point x="842.256" y="176.64"/>
		</contour>
		<contour>
			<point x="660.84" y="-24.24" type="curve" smooth="yes"/>
			<point x="1023.672" y="-24.24"/>
			<point x="1240" y="181.64"/>
			<point x="1240" y="519.208" type="curve" smooth="yes"/>
			<point x="1240" y="852.384"/>
			<point x="1035.944" y="1056.72"/>
			<point x="688.744" y="1056.72" type="curve" smooth="yes"/>
			<point x="325.912" y="1056.72"/>
			<point x="109.584" y="850.84"/>
			<point x="109.584" y="513.272" type="curve" smooth="yes"/>
			<point x="109.584" y="180.096"/>
			<point x="313.64" y="-24.24"/>
		</contour>
	</outline>
	<anchor name="top" x="674.656" y="1032.48"/>
	<anchor name="bottom" x="674.656" y="0"/>
</glyph>
<glyph name="thorn" format="2">
	<unicode hex="00FE"/>
	<advance width="1373.176"/>
	<outline>
		<contour>
			<point x="166.008" y="1206.12" type="curve"/>
			<point x="166.008" y="-297.976" type="line"/>
			<point x="15.208" y="-335.008" type="line"/>
			<point x="15.208" y="-440.76" type="line"/>
			<point x="651.528" y="-440.76" type="line"/>
			<point x="651.528" y="-335.008" type="line"/>
			<point x="481.304" y="-299.128" type="line"/>
			<point x="481.304" y="275.664" type="line"/>
			<point x="465.152" y="275.664" type="line"/>
			<point x="470.912" y="110.944"/>
			<point x="597.224" y="-24.24"/>
			<point x="795.856" y="-24.24" type="curve" smooth="yes"/>
			<point x="1063.048" y="-24.24"/>
			<point x="1279.504" y="185.552"/>
			<point x="1279.504" y="556.24" type="curve" smooth="yes"/>
			<point x="1279.504" y="865.904"/>
			<point x="1119.68" y="1056.72"/>
			<point x="815.888" y="1056.72" type="curve" smooth="yes"/>
			<point x="730.552" y="1056.72"/>
			<point x="647.776" y="1030.472"/>
			<point x="411.88" y="881.704" type="curve"/>
			<point x="411.88" y="790.12" type="line"/>
			<point x="497.256" y="820.464"/>
			<point x="592.632" y="837.864"/>
			<point x="677.136" y="837.864" type="curve" smooth="yes"/>
			<point x="863.152" y="837.864"/>
			<point x="959.776" y="742.064"/>
			<point x="959.776" y="511.872" type="curve" smooth="yes"/>
			<point x="959.776" y="279.264"/>
			<point x="864.064" y="170.88"/>
			<point x="703.552" y="170.88" type="curve" smooth="yes"/>
			<point x="569.72" y="170.88"/>
			<point x="481.88" y="234.92"/>
			<point x="481.88" y="398.704" type="curve" smooth="yes"/>
			<point x="481.88" y="1242.384" type="line"/>
			<point x="504.424" y="1488.24" type="line"/>
			<point x="428.504" y="1488.24" type="line"/>
			<point x="-37.576" y="1406.368" type="line"/>
			<point x="-37.576" y="1304.896" type="line"/>
			<point x="40.424" y="1265.9411304348"/>
			<point x="140.008" y="1218.9129565217"/>
		</contour>
	</outline>
</glyph>
<glyph name="Aogonek" format="2">
	<unicode hex="0104"/>
	<advance width="1781.288"/>
	<outline>
		<contour>
			<point x="445.392" y="426.176" type="line"/>
			<point x="1179.504" y="426.176" type="line"/>
			<point x="1179.504" y="628.816" type="line"/>
			<point x="445.392" y="628.816" type="line"/>
		</contour>
		<contour>
			<point x="1587.864" y="167.112" type="line"/>
			<point x="1090.216" y="1425.52" type="line"/>
			<point x="667.792" y="1425.52" type="line"/>
			<point x="186.912" y="158.632" type="line"/>
			<point x="18.912" y="118.72" type="line"/>
			<point x="18.912" y="0" type="line"/>
			<point x="603.096" y="0" type="line"/>
			<point x="603.096" y="118.72" type="line"/>
			<point x="429.392" y="161.176" type="line"/>
			<point x="823.952" y="1280.032" type="line"/>
			<point x="780.888" y="1280.032" type="line"/>
			<point x="1206.488" y="158.632" type="line"/>
			<point x="1031.512" y="118.72" type="line"/>
			<point x="1031.512" y="0" type="line"/>
			<point x="1773.44" y="0" type="line"/>
			<point x="1773.44" y="118.72" type="line"/>
		</contour>
		<contour>
			<point x="1437.856" y="-76.576" type="curve" smooth="yes"/>
			<point x="1526.112" y="67.048" type="line"/>
			<point x="1432.664" y="67.048" type="line"/>
			<point x="1323.04" y="-57.648" type="line" smooth="yes"/>
			<point x="1212.448" y="-182.312"/>
			<point x="1195.48" y="-237.008"/>
			<point x="1195.48" y="-304.248" type="curve" smooth="yes"/>
			<point x="1195.48" y="-403"/>
			<point x="1247.872" y="-465"/>
			<point x="1378.2" y="-465" type="curve" smooth="yes"/>
			<point x="1451.048" y="-465"/>
			<point x="1495.864" y="-447.576"/>
			<point x="1578.072" y="-388.152" type="curve"/>
			<point x="1578.072" y="-301.192" type="line"/>
			<point x="1525.224" y="-326.072"/>
			<point x="1499.376" y="-330.648"/>
			<point x="1459.68" y="-330.648" type="curve" smooth="yes"/>
			<point x="1408.344" y="-330.648"/>
			<point x="1374.648" y="-303.312"/>
			<point x="1374.648" y="-250.976" type="curve" smooth="yes"/>
			<point x="1374.648" y="-205.944"/>
			<point x="1385.92" y="-166.216"/>
		</contour>
	</outline>
</glyph>
<glyph name="aogonek" format="2">
	<unicode hex="0105"/>
	<advance width="1275.136"/>
	<outline>
		<contour>
			<point x="1258.168" y="64.248" type="line"/>
			<point x="1258.168" y="175.872" type="line"/>
			<point x="1222.712" y="169.144"/>
			<point x="1193.648" y="165.416"/>
			<point x="1168.736" y="165.416" type="curve" smooth="yes"/>
			<point x="1104.912" y="165.416"/>
			<point x="1072.12" y="189.632"/>
			<point x="1072.12" y="259.88" type="curve" smooth="yes"/>
			<point x="1072.12" y="716.92" type="line" smooth="yes"/>
			<point x="1072.12" y="929.512"/>
			<point x="965.248" y="1056.72"/>
			<point x="664.024" y="1056.72" type="curve" smooth="yes"/>
			<point x="326.416" y="1056.72"/>
			<point x="103.944" y="894.088"/>
			<point x="103.944" y="791.488" type="curve" smooth="yes"/>
			<point x="103.944" y="741.552"/>
			<point x="148.216" y="705.128"/>
			<point x="239.968" y="705.128" type="curve" smooth="yes"/>
			<point x="319.408" y="705.128"/>
			<point x="362.04" y="715.944"/>
			<point x="385.04" y="773.88" type="curve" smooth="yes"/>
			<point x="408.04" y="830.968"/>
			<point x="424.736" y="886.144"/>
			<point x="443.888" y="968.024" type="curve"/>
			<point x="376.368" y="888.664" type="line"/>
			<point x="421.8" y="897.848"/>
			<point x="474.656" y="903.728"/>
			<point x="555.992" y="903.728" type="curve" smooth="yes"/>
			<point x="705.792" y="903.728"/>
			<point x="757.672" y="840.696"/>
			<point x="757.672" y="701.264" type="curve" smooth="yes"/>
			<point x="757.672" y="329.664" type="line" smooth="yes"/>
			<point x="757.672" y="248.136"/>
			<point x="677.232" y="190.216"/>
			<point x="565.248" y="190.216" type="curve" smooth="yes"/>
			<point x="456.512" y="190.216"/>
			<point x="416.016" y="229.192"/>
			<point x="416.016" y="320.256" type="curve" smooth="yes"/>
			<point x="416.016" y="426.112"/>
			<point x="465.568" y="472.24"/>
			<point x="822.2" y="513.16" type="curve"/>
			<point x="849.272" y="654.064" type="line"/>
			<point x="209.744" y="573.728"/>
			<point x="97.648" y="464.544"/>
			<point x="97.648" y="260.664" type="curve" smooth="yes"/>
			<point x="97.648" y="73.64"/>
			<point x="215.04" y="-24.24"/>
			<point x="429.52" y="-24.24" type="curve" smooth="yes"/>
			<point x="624.912" y="-24.24"/>
			<point x="733.736" y="71.376"/>
			<point x="775.696" y="285.568" type="curve"/>
			<point x="764.728" y="278.784" type="line"/>
			<point x="775.12" y="66.64"/>
			<point x="855.448" y="-21.36"/>
			<point x="1003.92" y="-21.36" type="curve" smooth="yes"/>
			<point x="1044.912" y="-21.36"/>
			<point x="1085.36" y="-14.664"/>
			<point x="1123.96" y="-3.12" type="curve"/>
			<point x="1113.96" y="11.152" type="line"/>
			<point x="1043.832" y="-58.8" type="line" smooth="yes"/>
			<point x="910.968" y="-180.92"/>
			<point x="882.608" y="-237.008"/>
			<point x="882.608" y="-304.248" type="curve" smooth="yes"/>
			<point x="882.608" y="-403"/>
			<point x="934" y="-465"/>
			<point x="1065.328" y="-465" type="curve" smooth="yes"/>
			<point x="1138.176" y="-465"/>
			<point x="1182.992" y="-447.576"/>
			<point x="1265.2" y="-388.152" type="curve"/>
			<point x="1265.2" y="-301.192" type="line"/>
			<point x="1212.352" y="-326.072"/>
			<point x="1186.504" y="-330.648"/>
			<point x="1146.808" y="-330.648" type="curve" smooth="yes"/>
			<point x="1095.472" y="-330.648"/>
			<point x="1061.776" y="-303.312"/>
			<point x="1061.776" y="-250.976" type="curve" smooth="yes"/>
			<point x="1061.776" y="-208.064"/>
			<point x="1077.112" y="-172"/>
			<point x="1141.264" y="-87.48" type="curve" smooth="yes"/>
		</contour>
	</outline>
</glyph>
<glyph name="Dcroat" format="2">
  <advance width="1754"/>
  <unicode hex="0110"/>
  <outline>
    <contour>
      <point x="107.216" y="628.4639999999999" type="line"/>
      <point x="925.472" y="628.4639999999999" type="line"/>
      <point x="925.472" y="797.472" type="line"/>
      <point x="107.216" y="797.472" type="line"/>
    </contour>
    <contour>
      <point x="1281.0320000000002" y="722.7280000000001" type="curve" smooth="yes"/>
      <point x="1281.0320000000002" y="362.28000000000003"/>
      <point x="1148.456" y="214.512"/>
      <point x="876.592" y="214.512" type="curve" smooth="yes"/>
      <point x="476.77599999999995" y="214.512" type="line"/>
      <point x="453.88" y="0.0" type="line"/>
      <point x="885.5600000000001" y="0.0" type="line" smooth="yes"/>
      <point x="1344.56" y="0.0"/>
      <point x="1643.56" y="257.0"/>
      <point x="1643.56" y="736.0" type="curve" smooth="yes"/>
      <point x="1643.56" y="1177.0"/>
      <point x="1389.56" y="1414.0"/>
      <point x="894.5600000000001" y="1414.0" type="curve" smooth="yes"/>
      <point x="453.88" y="1414.0" type="line"/>
      <point x="476.77599999999995" y="1199.488" type="line"/>
      <point x="827.832" y="1199.488" type="line" smooth="yes"/>
      <point x="1151.608" y="1199.488"/>
      <point x="1281.0320000000002" y="1051.232"/>
    </contour>
    <contour>
      <point x="107.216" y="0.0" type="line"/>
      <point x="645.024" y="0.0" type="line"/>
      <point x="645.024" y="1414.0" type="line"/>
      <point x="107.216" y="1414.0" type="line"/>
      <point x="107.216" y="1295.28" type="line"/>
      <point x="291.344" y="1248.5839999999998" type="line"/>
      <point x="291.344" y="165.416" type="line"/>
      <point x="107.216" y="118.72" type="line"/>
    </contour>
  </outline>
</glyph>
<glyph name="dcroat" format="2">
  <advance width="1419.632"/>
  <unicode hex="0111"/>
  <outline>
    <contour>
      <point x="890.024" y="662.064" type="curve" smooth="yes"/>
      <point x="890.024" y="198.152" type="line"/>
      <point x="977.744" y="-24.24" type="line"/>
      <point x="1026.344" y="-24.24" type="line"/>
      <point x="1383.112" y="103.03200000000001" type="line"/>
      <point x="1383.112" y="165.384" type="line"/>
      <point x="1341.112" y="190.91652173913042"/>
      <point x="1229.896" y="257.48198757763976"/>
      <point x="1205.896" y="272.07199999999995" type="curve"/>
      <point x="1205.896" y="1242.384" type="line"/>
      <point x="1228.4399999999998" y="1488.24" type="line"/>
      <point x="1152.52" y="1488.24" type="line"/>
      <point x="765.928" y="1435.2" type="line"/>
      <point x="765.928" y="1333.7279999999998" type="line"/>
      <point x="800.088" y="1318.912"/>
      <point x="872.9920000000001" y="1294.88"/>
      <point x="890.024" y="1283.52" type="curve"/>
      <point x="890.024" y="922.768" type="line"/>
      <point x="1082.7679999999998" y="950.416" type="line"/>
      <point x="944.016" y="1029.992"/>
      <point x="844.168" y="1056.72"/>
      <point x="691.96" y="1056.72" type="curve" smooth="yes"/>
      <point x="351.24" y="1056.72"/>
      <point x="92.4" y="835.144"/>
      <point x="92.4" y="476.24" type="curve" smooth="yes"/>
      <point x="92.4" y="166.152"/>
      <point x="244.16" y="-24.240000000000002"/>
      <point x="545.072" y="-24.240000000000002" type="curve" smooth="yes"/>
      <point x="624.648" y="-24.240000000000002"/>
      <point x="685.536" y="-5.4799999999999995"/>
      <point x="970.3919999999999" y="202.616" type="curve"/>
      <point x="970.3919999999999" y="253.152" type="line"/>
      <point x="877.528" y="214.89600000000002"/>
      <point x="782.7280000000001" y="194.616"/>
      <point x="694.768" y="194.616" type="curve" smooth="yes"/>
      <point x="502.99199999999996" y="194.616"/>
      <point x="412.12800000000004" y="287.536"/>
      <point x="412.12800000000004" y="518.664" type="curve" smooth="yes"/>
      <point x="412.12800000000004" y="760.848"/>
      <point x="510.384" y="872.0799999999999"/>
      <point x="690.592" y="872.0799999999999" type="curve" smooth="yes"/>
      <point x="838.136" y="872.0799999999999"/>
      <point x="890.024" y="802.584"/>
    </contour>
    <contour>
      <point x="609.024" y="1123.568" type="line"/>
      <point x="1373.3600000000001" y="1123.568" type="line"/>
      <point x="1373.3600000000001" y="1247.808" type="line"/>
      <point x="609.024" y="1247.808" type="line"/>
    </contour>
  </outline>
</glyph>
<glyph name="Eogonek" format="2">
  <advance width="1589"/>
  <unicode hex="0118"/>
  <outline>
    <contour>
      <point x="1109.8400000000001" y="990.0" type="line"/>
      <point x="956.3679999999999" y="990.0" type="line"/>
      <point x="939.3679999999999" y="828.144" type="line"/>
      <point x="461.75199999999995" y="828.144" type="line"/>
      <point x="461.75199999999995" y="645.856" type="line"/>
      <point x="939.3679999999999" y="645.856" type="line"/>
      <point x="956.3679999999999" y="480.0" type="line"/>
      <point x="1109.8400000000001" y="480.0" type="line"/>
      <point x="1109.8400000000001" y="735.0" type="line"/>
    </contour>
    <contour>
      <point x="1451.576" y="1002.1439999999999" type="line"/>
      <point x="1451.576" y="1495.872" type="line"/>
      <point x="1327.432" y="1495.872" type="line"/>
      <point x="1227.536" y="1414.0" type="line"/>
      <point x="461.75199999999995" y="1414.0" type="line"/>
      <point x="461.75199999999995" y="1215.1760000000002" type="line"/>
      <point x="1283.712" y="1215.1760000000002" type="line"/>
      <point x="1173.336" y="1336.064" type="line"/>
      <point x="1284.4399999999998" y="1002.1440000000001" type="line"/>
    </contour>
    <contour>
      <point x="1153.008" y="80.05600000000001" type="line"/>
      <point x="1250.688" y="198.824" type="line"/>
      <point x="461.75199999999995" y="198.824" type="line"/>
      <point x="461.75199999999995" y="0.0" type="line"/>
      <point x="1208.272" y="0.0" type="line"/>
      <point x="1276.5600000000002" y="-85.144" type="line"/>
      <point x="1419.2479999999998" y="-85.144" type="line"/>
      <point x="1506.696" y="475.67199999999997" type="line"/>
      <point x="1338.352" y="475.672" type="line"/>
    </contour>
    <contour>
      <point x="103.216" y="0.0" type="line"/>
      <point x="641.024" y="0.0" type="line"/>
      <point x="641.024" y="1414.0" type="line"/>
      <point x="103.216" y="1414.0" type="line"/>
      <point x="103.216" y="1295.28" type="line"/>
      <point x="287.344" y="1248.5839999999998" type="line"/>
      <point x="287.344" y="165.416" type="line"/>
      <point x="103.216" y="118.72" type="line"/>
    </contour>
    <contour>
      <point x="1194.1039999999998" y="-73.488" type="curve" smooth="yes"/>
      <point x="1274.048" y="67.048" type="line"/>
      <point x="1180.6000000000001" y="67.048" type="line"/>
      <point x="1074.1999999999998" y="-54.56" type="line" smooth="yes"/>
      <point x="965.896" y="-178.192"/>
      <point x="946.8960000000001" y="-237.008"/>
      <point x="946.8960000000001" y="-304.248" type="curve" smooth="yes"/>
      <point x="946.8960000000001" y="-403.0"/>
      <point x="999.288" y="-465.0"/>
      <point x="1129.616" y="-465.0" type="curve" smooth="yes"/>
      <point x="1202.464" y="-465.0"/>
      <point x="1247.28" y="-447.576"/>
      <point x="1329.488" y="-388.152" type="curve"/>
      <point x="1329.488" y="-301.192" type="line"/>
      <point x="1276.64" y="-326.072"/>
      <point x="1250.792" y="-330.648"/>
      <point x="1211.096" y="-330.648" type="curve" smooth="yes"/>
      <point x="1155.944" y="-330.648"/>
      <point x="1126.0639999999999" y="-302.04"/>
      <point x="1126.0639999999999" y="-245.88799999999998" type="curve" smooth="yes"/>
      <point x="1126.0639999999999" y="-202.128"/>
      <point x="1141.248" y="-161.82399999999998"/>
    </contour>
  </outline>
</glyph>
<glyph name="eogonek" format="2">
	<unicode hex="0119"/>
	<advance width="1204.512"/>
	<outline>
		<contour>
			<point x="1091.632" y="142.656" type="line"/>
			<point x="1091.632" y="263.496" type="line"/>
			<point x="992" y="233.704"/>
			<point x="882.696" y="207.424"/>
			<point x="746.456" y="207.424" type="curve" smooth="yes"/>
			<point x="489.872" y="207.424"/>
			<point x="387.192" y="302.648"/>
			<point x="387.192" y="578.016" type="curve" smooth="yes"/>
			<point x="387.192" y="801.272"/>
			<point x="463.088" y="880.68"/>
			<point x="609.776" y="880.68" type="curve" smooth="yes"/>
			<point x="740.272" y="880.68"/>
			<point x="809.072" y="817.608"/>
			<point x="808.56" y="585.16" type="curve"/>
			<point x="877.584" y="630.328" type="line"/>
			<point x="317.272" y="630.328" type="line"/>
			<point x="320.728" y="484.152" type="line"/>
			<point x="1111.928" y="484.152" type="line"/>
			<point x="1102.144" y="875.8"/>
			<point x="964.64" y="1056.72"/>
			<point x="624.104" y="1056.72" type="curve" smooth="yes"/>
			<point x="289.944" y="1056.72"/>
			<point x="91.976" y="841.6"/>
			<point x="91.976" y="500.544" type="curve" smooth="yes"/>
			<point x="91.976" y="158.608"/>
			<point x="296.064" y="-24.24"/>
			<point x="639.016" y="-24.24" type="curve" smooth="yes"/>
			<point x="728.832" y="-24.24"/>
			<point x="835.832" y="4.76"/>
			<point x="957.912" y="65.904" type="curve"/>
			<point x="945.912" y="79.904" type="line"/>
			<point x="873.424" y="-1.496" type="line" smooth="yes"/>
			<point x="745.976" y="-142.008"/>
			<point x="711.464" y="-214.856"/>
			<point x="711.464" y="-296.76" type="curve" smooth="yes"/>
			<point x="711.464" y="-403"/>
			<point x="770.192" y="-465"/>
			<point x="904.552" y="-465" type="curve" smooth="yes"/>
			<point x="979.704" y="-465"/>
			<point x="1016.456" y="-447.576"/>
			<point x="1098.664" y="-388.152" type="curve"/>
			<point x="1098.664" y="-301.192" type="line"/>
			<point x="1045.816" y="-326.072"/>
			<point x="1019.968" y="-330.648"/>
			<point x="980.272" y="-330.648" type="curve" smooth="yes"/>
			<point x="926.392" y="-330.648"/>
			<point x="888.904" y="-307.92"/>
			<point x="888.904" y="-244.464" type="curve" smooth="yes"/>
			<point x="888.904" y="-197.368"/>
			<point x="906.696" y="-134.456"/>
			<point x="972.064" y="-37.36" type="curve" smooth="yes"/>
		</contour>
	</outline>
</glyph>
<glyph name="Hbar" format="2">
	<unicode hex="0126"/>
	<advance width="1914.576"/>
	<outline>
		<contour>
			<point x="644.448" y="165.416" type="line"/>
			<point x="644.448" y="1248.584" type="line"/>
			<point x="828.576" y="1295.28" type="line"/>
			<point x="828.576" y="1414" type="line"/>
			<point x="106.64" y="1414" type="line"/>
			<point x="106.64" y="1295.28" type="line"/>
			<point x="290.768" y="1248.584" type="line"/>
			<point x="290.768" y="165.416" type="line"/>
			<point x="106.64" y="118.72" type="line"/>
			<point x="106.64" y="0" type="line"/>
			<point x="828.576" y="0" type="line"/>
			<point x="828.576" y="118.72" type="line"/>
		</contour>
		<contour>
			<point x="1623.808" y="165.416" type="line"/>
			<point x="1623.808" y="1248.584" type="line"/>
			<point x="1807.936" y="1295.28" type="line"/>
			<point x="1807.936" y="1414" type="line"/>
			<point x="1086" y="1414" type="line"/>
			<point x="1086" y="1295.28" type="line"/>
			<point x="1270.128" y="1248.584" type="line"/>
			<point x="1270.128" y="165.416" type="line"/>
			<point x="1086" y="118.72" type="line"/>
			<point x="1086" y="0" type="line"/>
			<point x="1807.936" y="0" type="line"/>
			<point x="1807.936" y="118.72" type="line"/>
		</contour>
		<contour>
			<point x="106.64" y="983.976" type="line"/>
			<point x="1807.936" y="983.976" type="line"/>
			<point x="1807.936" y="1152.984" type="line"/>
			<point x="106.64" y="1152.984" type="line"/>
		</contour>
		<contour>
			<point x="455" y="614.016" type="line"/>
			<point x="1461" y="614.016" type="line"/>
			<point x="1461" y="828.528" type="line"/>
			<point x="455" y="828.528" type="line"/>
		</contour>
	</outline>
</glyph>
<glyph name="hbar" format="2">
	<unicode hex="0127"/>
	<advance width="1446.864"/>
	<outline>
		<contour>
			<point x="817.168" y="105.752" type="line"/>
			<point x="817.168" y="0" type="line"/>
			<point x="1396.288" y="0" type="line"/>
			<point x="1396.288" y="105.752" type="line"/>
			<point x="1247.368" y="142.784" type="line"/>
			<point x="1247.368" y="734.808" type="line" smooth="yes"/>
			<point x="1247.368" y="943.6"/>
			<point x="1139.432" y="1056.72"/>
			<point x="905.768" y="1056.72" type="curve" smooth="yes"/>
			<point x="789.096" y="1056.72"/>
			<point x="762.608" y="1046.264"/>
			<point x="486.32" y="832.52" type="curve"/>
			<point x="504.016" y="763.84" type="line"/>
			<point x="578.96" y="785.632"/>
			<point x="666.88" y="799.696"/>
			<point x="742.952" y="799.696" type="curve" smooth="yes"/>
			<point x="882.456" y="799.696"/>
			<point x="931.496" y="752.6"/>
			<point x="931.496" y="644.824" type="curve" smooth="yes"/>
			<point x="931.496" y="136.848" type="line"/>
		</contour>
		<contour>
			<point x="639.728" y="0" type="line"/>
			<point x="639.728" y="105.752" type="line"/>
			<point x="525.4" y="136.848" type="line"/>
			<point x="525.4" y="1242.384" type="line"/>
			<point x="547.944" y="1488.24" type="line"/>
			<point x="472.024" y="1488.24" type="line"/>
			<point x="85.432" y="1435.2" type="line"/>
			<point x="85.432" y="1360.016" type="line"/>
			<point x="119.168" y="1319.336"/>
			<point x="191.648" y="1272.408"/>
			<point x="209.528" y="1226.28" type="curve"/>
			<point x="209.528" y="142.784" type="line"/>
			<point x="61.608" y="105.752" type="line"/>
			<point x="61.608" y="0" type="line"/>
		</contour>
		<contour>
			<point x="42.064" y="1123.568" type="line"/>
			<point x="806.4" y="1123.568" type="line"/>
			<point x="806.4" y="1247.808" type="line"/>
			<point x="42.064" y="1247.808" type="line"/>
		</contour>
	</outline>
</glyph>
